<svg width="465" height="309" viewBox="0 0 465 309" fill="none" xmlns="http://www.w3.org/2000/svg">
<g clip-path="url(#clip0_25_335)">
<mask id="mask0_25_335" style="mask-type:luminance" maskUnits="userSpaceOnUse" x="0" y="0" width="465" height="309">
<path d="M464.102 0H0V308.224H464.102V0Z" fill="white"/>
</mask>
<g mask="url(#mask0_25_335)">
<path d="M232.054 65.953V9.453C202.816 9.41596 173.86 15.157 146.848 26.3461C119.836 37.5353 95.3013 53.9521 74.654 74.653L114.609 114.605C130.015 99.1587 148.322 86.9089 168.477 78.5596C188.632 70.2103 210.238 65.926 232.054 65.953Z" fill="#6E06C1" fill-opacity="0.15" stroke="#6406C1" stroke-width="5" stroke-linecap="round" stroke-linejoin="round"/>
<path d="M349.496 114.604L389.454 74.653C368.807 53.9512 344.272 37.5339 317.259 26.3447C290.247 15.1554 261.289 9.41492 232.051 9.45301V65.953C253.867 65.9256 275.473 70.2095 295.628 78.5587C315.784 86.9078 334.09 99.1576 349.496 114.604Z" fill="#6E06C1" fill-opacity="0.25" stroke="#6406C1" stroke-width="5" stroke-linecap="round" stroke-linejoin="round"/>
<path d="M398.146 232.055H454.646C454.683 202.817 448.943 173.86 437.753 146.849C426.564 119.837 410.147 95.3021 389.446 74.655L349.499 114.604C364.945 130.011 377.194 148.319 385.543 168.475C393.891 188.631 398.174 210.238 398.146 232.055Z" fill="#6E06C1" fill-opacity="0.35" stroke="#6406C1" stroke-width="5" stroke-linecap="round" stroke-linejoin="round"/>
<path d="M114.603 114.604L74.652 74.649C53.9498 95.2966 37.5323 119.832 26.3431 146.845C15.1538 173.858 9.41349 202.816 9.45197 232.055H65.952C65.923 210.238 70.2063 188.63 78.5555 168.474C86.9047 148.318 99.1553 130.01 114.603 114.604Z" fill="#6E06C1" fill-opacity="0.05" stroke="#6406C1" stroke-width="5" stroke-linecap="round" stroke-linejoin="round"/>
<path d="M195.913 170.521L167.221 119.302L208.564 160.992L208.477 161.057C219.895 154.936 233.202 153.35 245.739 156.616C258.276 159.883 269.117 167.762 276.096 178.677C283.074 189.592 285.675 202.739 283.379 215.489C281.083 228.239 274.058 239.653 263.71 247.447C253.362 255.242 240.453 258.843 227.564 257.53C214.676 256.218 202.757 250.089 194.193 240.368C185.628 230.648 181.048 218.053 181.369 205.102C181.69 192.15 186.888 179.797 195.923 170.513L195.913 170.521Z" stroke="#170D67" stroke-width="5" stroke-linecap="round" stroke-linejoin="round"/>
<mask id="mask1_25_335" style="mask-type:luminance" maskUnits="userSpaceOnUse" x="210" y="177" width="44" height="56">
<path d="M253.21 177.321H210.892V232.052H253.21V177.321Z" fill="white"/>
</mask>
<g mask="url(#mask1_25_335)">
<path d="M224.811 229.436V210.153C224.811 209.971 224.775 209.791 224.706 209.622C224.636 209.454 224.534 209.301 224.405 209.172C224.277 209.044 224.124 208.941 223.956 208.872C223.787 208.802 223.607 208.766 223.425 208.766H213.509C213.242 208.766 212.98 208.689 212.756 208.544C212.531 208.399 212.354 208.192 212.244 207.948C212.135 207.704 212.098 207.434 212.139 207.17C212.179 206.906 212.295 206.659 212.473 206.459L236.869 179.016C237.056 178.806 237.302 178.658 237.575 178.591C237.848 178.524 238.135 178.542 238.398 178.642C238.66 178.742 238.887 178.919 239.046 179.15C239.206 179.382 239.292 179.656 239.292 179.937V199.219C239.292 199.401 239.328 199.581 239.397 199.75C239.467 199.918 239.569 200.071 239.698 200.2C239.826 200.329 239.979 200.431 240.147 200.5C240.316 200.57 240.496 200.606 240.678 200.606H250.595C250.862 200.606 251.124 200.683 251.348 200.828C251.572 200.974 251.75 201.18 251.86 201.424C251.969 201.668 252.006 201.938 251.965 202.202C251.925 202.467 251.809 202.713 251.631 202.913L227.234 230.357C227.047 230.568 226.801 230.716 226.528 230.783C226.255 230.851 225.967 230.833 225.704 230.733C225.442 230.633 225.215 230.455 225.056 230.224C224.896 229.992 224.811 229.717 224.811 229.436Z" fill="#00E4A5"/>
</g>
</g>
</g>
<defs>
<clipPath id="clip0_25_335">
<rect width="464.102" height="308.224" fill="white"/>
</clipPath>
</defs>
</svg>
