<svg width="61" height="86" viewBox="0 0 61 86" fill="none" xmlns="http://www.w3.org/2000/svg">
<path d="M30.353 0C47.1164 0 60.7059 13.5895 60.7059 30.353V83.4706C60.7059 84.8675 59.5735 86 58.1765 86H2.52943C1.13244 86 0 84.8675 0 83.4706V30.353C0 13.5895 13.5895 0 30.353 0ZM5.05888 68.2941H11.3824V58.1765C11.3824 56.7795 12.5148 55.647 13.9118 55.647H22.7648V45.5294C22.7648 44.1325 23.8972 43 25.2942 43H34.1472V32.8824C34.1472 31.4854 35.2797 30.353 36.6766 30.353H55.6472C55.6472 16.3833 44.3226 5.05889 30.3531 5.05889C16.3837 5.05889 5.05888 16.3833 5.05888 30.353V68.2941ZM5.05888 73.353V80.9411H55.647V73.353H5.05888ZM16.4411 60.7059V68.2941H55.647V60.7059H16.4411ZM27.8235 48.0589V55.647H55.647V48.0589H27.8235ZM39.2059 35.4118V43H55.647V35.4118H39.2059Z" fill="white"/>
</svg>
