<svg width="88" height="54" viewBox="0 0 88 54" fill="none" xmlns="http://www.w3.org/2000/svg">
<path d="M65.1365 51.001L62.1468 45.0684H25.8536L22.8634 51.001C21.9963 52.7222 20.2522 53.7915 18.312 53.7915C15.5066 53.7915 13.2235 51.5269 13.2235 48.7437V45.0684C5.95057 45.0684 0.0338135 39.1983 0.0338135 31.9844V18.8994C0.0338135 14.585 3.20831 10.9918 7.36155 10.2975V9.20763C7.36155 4.13058 11.5253 0 16.6434 0H36.1836C39.4617 0 42.3481 1.69457 44 4.24694C45.6518 1.69457 48.5382 0 51.8163 0H71.3568C76.4738 0 80.6384 4.13058 80.6384 9.20763V10.2975C84.7919 10.9918 87.9661 14.585 87.9661 18.8994V31.9844C87.9661 39.198 82.0488 45.0678 74.7764 45.0684V48.7437C74.7764 51.5269 72.4936 53.7915 69.6874 53.7915C67.7477 53.7915 66.0036 52.7222 65.1365 51.001ZM67.7579 49.7003C68.126 50.4305 68.8651 50.8836 69.6874 50.8836C70.8774 50.8836 71.8451 49.9236 71.8451 48.7437V45.0684H65.423L67.7579 49.7003ZM16.1548 48.7437C16.1548 49.9236 17.1225 50.8836 18.312 50.8836C19.1348 50.8836 19.8739 50.4305 20.242 49.7003L22.5769 45.0684H16.1548V48.7437ZM2.96506 18.8994V31.9844C2.96506 37.5951 7.56678 42.1606 13.2235 42.1606H74.7759C80.4326 42.1606 85.0348 37.5951 85.0348 31.9844V18.8994C85.0348 15.693 82.405 13.0844 79.1729 13.0844C75.9397 13.0844 73.3101 15.693 73.3101 18.8994V21.7632C73.3106 21.7779 73.3109 21.7927 73.3109 21.8074C73.3109 21.8221 73.3106 21.8368 73.3101 21.8513V24.7153C73.3101 28.7229 70.0232 31.9844 65.9832 31.9844H43.9997H22.0168C17.976 31.9844 14.689 28.7229 14.689 24.7153V18.8994C14.689 15.693 12.0595 13.0844 8.82704 13.0844C5.59488 13.0844 2.96506 15.693 2.96506 18.8994ZM65.9832 29.0764C68.407 29.0764 70.3794 27.1196 70.3794 24.7153V23.2613H49.8625C47.4376 23.2613 45.4655 25.218 45.4655 27.6225V29.0764H65.9832ZM17.6205 24.7153C17.6205 27.1196 19.5922 29.0764 22.0168 29.0764H42.5347V27.6225C42.5347 25.218 40.5623 23.2613 38.1377 23.2613H17.6205V24.7153ZM45.4655 9.20763V21.8109C46.6908 20.8961 48.214 20.3535 49.8625 20.3535H70.3794V18.8994C70.3794 14.585 73.5534 10.9918 77.7071 10.2975V9.20763C77.7071 5.73374 74.8584 2.90744 71.3568 2.90744H51.8163C48.3144 2.90744 45.4655 5.73374 45.4655 9.20763ZM38.1377 20.3535C39.7862 20.3535 41.3091 20.8961 42.5347 21.8109V9.20763C42.5347 5.73374 39.6855 2.90744 36.1836 2.90744H16.6434C13.1415 2.90744 10.2928 5.73374 10.2928 9.20763V10.2975C14.4463 10.9918 17.6205 14.585 17.6205 18.8994V20.3535H38.1377Z" fill="white"/>
</svg>
