<svg width="70" height="70" viewBox="0 0 70 70" fill="none" xmlns="http://www.w3.org/2000/svg">
<path d="M63.7501 70C63.0599 70 62.5001 69.4403 62.5001 68.7502V26.2501H7.50046V68.7502C7.50046 69.4403 6.94077 70 6.2497 70H1.2504C0.559691 70 0 69.4403 0 68.7502V15.0001C0 14.4921 0.307616 14.0345 0.77812 13.8425L34.5278 0.0922583C34.8304 -0.0307528 35.1694 -0.0307528 35.472 0.0922583L69.2219 13.8425C69.6924 14.0345 70 14.4921 70 15.0001V68.7502C70 69.4403 69.4403 70 68.7501 70H63.7501ZM63.7501 23.7504C64.4401 23.7504 64.9998 24.3101 64.9998 25.0003V67.5004H67.5003V15.841L35.0003 2.6001L2.50027 15.841V67.5004H5.00001V25.0003C5.00001 24.3101 5.5597 23.7504 6.2497 23.7504H63.7501ZM51.9644 69.8888C50.3375 69.887 49.0194 68.5688 49.0182 66.9425V63.9514H20.9818V66.9425C20.9804 68.5688 19.6623 69.887 18.0354 69.8888H14.6433C13.0166 69.887 11.6983 68.5688 11.6958 66.9425V63.9107C10.7117 63.7175 10.0014 62.8558 10 61.8525V49.9249C10.0112 48.2007 10.828 46.5806 12.2087 45.5472C13.5892 44.5145 15.3741 44.1867 17.0312 44.6621L20.3778 37.6815C21.526 35.5342 23.7954 34.226 26.2291 34.3084H43.7707C46.2046 34.226 48.4736 35.5342 49.622 37.6821L52.9713 44.6677C54.5927 44.1818 56.3481 44.4782 57.7197 45.4698C59.159 46.4957 60.0098 48.1572 60 49.9249V61.8525C59.9985 62.8558 59.2875 63.7175 58.3042 63.9107L58.3035 66.9425C58.3017 68.5688 56.9834 69.887 55.3572 69.8888H51.9644ZM51.5177 66.9425C51.5215 67.1873 51.7191 67.3854 51.9644 67.3884H55.3572C55.602 67.386 55.8007 67.1879 55.8037 66.9425V63.9514H51.5177V66.9425ZM14.1961 66.9425C14.1998 67.1879 14.3978 67.386 14.6433 67.3884H18.0354C18.2809 67.3854 18.4783 67.1873 18.4821 66.9425V63.9514H14.1961V66.9425ZM43.4816 57.2327C45.1087 57.2345 46.4268 58.5528 46.4285 60.179V61.451H57.5002V55.4631H54.4622C53.7722 55.4631 53.2125 54.9034 53.2125 54.2133C53.2125 53.5225 53.7722 52.9628 54.4622 52.9628H57.5002L57.4995 49.9249C57.4928 48.9659 57.029 48.0679 56.2516 47.5076C55.4735 46.9466 54.4752 46.791 53.563 47.0874C50.7822 48.0679 46.313 50.5134 43.5297 50.38H26.4703C25.2205 50.3813 23.9823 50.1401 22.8234 49.6709L16.3642 47.0604C15.4707 46.7787 14.4957 46.9417 13.7423 47.4978C12.0145 48.5508 12.5884 51.3046 12.5003 52.9628H15.5377C16.2278 52.9628 16.7875 53.5225 16.7875 54.2133C16.7875 54.9034 16.2278 55.4631 15.5377 55.4631H12.5003V61.451H23.5715V60.179C23.5732 58.5528 24.8913 57.2345 26.5177 57.2327H43.4816ZM26.071 61.451H43.9288C43.8631 60.8537 44.1773 59.7348 43.4816 59.7324H26.5177C25.825 59.7343 26.1356 60.8525 26.071 61.451ZM22.6328 38.7616L19.3649 45.5779C21.1337 46.1857 24.5523 48.0298 26.4703 47.8804L43.5297 47.8797C45.4617 48.0236 48.8305 46.1857 50.6346 45.5768L47.3672 38.7616C46.626 37.4915 45.2403 36.7386 43.7707 36.8081H26.2291C26.1664 36.8052 26.1041 36.8036 26.0418 36.8036C24.6433 36.8038 23.3424 37.545 22.6328 38.7616ZM29.3099 55.4693C28.6199 55.4693 28.0602 54.9096 28.0602 54.2188C28.0602 53.5287 28.6199 52.9688 29.3099 52.9688H40.6897C41.3799 52.9688 41.9396 53.5287 41.9396 54.2188C41.9396 54.9096 41.3799 55.4693 40.6897 55.4693H29.3099ZM25.0001 16.2501C24.3095 16.2501 23.7504 15.6909 23.7504 15.0001C23.7504 14.31 24.3095 13.7503 25.0001 13.7503H45.0003C45.6905 13.7503 46.2502 14.31 46.2502 15.0001C46.2502 15.6909 45.6905 16.2501 45.0003 16.2501H25.0001Z" fill="white"/>
</svg>
