<svg width="44" height="56" viewBox="0 0 44 56" fill="none" xmlns="http://www.w3.org/2000/svg">
<mask id="mask0_25_347" style="mask-type:luminance" maskUnits="userSpaceOnUse" x="0" y="0" width="44" height="56">
<path d="M43.21 0.321045H0.891968V55.052H43.21V0.321045Z" fill="white"/>
</mask>
<g mask="url(#mask0_25_347)">
<path d="M14.8109 52.4361V33.1531C14.8111 32.971 14.7753 32.7906 14.7057 32.6224C14.6361 32.4541 14.5341 32.3012 14.4053 32.1724C14.2766 32.0436 14.1238 31.9414 13.9556 31.8717C13.7873 31.8019 13.607 31.7661 13.4249 31.7661H3.50894C3.24171 31.7661 2.98015 31.6889 2.75578 31.5437C2.53141 31.3986 2.35379 31.1916 2.24432 30.9478C2.13484 30.7041 2.09818 30.4338 2.13874 30.1697C2.1793 29.9055 2.29536 29.6588 2.47294 29.4591L26.8689 2.01606C27.0558 1.80611 27.3021 1.6579 27.5751 1.59106C27.8481 1.52422 28.135 1.5419 28.3978 1.64177C28.6605 1.74164 28.8867 1.91898 29.0464 2.15029C29.2061 2.38161 29.2917 2.65598 29.2919 2.93706V22.2191C29.2918 22.4012 29.3276 22.5815 29.3972 22.7498C29.4668 22.918 29.5688 23.0709 29.6975 23.1998C29.8263 23.3286 29.9791 23.4307 30.1473 23.5005C30.3155 23.5702 30.4958 23.6061 30.6779 23.6061H40.5949C40.8622 23.606 41.1237 23.6832 41.3481 23.8284C41.5725 23.9736 41.7501 24.1805 41.8596 24.4243C41.969 24.6681 42.0057 24.9383 41.9651 25.2024C41.9246 25.4666 41.8085 25.7134 41.6309 25.9131L17.2339 53.3571C17.0473 53.5675 16.801 53.7162 16.5278 53.7834C16.2546 53.8506 15.9675 53.833 15.7045 53.733C15.4415 53.6331 15.2152 53.4555 15.0556 53.2238C14.896 52.9921 14.8107 52.7174 14.8109 52.4361Z" fill="#00E4A5"/>
</g>
</svg>
