<svg width="88" height="82" viewBox="0 0 88 82" fill="none" xmlns="http://www.w3.org/2000/svg">
<path d="M87.3674 9.45988V17.0004C87.3674 17.8382 86.6917 18.5139 85.8539 18.5139H80.881V80.4865C80.881 81.3243 80.2053 82 79.3674 82H8.63252C7.79469 82 7.11902 81.3243 7.11902 80.4865V18.5139H2.14607C1.30824 18.5139 0.632568 17.8382 0.632568 17.0004V9.45989C0.632568 8.62205 1.30824 7.94637 2.14607 7.94637H15.3352V5.86532L13.2001 2.37885C12.7676 1.64912 12.9839 0.730202 13.7136 0.297779C14.4163 -0.134647 15.3622 0.0815659 15.7946 0.811291L17.7136 3.94641H21.4703V1.51399C21.4703 0.676159 22.146 0.000488281 22.9838 0.000488281C23.8216 0.000488281 24.4973 0.676159 24.4973 1.51399V3.94641H28.2L30.1729 0.730206C31.2 -0.972481 33.7945 0.622108 32.7675 2.32479L30.4702 6.08153V8.00044H43.9837V5.91937L41.8485 2.4329C41.4161 1.70319 41.6323 0.784264 42.3621 0.351833C43.0648 -0.0805931 44.0107 0.135628 44.4431 0.865345L46.362 4.00047H50.1188V1.56805C50.1188 0.730206 50.7944 0.0545387 51.6323 0.0545387C52.4701 0.0545387 53.1458 0.730206 53.1458 1.56805V4.00047H56.8485L58.8214 0.784264C59.8755 -0.918423 62.443 0.676159 61.416 2.37885L59.1187 6.13559V8.0545H85.8269C86.6917 7.94639 87.3674 8.62205 87.3674 9.45988ZM47.0377 7.94637H56.0917V6.94639H47.0377V7.94637ZM18.3892 7.94637H27.4432V6.94639H18.3892V7.94637ZM66.9836 18.5139H10.1731V78.973H66.9836V18.5139ZM77.8269 50.2705H70.0106V78.973H77.8269V50.2705ZM77.8269 18.5139H70.0106V47.2164H77.8269V18.5139ZM84.3134 10.9734H3.68661V15.4598H84.3404V10.9734H84.3134ZM14.7136 72.8919V39.3516C14.7136 38.5138 15.3893 37.8381 16.2271 37.8381H60.8755C61.7133 37.8381 62.389 38.5138 62.389 39.3516V72.8919C62.389 73.7298 61.7133 74.4055 60.8755 74.4055H16.2541C15.3892 74.4055 14.7136 73.7298 14.7136 72.8919ZM17.7676 71.3514H59.389V40.8651H17.7676V71.3514ZM28.8216 29.676V26.4598C28.8216 24.5949 30.3351 23.0544 32.227 23.0544H35.4432C37.308 23.0544 38.8486 24.5679 38.8486 26.4598V29.676C38.8486 31.5408 37.3351 33.0814 35.4432 33.0814H32.227C30.3351 33.0814 28.8216 31.5408 28.8216 29.676ZM31.8486 29.676C31.8486 29.8652 32.0108 30.0273 32.2 30.0273H35.4162C35.6054 30.0273 35.7675 29.8652 35.7675 29.676V26.4598C35.7675 26.2706 35.6054 26.1084 35.4162 26.1084H32.2C32.0108 26.1084 31.8486 26.2706 31.8486 26.4598V29.676ZM42.9026 29.676V26.4598C42.9026 24.5949 44.4161 23.0544 46.308 23.0544H49.5242C51.389 23.0544 52.9296 24.5679 52.9296 26.4598V29.676C52.9296 31.5408 51.4161 33.0814 49.5242 33.0814H46.308C44.4431 33.0814 42.9026 31.5408 42.9026 29.676ZM45.9566 29.676C45.9566 29.8652 46.1188 30.0273 46.308 30.0273H49.5242C49.7134 30.0273 49.8755 29.8652 49.8755 29.676V26.4598C49.8755 26.2706 49.7134 26.1084 49.5242 26.1084H46.308C46.1188 26.1084 45.9566 26.2706 45.9566 26.4598V29.676ZM14.7136 29.676V26.4598C14.7136 24.5949 16.2271 23.0544 18.119 23.0544H21.3352C23.2 23.0544 24.7406 24.5679 24.7406 26.4598V29.676C24.7406 31.5408 23.227 33.0814 21.3352 33.0814H18.119C16.2541 33.0814 14.7136 31.5408 14.7136 29.676ZM17.7676 29.676C17.7676 29.8652 17.9298 30.0273 18.119 30.0273H21.3352C21.5244 30.0273 21.6865 29.8652 21.6865 29.676V26.4598C21.6865 26.2706 21.5244 26.1084 21.3352 26.1084H18.119C17.9298 26.1084 17.7676 26.2706 17.7676 26.4598V29.676Z" fill="white"/>
</svg>
