<svg width="78" height="76" viewBox="0 0 78 76" fill="none" xmlns="http://www.w3.org/2000/svg">
<path d="M60.9061 14.6015C60.5163 14.2972 59.9868 14.2416 59.5401 14.4565C59.0947 14.674 58.8125 15.1259 58.8125 15.6205V16.4103C58.8125 17.6662 58.3218 18.8483 57.4323 19.7377C56.7072 20.4615 55.7866 20.9043 54.7949 21.0506V7.35223C54.7949 3.48353 51.6461 0.334717 47.7774 0.334717H7.03046C3.154 0.334717 0 3.48353 0 7.35223V67.2212C0 71.0977 3.154 74.2517 7.03046 74.2517H39.7512C41.0537 75.1424 42.6269 75.6655 44.3204 75.6655H62.3057C66.7829 75.6655 70.425 72.0247 70.425 67.5462V61.2097C72.7387 60.8795 74.5281 58.9051 74.5281 56.5033C74.5281 54.4071 73.1621 52.6424 71.2795 52.0015C71.0491 50.1345 69.9214 48.4811 68.2369 47.6952C67.6504 47.422 67.0794 47.3067 66.5356 47.2601V36.3182L67.3138 37.0524C67.8109 37.5211 68.5904 37.5237 69.0901 37.0524L77.2807 29.3396C77.5552 29.0819 77.7028 28.7168 77.686 28.34C77.6691 27.9633 77.4892 27.6124 77.1914 27.3793L60.9087 14.5989L60.9061 14.6015ZM52.1173 20.6648H52.2041V20.7127C52.1743 20.6997 52.1471 20.679 52.1173 20.6648ZM7.03046 2.9255H47.7774C50.2192 2.9255 52.2054 4.91164 52.2054 7.35352V18.074H49.7143C49.5162 17.5548 49.3958 16.9981 49.3958 16.4103V15.6205C49.3958 15.1246 49.1122 14.674 48.6681 14.4565C48.224 14.2416 47.6932 14.2959 47.3022 14.6015L42.8768 18.0753H2.58949V7.35482C2.58949 4.91293 4.58081 2.9268 7.03046 2.9268L7.03046 2.9255ZM2.58948 67.2225V20.6635H39.5764L32.1174 26.5183C30.5728 26.1364 28.9906 25.9318 27.3968 25.9318C16.4873 25.9318 7.61309 34.806 7.61309 45.7155C7.61309 56.625 16.4873 65.5121 27.3968 65.5121C30.486 65.5121 33.4873 64.791 36.2023 63.4354V67.5462C36.2023 69.0494 36.6205 70.4529 37.3352 71.6622H7.03046C4.5808 71.6622 2.58949 69.6709 2.58949 67.2212L2.58948 67.2225ZM41.6739 44.5878C41.3956 44.6085 41.1133 44.6434 40.8246 44.7004C40.822 44.6668 40.8246 44.6318 40.8207 44.5981C40.2471 37.6738 34.3509 32.2502 27.3981 32.2502C20.4453 32.2502 14.5633 37.6687 13.9923 44.5425C13.947 44.9283 13.9314 45.3167 13.9314 45.7155C13.9314 53.1396 19.9727 59.1808 27.3968 59.1808C29.1304 59.1808 30.8395 58.8442 32.4269 58.2072C32.9279 59.5084 33.9793 60.5248 35.2986 60.9896C32.8736 62.252 30.1753 62.9226 27.3955 62.9226C17.9141 62.9226 10.2013 55.2034 10.2013 45.7155C10.2013 36.2276 17.9141 28.5213 27.3955 28.5213C28.4753 28.5213 29.5499 28.6313 30.6065 28.8333C30.6751 29.0237 30.7774 29.1997 30.9276 29.3422L39.1181 37.055C39.6179 37.5262 40.3973 37.5249 40.8945 37.055L41.6713 36.3234V44.5891L41.6739 44.5878ZM32.2288 55.4416C30.7372 56.1835 29.0864 56.5926 27.3981 56.5926C21.6585 56.5926 16.9534 52.1193 16.5598 46.4781C16.6841 46.5493 16.8252 46.6011 16.9365 46.6853C19.1298 48.3309 22.8004 48.3166 24.9665 46.6917C26.2937 45.7103 28.6009 45.7103 29.928 46.6917C31.0337 47.5074 32.4605 47.958 33.9469 47.958C34.9736 47.958 35.9654 47.7301 36.8484 47.3275C35.9524 48.639 35.5601 50.2562 35.7401 51.8824C33.9974 52.3109 32.6314 53.6898 32.2301 55.4429L32.2288 55.4416ZM36.4263 44.6085C35.0992 45.5899 32.792 45.5899 31.4649 44.6085C29.2522 42.9771 25.6489 42.9706 23.4206 44.615C22.1298 45.5821 19.7824 45.5847 18.4954 44.6201C17.9723 44.2227 17.3664 43.9236 16.7177 43.7099C17.6681 38.6566 22.1595 34.8409 27.3968 34.8409C32.634 34.8409 37.1579 38.6773 38.0953 43.7475C37.4958 43.9572 36.9287 44.2395 36.4263 44.6072V44.6085ZM67.8342 67.5488C67.8342 70.5966 65.3535 73.0786 62.3044 73.0786H44.3191C41.2713 73.0786 38.7905 70.5979 38.7905 67.5488V61.8933C39.0663 61.6991 39.3395 61.4945 39.6127 61.2796H67.8329V67.5488H67.8342ZM69.7505 58.6901H36.873C35.6676 58.6901 34.6875 57.71 34.6875 56.5046C34.6875 55.2992 35.6676 54.3191 36.873 54.3191H69.7505C70.9559 54.3191 71.936 55.2992 71.936 56.5046C71.936 57.71 70.9546 58.6901 69.7505 58.6901ZM68.5606 51.7309H38.3205C38.1173 50.3106 38.6106 48.8863 39.6839 47.9994C41.3489 46.6244 43.5643 47.3365 43.5876 47.3443C44.2608 47.5747 44.9898 47.2161 45.2254 46.5454C46.0048 44.3224 48.1243 42.9124 50.3837 43.0962C52.3543 43.2658 54.0944 44.6991 54.7133 46.6633C54.8402 47.0646 55.1535 47.3779 55.5523 47.5061C55.9511 47.6369 56.3887 47.5618 56.7253 47.3093C57.8026 46.4975 59.219 46.3163 60.4192 46.8393C62.0558 47.5476 62.4869 49.232 62.5297 49.4211C62.6229 49.825 62.9039 50.1591 63.2845 50.3209C63.6678 50.484 64.1002 50.4556 64.4575 50.2406C64.5119 50.2083 65.8326 49.434 67.139 50.0451C67.8291 50.3675 68.3159 50.9942 68.5593 51.7322L68.5606 51.7309ZM68.2007 34.3347L66.1265 32.3757C65.7497 32.021 65.1955 31.9213 64.7256 32.1297C64.2504 32.3343 63.9435 32.8017 63.9435 33.3183V46.4885C63.3946 45.7323 62.6087 44.9645 61.4486 44.4622C59.8897 43.785 58.1249 43.7954 56.5674 44.4402C55.349 42.2236 53.1389 40.7333 50.6051 40.5158C48.1619 40.297 45.8301 41.3393 44.2634 43.1571V33.317C44.2634 32.8004 43.9566 32.3317 43.4814 32.1285C43.0101 31.9213 42.4572 32.0184 42.0805 32.3758L40.0076 34.3321L33.8019 28.4889L47.0083 18.1219C47.1559 18.7304 47.4006 19.2962 47.6893 19.8349C47.7061 19.8789 47.7333 19.9151 47.754 19.9579C48.8779 21.9595 50.9042 23.3682 53.2878 23.6375C53.359 23.6492 53.4237 23.6803 53.4988 23.6803C53.5286 23.6803 53.5545 23.6647 53.583 23.6634C53.7565 23.6764 53.9261 23.7087 54.1022 23.7087C56.0482 23.7087 57.8802 22.9487 59.2604 21.5698C60.2263 20.6052 60.8879 19.4179 61.1974 18.1245L74.4038 28.4915L68.1981 34.336L68.2007 34.3347Z" fill="white"/>
<path d="M14.5066 17.4254H29.9804C32.9607 17.4254 35.386 15.0001 35.386 12.0198C35.386 9.03956 32.9607 6.61572 29.9804 6.61572H14.5066C11.5264 6.61572 9.10254 9.03956 9.10254 12.0198C9.10254 15.0001 11.5264 17.4254 14.5066 17.4254ZM14.5066 9.52899H29.9804C31.354 9.52899 32.4727 10.6462 32.4727 12.0198C32.4727 13.3934 31.354 14.5121 29.9804 14.5121H14.5066C13.133 14.5121 12.0158 13.3934 12.0158 12.0198C12.0158 10.6462 13.133 9.52899 14.5066 9.52899Z" fill="white"/>
<path d="M44.672 17.8814C47.9043 17.8814 50.5335 15.2507 50.5335 12.0199C50.5335 8.78912 47.9028 6.15845 44.672 6.15845C41.4412 6.15845 38.8105 8.78912 38.8105 12.0199C38.8105 15.2507 41.4412 17.8814 44.672 17.8814ZM44.672 9.07025C46.2976 9.07025 47.6202 10.3929 47.6202 12.0185C47.6202 13.6441 46.2976 14.9667 44.672 14.9667C43.0464 14.9667 41.7238 13.6441 41.7238 12.0185C41.7238 10.3929 43.0464 9.07025 44.672 9.07025Z" fill="white"/>
</svg>
