<svg width="407" height="268" viewBox="0 0 407 268" fill="none" xmlns="http://www.w3.org/2000/svg">
<g clip-path="url(#clip0_41_63)">
<path d="M203.417 0C91.073 0 0 55.479 0 123.916C0 150.647 13.9 175.401 37.523 195.645L10.229 267.786L95.72 229.049C126.955 240.949 163.864 247.834 203.42 247.834C315.765 247.834 406.837 192.354 406.837 123.916C406.837 55.478 315.762 0 203.417 0Z" fill="#6E06C1"/>
<path d="M341.138 95.68C338.618 100.09 335.648 102.07 332.498 102.58L331.838 99.07C333.608 98.8 335.738 97.66 336.668 96.1C333.398 91.63 331.718 87.52 331.268 81.67H335.438C335.648 86.8 337.118 90.1 338.828 92.95C340.358 89.68 341.138 86.8 341.378 81.67H345.488C345.098 87.04 343.328 91.81 341.138 95.68Z" fill="white"/>
<path d="M329.432 89.32C329.432 94.15 326.612 97.36 321.962 97.36C317.342 97.36 314.462 94.15 314.462 89.32C314.462 84.52 317.342 81.31 321.962 81.31C326.612 81.31 329.432 84.52 329.432 89.32ZM318.692 89.32C318.692 92.17 319.862 93.94 321.962 93.94C324.092 93.94 325.202 92.17 325.202 89.32C325.202 86.5 324.092 84.73 321.962 84.73C319.862 84.73 318.692 86.5 318.692 89.32Z" fill="white"/>
<path d="M311.298 96.04C311.298 99.28 309.888 101.32 306.378 102.49L305.178 99.1C306.498 98.41 307.158 97.69 307.158 95.83V81.67H311.298V96.04ZM311.598 77.32C311.598 78.7 310.728 79.63 309.228 79.63C307.698 79.63 306.828 78.7 306.828 77.32C306.828 75.94 307.698 75.01 309.228 75.01C310.728 75.01 311.598 75.94 311.598 77.32Z" fill="white"/>
<path d="M293.778 97H289.668V82.63C291.558 81.82 294.138 81.31 296.448 81.31C300.828 81.31 303.348 83.47 303.348 87.46V97H299.208V87.76C299.208 85.69 298.248 84.73 296.418 84.73C295.458 84.73 294.558 84.91 293.778 85.27V97Z" fill="white"/>
<path d="M285.317 93.01L285.977 96.34C284.657 96.94 282.707 97.36 280.727 97.36C275.897 97.36 272.597 94.3 272.597 89.32C272.597 84.55 275.627 81.31 280.037 81.31C283.967 81.31 286.547 84.1 286.547 88.12C286.547 89.02 286.487 89.8 286.427 90.4H276.947C277.337 92.8 278.747 93.88 281.147 93.88C282.617 93.88 284.027 93.55 285.317 93.01ZM280.037 84.61C278.297 84.61 277.157 85.84 276.887 87.88H282.587V87.52C282.587 85.84 281.687 84.61 280.037 84.61Z" fill="white"/>
<path d="M263.192 89.32C263.192 94.15 260.372 97.36 255.722 97.36C251.102 97.36 248.222 94.15 248.222 89.32C248.222 84.52 251.102 81.31 255.722 81.31C260.372 81.31 263.192 84.52 263.192 89.32ZM252.452 89.32C252.452 92.17 253.622 93.94 255.722 93.94C257.852 93.94 258.962 92.17 258.962 89.32C258.962 86.5 257.852 84.73 255.722 84.73C253.622 84.73 252.452 86.5 252.452 89.32Z" fill="white"/>
<path d="M246.712 97.09C245.992 97.27 245.032 97.36 244.102 97.36C240.532 97.36 238.702 95.41 238.702 91.45V84.97H236.662V81.67H238.702V78.34L242.842 78.13V81.67H246.172V84.97H242.842V91.39C242.842 93.13 243.562 93.94 244.912 93.94C245.542 93.94 246.112 93.85 246.502 93.76L246.712 97.09Z" fill="white"/>
<path d="M227.7 82.18L227.25 85.54C225.87 85.12 224.52 84.73 223.08 84.73C221.82 84.73 220.98 85.09 220.98 85.96C220.98 86.86 221.67 87.13 223.47 87.64C226.95 88.6 228.57 89.77 228.57 92.53C228.57 95.77 225.93 97.36 222.27 97.36C220.35 97.36 218.22 96.97 216.84 96.37L217.41 92.98C218.73 93.49 220.41 93.94 222.18 93.94C223.56 93.94 224.52 93.46 224.52 92.62C224.52 91.63 223.77 91.36 221.31 90.67C218.55 89.95 216.9 88.66 216.9 86.05C216.9 82.99 219.09 81.31 222.75 81.31C224.46 81.31 226.41 81.67 227.7 82.18Z" fill="white"/>
<path d="M213.886 81.67V97H209.746V81.67H213.886ZM211.816 79.63C210.286 79.63 209.416 78.7 209.416 77.32C209.416 75.94 210.286 75.01 211.816 75.01C213.316 75.01 214.186 75.94 214.186 77.32C214.186 78.7 213.316 79.63 211.816 79.63Z" fill="white"/>
<path d="M200.072 97.09C199.352 97.27 198.392 97.36 197.462 97.36C193.892 97.36 192.062 95.41 192.062 91.45V84.97H190.022V81.67H192.062V78.34L196.202 78.13V81.67H199.532V84.97H196.202V91.39C196.202 93.13 196.922 93.94 198.272 93.94C198.902 93.94 199.472 93.85 199.862 93.76L200.072 97.09Z" fill="white"/>
<path d="M178.231 97H174.121V82.63C176.011 81.82 178.591 81.31 180.901 81.31C185.281 81.31 187.801 83.47 187.801 87.46V97H183.661V87.76C183.661 85.69 182.701 84.73 180.871 84.73C179.911 84.73 179.011 84.91 178.231 85.27V97Z" fill="white"/>
<path d="M164.233 94.39C165.133 94.39 165.883 94.21 166.333 93.97V90.76C165.643 90.61 164.923 90.52 164.203 90.52C162.823 90.52 161.743 91.06 161.743 92.47C161.743 93.73 162.643 94.39 164.233 94.39ZM170.353 96.04C169.123 96.67 166.813 97.36 163.813 97.36C159.703 97.36 157.633 95.35 157.633 92.65C157.633 89.68 160.063 87.94 163.663 87.91C164.503 87.91 165.583 88.03 166.333 88.15V87.43C166.333 85.6 165.283 84.73 163.273 84.73C161.953 84.73 160.543 84.94 159.313 85.45L158.563 82.21C159.853 81.67 161.923 81.31 163.753 81.31C168.163 81.31 170.353 83.65 170.353 87.7V96.04Z" fill="white"/>
<path d="M146.213 81.67C146.543 86.8 147.503 90.4 148.913 93.79C150.563 90.4 151.553 86.8 151.763 81.67H155.873C155.303 87.7 154.193 91.57 151.163 97H147.023C145.943 94.9 145.073 93.04 144.383 91.21C143.783 93.1 142.973 95.11 141.953 97H137.963C134.633 91.57 133.733 87.7 133.253 81.67H137.333C137.633 86.8 138.623 90.4 140.183 93.79C141.533 91.21 142.433 87.76 142.733 85.03C142.583 83.98 142.463 82.87 142.373 81.67H146.213Z" fill="white"/>
<path d="M118.9 97V76H123.19V97H118.9Z" fill="white"/>
<path d="M106.363 75.25V91.45C106.363 93.07 106.783 93.94 107.983 93.94C108.283 93.94 108.583 93.91 108.853 93.85L109.153 97.12C108.583 97.24 107.653 97.36 107.053 97.36C103.603 97.36 102.223 95.11 102.223 91.51V75.49L106.363 75.25Z" fill="white"/>
<path d="M97.3984 75.25V91.45C97.3984 93.07 97.8184 93.94 99.0184 93.94C99.3184 93.94 99.6184 93.91 99.8884 93.85L100.188 97.12C99.6184 97.24 98.6884 97.36 98.0884 97.36C94.6384 97.36 93.2584 95.11 93.2584 91.51V75.49L97.3984 75.25Z" fill="white"/>
<path d="M81.7302 80.56C80.9202 82.33 79.9302 85.33 78.9102 88.72H84.5202C83.5002 85.33 82.5402 82.33 81.7302 80.56ZM86.8602 97C86.4402 95.47 86.0202 93.91 85.6002 92.38H77.8602C77.4102 93.91 76.9902 95.47 76.6002 97H72.1902C74.1102 89.98 76.8102 81.67 79.4802 76H83.9502C86.6202 81.67 89.3502 89.95 91.2702 97H86.8602Z" fill="white"/>
<path d="M69.31 83.41H65.35C65.38 80.35 67.15 77.29 68.62 75.4H70.84C69.85 78.13 69.34 80.92 69.31 83.41ZM63.22 83.41H59.26C59.29 80.35 61.03 77.29 62.5 75.4H64.75C63.73 78.13 63.25 80.92 63.22 83.41Z" fill="white"/>
<path d="M321.284 127.09C320.564 127.27 319.604 127.36 318.674 127.36C315.104 127.36 313.274 125.41 313.274 121.45V114.97H311.234V111.67H313.274V108.34L317.414 108.13V111.67H320.744V114.97H317.414V121.39C317.414 123.13 318.134 123.94 319.484 123.94C320.114 123.94 320.684 123.85 321.074 123.76L321.284 127.09Z" fill="white"/>
<path d="M308.86 126.04C307.69 126.52 304.87 127.36 302.02 127.36C296.95 127.36 295.27 124.78 295.27 120.94V111.67H299.38V120.94C299.38 122.83 300.22 123.94 302.11 123.94C303.1 123.94 303.97 123.76 304.72 123.4V111.67H308.86V126.04Z" fill="white"/>
<path d="M292.295 119.32C292.295 124.15 289.475 127.36 284.825 127.36C280.205 127.36 277.325 124.15 277.325 119.32C277.325 114.52 280.205 111.31 284.825 111.31C289.475 111.31 292.295 114.52 292.295 119.32ZM281.555 119.32C281.555 122.17 282.725 123.94 284.825 123.94C286.955 123.94 288.065 122.17 288.065 119.32C288.065 116.5 286.955 114.73 284.825 114.73C282.725 114.73 281.555 116.5 281.555 119.32Z" fill="white"/>
<path d="M264.815 127H260.675V105.46L264.815 105.25V111.91C265.625 111.52 266.585 111.31 267.905 111.31C271.775 111.31 274.355 113.47 274.355 117.46V127H270.215V117.79C270.215 115.72 269.165 114.76 267.245 114.76C266.405 114.76 265.505 115 264.815 115.33V127Z" fill="white"/>
<path d="M258.119 127.09C257.399 127.27 256.439 127.36 255.509 127.36C251.939 127.36 250.109 125.41 250.109 121.45V114.97H248.069V111.67H250.109V108.34L254.249 108.13V111.67H257.579V114.97H254.249V121.39C254.249 123.13 254.969 123.94 256.319 123.94C256.949 123.94 257.519 123.85 257.909 123.76L258.119 127.09Z" fill="white"/>
<path d="M245.626 111.67V127H241.486V111.67H245.626ZM243.556 109.63C242.026 109.63 241.156 108.7 241.156 107.32C241.156 105.94 242.026 105.01 243.556 105.01C245.056 105.01 245.926 105.94 245.926 107.32C245.926 108.7 245.056 109.63 243.556 109.63Z" fill="white"/>
<path d="M229.046 111.67C229.376 116.8 230.336 120.4 231.746 123.79C233.396 120.4 234.386 116.8 234.596 111.67H238.706C238.136 117.7 237.026 121.57 233.996 127H229.856C228.776 124.9 227.906 123.04 227.216 121.21C226.616 123.1 225.806 125.11 224.786 127H220.796C217.466 121.57 216.566 117.7 216.086 111.67H220.166C220.466 116.8 221.456 120.4 223.016 123.79C224.366 121.21 225.266 117.76 225.566 115.03C225.416 113.98 225.296 112.87 225.206 111.67H229.046Z" fill="white"/>
<path d="M205.816 123.01L206.476 126.34C205.156 126.94 203.206 127.36 201.226 127.36C196.396 127.36 193.096 124.3 193.096 119.32C193.096 114.55 196.126 111.31 200.536 111.31C204.466 111.31 207.046 114.1 207.046 118.12C207.046 119.02 206.986 119.8 206.926 120.4H197.446C197.836 122.8 199.246 123.88 201.646 123.88C203.116 123.88 204.526 123.55 205.816 123.01ZM200.536 114.61C198.796 114.61 197.656 115.84 197.386 117.88H203.086V117.52C203.086 115.84 202.186 114.61 200.536 114.61Z" fill="white"/>
<path d="M190.128 127H186.018V117.76C186.018 115.75 185.207 114.73 183.317 114.73C182.297 114.73 181.277 115.03 180.527 115.45C180.767 116.26 180.887 117.22 180.887 118.27V127H176.868V117.76C176.868 115.75 176.087 114.73 174.167 114.73C173.327 114.73 172.518 114.91 171.738 115.27V127H167.628V112.63C169.548 111.79 172.038 111.31 174.378 111.31C176.118 111.31 177.557 111.73 178.607 112.54C179.867 111.91 181.667 111.31 183.497 111.31C187.757 111.31 190.128 113.53 190.128 117.46V127Z" fill="white"/>
<path d="M164.502 119.32C164.502 124.15 161.682 127.36 157.032 127.36C152.412 127.36 149.532 124.15 149.532 119.32C149.532 114.52 152.412 111.31 157.032 111.31C161.682 111.31 164.502 114.52 164.502 119.32ZM153.762 119.32C153.762 122.17 154.932 123.94 157.032 123.94C159.162 123.94 160.272 122.17 160.272 119.32C160.272 116.5 159.162 114.73 157.032 114.73C154.932 114.73 153.762 116.5 153.762 119.32Z" fill="white"/>
<path d="M137.022 127H132.882V105.46L137.022 105.25V111.91C137.832 111.52 138.792 111.31 140.112 111.31C143.982 111.31 146.562 113.47 146.562 117.46V127H142.422V117.79C142.422 115.72 141.372 114.76 139.452 114.76C138.612 114.76 137.712 115 137.022 115.33V127Z" fill="white"/>
<path d="M118.815 125.68C116.295 130.09 113.325 132.07 110.175 132.58L109.515 129.07C111.285 128.8 113.415 127.66 114.345 126.1C111.075 121.63 109.395 117.52 108.945 111.67H113.115C113.325 116.8 114.795 120.1 116.505 122.95C118.035 119.68 118.815 116.8 119.055 111.67H123.165C122.775 117.04 121.005 121.81 118.815 125.68Z" fill="white"/>
<path d="M106.69 127H102.58V117.76C102.58 115.75 101.77 114.73 99.88 114.73C98.86 114.73 97.84 115.03 97.09 115.45C97.33 116.26 97.45 117.22 97.45 118.27V127H93.43V117.76C93.43 115.75 92.65 114.73 90.73 114.73C89.89 114.73 89.08 114.91 88.3 115.27V127H84.19V112.63C86.11 111.79 88.6 111.31 90.94 111.31C92.68 111.31 94.12 111.73 95.17 112.54C96.43 111.91 98.23 111.31 100.06 111.31C104.32 111.31 106.69 113.53 106.69 117.46V127Z" fill="white"/>
<path d="M309.557 142.18L309.107 145.54C307.727 145.12 306.377 144.73 304.937 144.73C303.677 144.73 302.837 145.09 302.837 145.96C302.837 146.86 303.527 147.13 305.327 147.64C308.807 148.6 310.427 149.77 310.427 152.53C310.427 155.77 307.787 157.36 304.127 157.36C302.207 157.36 300.077 156.97 298.697 156.37L299.267 152.98C300.587 153.49 302.267 153.94 304.037 153.94C305.417 153.94 306.377 153.46 306.377 152.62C306.377 151.63 305.627 151.36 303.167 150.67C300.407 149.95 298.757 148.66 298.757 146.05C298.757 142.99 300.947 141.31 304.607 141.31C306.317 141.31 308.267 141.67 309.557 142.18Z" fill="white"/>
<path d="M297.222 157.09C296.502 157.27 295.542 157.36 294.612 157.36C291.042 157.36 289.212 155.41 289.212 151.45V144.97H287.172V141.67H289.212V138.34L293.352 138.13V141.67H296.682V144.97H293.352V151.39C293.352 153.13 294.072 153.94 295.422 153.94C296.052 153.94 296.622 153.85 297.012 153.76L297.222 157.09Z" fill="white"/>
<path d="M285.329 142.18L284.879 145.54C283.499 145.12 282.149 144.73 280.709 144.73C279.449 144.73 278.609 145.09 278.609 145.96C278.609 146.86 279.299 147.13 281.099 147.64C284.579 148.6 286.199 149.77 286.199 152.53C286.199 155.77 283.559 157.36 279.899 157.36C277.979 157.36 275.849 156.97 274.469 156.37L275.039 152.98C276.359 153.49 278.039 153.94 279.809 153.94C281.189 153.94 282.149 153.46 282.149 152.62C282.149 151.63 281.399 151.36 278.939 150.67C276.179 149.95 274.529 148.66 274.529 146.05C274.529 142.99 276.719 141.31 280.379 141.31C282.089 141.31 284.039 141.67 285.329 142.18Z" fill="white"/>
<path d="M272.393 149.32C272.393 154.15 269.573 157.36 264.923 157.36C260.303 157.36 257.423 154.15 257.423 149.32C257.423 144.52 260.303 141.31 264.923 141.31C269.573 141.31 272.393 144.52 272.393 149.32ZM261.653 149.32C261.653 152.17 262.823 153.94 264.923 153.94C267.053 153.94 268.163 152.17 268.163 149.32C268.163 146.5 267.053 144.73 264.923 144.73C262.823 144.73 261.653 146.5 261.653 149.32Z" fill="white"/>
<path d="M251.244 141.31C252.954 141.31 254.664 141.7 255.774 142.21L254.994 145.48C253.854 145 252.624 144.73 251.604 144.73C249.174 144.73 247.854 146.44 247.854 149.26C247.854 152.35 249.234 153.94 251.814 153.94C252.804 153.94 254.004 153.67 255.144 153.16L255.804 156.49C254.784 157 253.224 157.36 251.484 157.36C246.504 157.36 243.624 154.27 243.624 149.38C243.624 144.52 246.474 141.31 251.244 141.31Z" fill="white"/>
<path d="M230.427 155.68C227.907 160.09 224.937 162.07 221.787 162.58L221.127 159.07C222.897 158.8 225.027 157.66 225.957 156.1C222.687 151.63 221.007 147.52 220.557 141.67H224.727C224.937 146.8 226.407 150.1 228.117 152.95C229.647 149.68 230.427 146.8 230.667 141.67H234.777C234.387 147.04 232.617 151.81 230.427 155.68Z" fill="white"/>
<path d="M217.88 156.04C217.88 160.27 214.97 162.7 210.29 162.7C208.01 162.7 206.66 162.43 205.04 161.77L205.91 158.5C207.17 159.01 208.55 159.25 210.05 159.25C212.36 159.25 213.77 158.29 213.77 156.46V155.77C212.84 156.13 211.88 156.31 210.95 156.31C206.51 156.31 203.78 153.7 203.78 149.17C203.78 144.34 207.05 141.31 211.88 141.31C214.25 141.31 216.53 141.91 217.88 142.51V156.04ZM208.01 148.81C208.01 151.3 209.3 152.86 211.61 152.86C212.45 152.86 213.14 152.65 213.77 152.35V145.06C213.2 144.88 212.54 144.73 211.88 144.73C209.42 144.73 208.01 146.35 208.01 148.81Z" fill="white"/>
<path d="M193.664 142.63C195.284 141.82 197.804 141.31 199.964 141.31C201.044 141.31 202.064 141.43 202.664 141.58L202.064 144.97C201.554 144.79 200.924 144.73 200.294 144.73C199.184 144.73 198.434 144.94 197.804 145.24V157H193.664V142.63Z" fill="white"/>
<path d="M189.284 153.01L189.944 156.34C188.624 156.94 186.674 157.36 184.694 157.36C179.864 157.36 176.564 154.3 176.564 149.32C176.564 144.55 179.594 141.31 184.004 141.31C187.934 141.31 190.514 144.1 190.514 148.12C190.514 149.02 190.454 149.8 190.394 150.4H180.914C181.304 152.8 182.714 153.88 185.114 153.88C186.584 153.88 187.994 153.55 189.284 153.01ZM184.004 144.61C182.264 144.61 181.124 145.84 180.854 147.88H186.554V147.52C186.554 145.84 185.654 144.61 184.004 144.61Z" fill="white"/>
<path d="M164.053 157H159.943V142.63C161.833 141.82 164.413 141.31 166.723 141.31C171.103 141.31 173.623 143.47 173.623 147.46V157H169.483V147.76C169.483 145.69 168.523 144.73 166.693 144.73C165.733 144.73 164.833 144.91 164.053 145.27V157Z" fill="white"/>
<path d="M155.592 153.01L156.252 156.34C154.932 156.94 152.982 157.36 151.002 157.36C146.172 157.36 142.872 154.3 142.872 149.32C142.872 144.55 145.902 141.31 150.312 141.31C154.242 141.31 156.822 144.1 156.822 148.12C156.822 149.02 156.762 149.8 156.702 150.4H147.222C147.612 152.8 149.022 153.88 151.422 153.88C152.892 153.88 154.302 153.55 155.592 153.01ZM150.312 144.61C148.572 144.61 147.432 145.84 147.162 147.88H152.862V147.52C152.862 145.84 151.962 144.61 150.312 144.61Z" fill="white"/>
<path d="M129.675 155.68C127.155 160.09 124.185 162.07 121.035 162.58L120.375 159.07C122.145 158.8 124.275 157.66 125.205 156.1C121.935 151.63 120.255 147.52 119.805 141.67H123.975C124.185 146.8 125.655 150.1 127.365 152.95C128.895 149.68 129.675 146.8 129.915 141.67H134.025C133.635 147.04 131.865 151.81 129.675 155.68Z" fill="white"/>
<path d="M117.55 157H113.44V147.76C113.44 145.75 112.63 144.73 110.74 144.73C109.72 144.73 108.7 145.03 107.95 145.45C108.19 146.26 108.31 147.22 108.31 148.27V157H104.29V147.76C104.29 145.75 103.51 144.73 101.59 144.73C100.75 144.73 99.94 144.91 99.16 145.27V157H95.05V142.63C96.97 141.79 99.46 141.31 101.8 141.31C103.54 141.31 104.98 141.73 106.03 142.54C107.29 141.91 109.09 141.31 110.92 141.31C115.18 141.31 117.55 143.53 117.55 147.46V157Z" fill="white"/>
<path d="M289.323 165.4H293.283C293.253 168.46 291.483 171.52 290.013 173.41H287.793C288.783 170.68 289.263 167.89 289.323 165.4ZM295.413 165.4H299.373C299.343 168.46 297.573 171.52 296.103 173.41H293.883C294.903 170.68 295.383 167.89 295.413 165.4Z" fill="white"/>
<path d="M282.998 187.33C281.438 187.33 280.598 186.43 280.598 184.99C280.598 183.61 281.438 182.71 282.998 182.71C284.528 182.71 285.368 183.61 285.368 184.99C285.368 186.43 284.528 187.33 282.998 187.33Z" fill="white"/>
<path d="M275.919 185.68C273.399 190.09 270.429 192.07 267.279 192.58L266.619 189.07C268.389 188.8 270.519 187.66 271.449 186.1C268.179 181.63 266.499 177.52 266.049 171.67H270.219C270.429 176.8 271.899 180.1 273.609 182.95C275.139 179.68 275.919 176.8 276.159 171.67H280.269C279.879 177.04 278.109 181.81 275.919 185.68Z" fill="white"/>
<path d="M257.714 184.39C258.614 184.39 259.364 184.21 259.814 183.97V180.76C259.124 180.61 258.404 180.52 257.684 180.52C256.304 180.52 255.224 181.06 255.224 182.47C255.224 183.73 256.124 184.39 257.714 184.39ZM263.834 186.04C262.604 186.67 260.294 187.36 257.294 187.36C253.184 187.36 251.114 185.35 251.114 182.65C251.114 179.68 253.544 177.94 257.144 177.91C257.984 177.91 259.064 178.03 259.814 178.15V177.43C259.814 175.6 258.764 174.73 256.754 174.73C255.434 174.73 254.024 174.94 252.794 175.45L252.044 172.21C253.334 171.67 255.404 171.31 257.234 171.31C261.644 171.31 263.834 173.65 263.834 177.7V186.04Z" fill="white"/>
<path d="M239.695 171.67C240.025 176.8 240.985 180.4 242.395 183.79C244.045 180.4 245.035 176.8 245.245 171.67H249.355C248.785 177.7 247.675 181.57 244.645 187H240.505C239.425 184.9 238.555 183.04 237.865 181.21C237.265 183.1 236.455 185.11 235.435 187H231.445C228.115 181.57 227.215 177.7 226.735 171.67H230.815C231.115 176.8 232.105 180.4 233.665 183.79C235.015 181.21 235.915 177.76 236.215 175.03C236.065 173.98 235.945 172.87 235.855 171.67H239.695Z" fill="white"/>
<path d="M218.339 184.39C219.239 184.39 219.989 184.21 220.439 183.97V180.76C219.749 180.61 219.029 180.52 218.309 180.52C216.929 180.52 215.849 181.06 215.849 182.47C215.849 183.73 216.749 184.39 218.339 184.39ZM224.459 186.04C223.229 186.67 220.919 187.36 217.919 187.36C213.809 187.36 211.739 185.35 211.739 182.65C211.739 179.68 214.169 177.94 217.769 177.91C218.609 177.91 219.689 178.03 220.439 178.15V177.43C220.439 175.6 219.389 174.73 217.379 174.73C216.059 174.73 214.649 174.94 213.419 175.45L212.669 172.21C213.959 171.67 216.029 171.31 217.859 171.31C222.269 171.31 224.459 173.65 224.459 177.7V186.04Z" fill="white"/>
<path d="M201.644 186.04C201.644 190.27 198.734 192.7 194.054 192.7C191.774 192.7 190.424 192.43 188.804 191.77L189.674 188.5C190.934 189.01 192.314 189.25 193.814 189.25C196.124 189.25 197.534 188.29 197.534 186.46V185.77C196.604 186.13 195.644 186.31 194.714 186.31C190.274 186.31 187.544 183.7 187.544 179.17C187.544 174.34 190.814 171.31 195.644 171.31C198.014 171.31 200.294 171.91 201.644 172.51V186.04ZM191.774 178.81C191.774 181.3 193.064 182.86 195.374 182.86C196.214 182.86 196.904 182.65 197.534 182.35V175.06C196.964 174.88 196.304 174.73 195.644 174.73C193.184 174.73 191.774 176.35 191.774 178.81Z" fill="white"/>
<path d="M175.033 187H170.923V172.63C172.813 171.82 175.393 171.31 177.703 171.31C182.083 171.31 184.603 173.47 184.603 177.46V187H180.463V177.76C180.463 175.69 179.503 174.73 177.673 174.73C176.713 174.73 175.813 174.91 175.033 175.27V187Z" fill="white"/>
<path d="M166.919 171.67V187H162.779V171.67H166.919ZM164.849 169.63C163.319 169.63 162.449 168.7 162.449 167.32C162.449 165.94 163.319 165.01 164.849 165.01C166.349 165.01 167.219 165.94 167.219 167.32C167.219 168.7 166.349 169.63 164.849 169.63Z" fill="white"/>
<path d="M151.412 172.63C153.032 171.82 155.552 171.31 157.712 171.31C158.792 171.31 159.812 171.43 160.412 171.58L159.812 174.97C159.302 174.79 158.672 174.73 158.042 174.73C156.932 174.73 156.182 174.94 155.552 175.24V187H151.412V172.63Z" fill="white"/>
<path d="M141.494 184.39C142.394 184.39 143.144 184.21 143.594 183.97V180.76C142.904 180.61 142.184 180.52 141.464 180.52C140.084 180.52 139.004 181.06 139.004 182.47C139.004 183.73 139.904 184.39 141.494 184.39ZM147.614 186.04C146.384 186.67 144.074 187.36 141.074 187.36C136.964 187.36 134.894 185.35 134.894 182.65C134.894 179.68 137.324 177.94 140.924 177.91C141.764 177.91 142.844 178.03 143.594 178.15V177.43C143.594 175.6 142.544 174.73 140.534 174.73C139.214 174.73 137.804 174.94 136.574 175.45L135.824 172.21C137.114 171.67 139.184 171.31 141.014 171.31C145.424 171.31 147.614 173.65 147.614 177.7V186.04Z" fill="white"/>
<path d="M132.758 179.32C132.758 184.15 129.938 187.36 125.288 187.36C120.668 187.36 117.788 184.15 117.788 179.32C117.788 174.52 120.668 171.31 125.288 171.31C129.938 171.31 132.758 174.52 132.758 179.32ZM122.018 179.32C122.018 182.17 123.188 183.94 125.288 183.94C127.418 183.94 128.528 182.17 128.528 179.32C128.528 176.5 127.418 174.73 125.288 174.73C123.188 174.73 122.018 176.5 122.018 179.32Z" fill="white"/>
<path d="M115.225 172.18L114.775 175.54C113.395 175.12 112.045 174.73 110.605 174.73C109.345 174.73 108.505 175.09 108.505 175.96C108.505 176.86 109.195 177.13 110.995 177.64C114.475 178.6 116.095 179.77 116.095 182.53C116.095 185.77 113.455 187.36 109.795 187.36C107.875 187.36 105.745 186.97 104.365 186.37L104.935 182.98C106.255 183.49 107.935 183.94 109.705 183.94C111.085 183.94 112.045 183.46 112.045 182.62C112.045 181.63 111.295 181.36 108.835 180.67C106.075 179.95 104.425 178.66 104.425 176.05C104.425 172.99 106.615 171.31 110.275 171.31C111.985 171.31 113.935 171.67 115.225 172.18Z" fill="white"/>
</g>
<defs>
<clipPath id="clip0_41_63">
<rect width="406.835" height="267.786" fill="white"/>
</clipPath>
</defs>
</svg>
