<svg width="407" height="268" viewBox="0 0 407 268" fill="none" xmlns="http://www.w3.org/2000/svg">
<g clip-path="url(#clip0_41_5)">
<path d="M203.417 0C91.073 0 0 55.479 0 123.916C0 150.647 13.9 175.401 37.523 195.645L10.229 267.786L95.72 229.049C126.955 240.949 163.864 247.834 203.42 247.834C315.764 247.834 406.837 192.354 406.837 123.916C406.837 55.478 315.762 0 203.417 0Z" fill="#6E06C1"/>
<path d="M312.615 100.504C309.759 105.502 306.393 107.746 302.823 108.324L302.075 104.346C304.081 104.04 306.495 102.748 307.549 100.98C303.843 95.914 301.939 91.256 301.429 84.626H306.155C306.393 90.44 308.059 94.18 309.997 97.41C311.731 93.704 312.615 90.44 312.887 84.626H317.545C317.103 90.712 315.097 96.118 312.615 100.504Z" fill="white"/>
<path d="M298.395 100.912C298.395 105.706 295.097 108.46 289.793 108.46C287.209 108.46 285.679 108.154 283.843 107.406L284.829 103.7C286.257 104.278 287.821 104.55 289.521 104.55C292.139 104.55 293.737 103.462 293.737 101.388V100.606C292.683 101.014 291.595 101.218 290.541 101.218C285.509 101.218 282.415 98.26 282.415 93.126C282.415 87.652 286.121 84.218 291.595 84.218C294.281 84.218 296.865 84.898 298.395 85.578V100.912ZM287.209 92.718C287.209 95.54 288.671 97.308 291.289 97.308C292.241 97.308 293.023 97.07 293.737 96.73V88.468C293.091 88.264 292.343 88.094 291.595 88.094C288.807 88.094 287.209 89.93 287.209 92.718Z" fill="white"/>
<path d="M270.95 85.714C272.786 84.796 275.642 84.218 278.09 84.218C279.314 84.218 280.47 84.354 281.15 84.524L280.47 88.366C279.892 88.162 279.178 88.094 278.464 88.094C277.206 88.094 276.356 88.332 275.642 88.672V102H270.95V85.714Z" fill="white"/>
<path d="M265.986 97.478L266.734 101.252C265.238 101.932 263.028 102.408 260.784 102.408C255.31 102.408 251.57 98.94 251.57 93.296C251.57 87.89 255.004 84.218 260.002 84.218C264.456 84.218 267.38 87.38 267.38 91.936C267.38 92.956 267.312 93.84 267.244 94.52H256.5C256.942 97.24 258.54 98.464 261.26 98.464C262.926 98.464 264.524 98.09 265.986 97.478ZM260.002 87.958C258.03 87.958 256.738 89.352 256.432 91.664H262.892V91.256C262.892 89.352 261.872 87.958 260.002 87.958Z" fill="white"/>
<path d="M237.391 102H232.733V85.714C234.875 84.796 237.799 84.218 240.417 84.218C245.381 84.218 248.237 86.666 248.237 91.188V102H243.545V91.528C243.545 89.182 242.457 88.094 240.383 88.094C239.295 88.094 238.275 88.298 237.391 88.706V102Z" fill="white"/>
<path d="M227.802 97.478L228.55 101.252C227.054 101.932 224.844 102.408 222.6 102.408C217.126 102.408 213.386 98.94 213.386 93.296C213.386 87.89 216.82 84.218 221.818 84.218C226.272 84.218 229.196 87.38 229.196 91.936C229.196 92.956 229.128 93.84 229.06 94.52H218.316C218.758 97.24 220.356 98.464 223.076 98.464C224.742 98.464 226.34 98.09 227.802 97.478ZM221.818 87.958C219.846 87.958 218.554 89.352 218.248 91.664H224.708V91.256C224.708 89.352 223.688 87.958 221.818 87.958Z" fill="white"/>
<path d="M201.774 100.912C201.774 105.706 198.476 108.46 193.172 108.46C190.588 108.46 189.058 108.154 187.222 107.406L188.208 103.7C189.636 104.278 191.2 104.55 192.9 104.55C195.518 104.55 197.116 103.462 197.116 101.388V100.606C196.062 101.014 194.974 101.218 193.92 101.218C188.888 101.218 185.794 98.26 185.794 93.126C185.794 87.652 189.5 84.218 194.974 84.218C197.66 84.218 200.244 84.898 201.774 85.578V100.912ZM190.588 92.718C190.588 95.54 192.05 97.308 194.668 97.308C195.62 97.308 196.402 97.07 197.116 96.73V88.468C196.47 88.264 195.722 88.094 194.974 88.094C192.186 88.094 190.588 89.93 190.588 92.718Z" fill="white"/>
<path d="M171.615 102H166.957V85.714C169.099 84.796 172.023 84.218 174.641 84.218C179.605 84.218 182.461 86.666 182.461 91.188V102H177.769V91.528C177.769 89.182 176.681 88.094 174.607 88.094C173.519 88.094 172.499 88.298 171.615 88.706V102Z" fill="white"/>
<path d="M162.42 84.626V102H157.728V84.626H162.42ZM160.074 82.314C158.34 82.314 157.354 81.26 157.354 79.696C157.354 78.132 158.34 77.078 160.074 77.078C161.774 77.078 162.76 78.132 162.76 79.696C162.76 81.26 161.774 82.314 160.074 82.314Z" fill="white"/>
<path d="M142.698 84.626C143.072 90.44 144.33 94.384 146.268 98.226C148.274 94.384 149.566 90.44 149.872 84.626H154.564C153.884 91.46 152.422 95.846 148.886 102H143.684C140.012 95.846 138.482 91.46 137.972 84.626H142.698Z" fill="white"/>
<path d="M128.458 99.042C129.478 99.042 130.328 98.838 130.838 98.566V94.928C130.056 94.758 129.24 94.656 128.424 94.656C126.86 94.656 125.636 95.268 125.636 96.866C125.636 98.294 126.656 99.042 128.458 99.042ZM135.394 100.912C134 101.626 131.382 102.408 127.982 102.408C123.324 102.408 120.978 100.13 120.978 97.07C120.978 93.704 123.732 91.732 127.812 91.698C128.764 91.698 129.988 91.834 130.838 91.97V91.154C130.838 89.08 129.648 88.094 127.37 88.094C125.874 88.094 124.276 88.332 122.882 88.91L122.032 85.238C123.494 84.626 125.84 84.218 127.914 84.218C132.912 84.218 135.394 86.87 135.394 91.46V100.912Z" fill="white"/>
<path d="M102.885 101.014L103.769 96.9C105.367 97.512 107.645 98.192 110.025 98.192C112.643 98.192 113.969 97.24 113.969 95.472C113.969 93.33 112.405 92.718 109.345 91.732C105.469 90.406 102.953 88.604 102.953 84.626C102.953 80.308 105.911 77.792 111.147 77.792C113.697 77.792 116.077 78.37 117.539 79.016L116.587 83.062C115.023 82.45 113.357 82.008 111.453 82.008C109.073 82.008 107.883 82.824 107.883 84.49C107.883 86.326 109.073 86.904 111.725 87.856C115.771 89.25 118.865 90.78 118.865 95.438C118.865 99.994 115.329 102.408 110.229 102.408C107.305 102.408 104.585 101.796 102.885 101.014Z" fill="white"/>
<path d="M98.873 86.598H94.385C94.419 83.13 96.425 79.662 98.091 77.52H100.607C99.485 80.614 98.907 83.776 98.873 86.598ZM91.971 86.598H87.483C87.517 83.13 89.489 79.662 91.155 77.52H93.705C92.549 80.614 92.005 83.776 91.971 86.598Z" fill="white"/>
<path d="M339.647 137.478L340.395 141.252C338.899 141.932 336.689 142.408 334.445 142.408C328.971 142.408 325.231 138.94 325.231 133.296C325.231 127.89 328.665 124.218 333.663 124.218C338.117 124.218 341.041 127.38 341.041 131.936C341.041 132.956 340.973 133.84 340.905 134.52H330.161C330.603 137.24 332.201 138.464 334.921 138.464C336.587 138.464 338.185 138.09 339.647 137.478ZM333.663 127.958C331.691 127.958 330.399 129.352 330.093 131.664H336.553V131.256C336.553 129.352 335.533 127.958 333.663 127.958Z" fill="white"/>
<path d="M322.608 133.058C322.608 138.838 319.14 142.408 313.598 142.408C311.082 142.408 308.26 142.068 306.594 141.184V117.622L311.286 117.384V124.626C311.898 124.388 312.748 124.218 313.836 124.218C319.072 124.218 322.608 127.448 322.608 133.058ZM311.286 138.192C311.932 138.43 312.544 138.532 313.394 138.532C316.454 138.532 317.848 136.526 317.848 133.228C317.848 129.896 316.454 128.094 313.428 128.094C312.646 128.094 311.898 128.332 311.286 128.604V138.192Z" fill="white"/>
<path d="M294.949 133.296C294.949 138.77 291.753 142.408 286.483 142.408C281.247 142.408 277.983 138.77 277.983 133.296C277.983 127.856 281.247 124.218 286.483 124.218C291.753 124.218 294.949 127.856 294.949 133.296ZM282.777 133.296C282.777 136.526 284.103 138.532 286.483 138.532C288.897 138.532 290.155 136.526 290.155 133.296C290.155 130.1 288.897 128.094 286.483 128.094C284.103 128.094 282.777 130.1 282.777 133.296Z" fill="white"/>
<path d="M276.272 142.102C275.456 142.306 274.368 142.408 273.314 142.408C269.268 142.408 267.194 140.198 267.194 135.71V128.366H264.882V124.626H267.194V120.852L271.886 120.614V124.626H275.66V128.366H271.886V135.642C271.886 137.614 272.702 138.532 274.232 138.532C274.946 138.532 275.592 138.43 276.034 138.328L276.272 142.102Z" fill="white"/>
<path d="M253.651 137.478L254.399 141.252C252.903 141.932 250.693 142.408 248.449 142.408C242.975 142.408 239.235 138.94 239.235 133.296C239.235 127.89 242.669 124.218 247.667 124.218C252.121 124.218 255.045 127.38 255.045 131.936C255.045 132.956 254.977 133.84 254.909 134.52H244.165C244.607 137.24 246.205 138.464 248.925 138.464C250.591 138.464 252.189 138.09 253.651 137.478ZM247.667 127.958C245.695 127.958 244.403 129.352 244.097 131.664H250.557V131.256C250.557 129.352 249.537 127.958 247.667 127.958Z" fill="white"/>
<path d="M225.524 124.626C225.898 130.44 227.156 134.384 229.094 138.226C231.1 134.384 232.392 130.44 232.698 124.626H237.39C236.71 131.46 235.248 135.846 231.712 142H226.51C222.838 135.846 221.308 131.46 220.798 124.626H225.524Z" fill="white"/>
<path d="M211.284 139.042C212.304 139.042 213.154 138.838 213.664 138.566V134.928C212.882 134.758 212.066 134.656 211.25 134.656C209.686 134.656 208.462 135.268 208.462 136.866C208.462 138.294 209.482 139.042 211.284 139.042ZM218.22 140.912C216.826 141.626 214.208 142.408 210.808 142.408C206.15 142.408 203.804 140.13 203.804 137.07C203.804 133.704 206.558 131.732 210.638 131.698C211.59 131.698 212.814 131.834 213.664 131.97V131.154C213.664 129.08 212.474 128.094 210.196 128.094C208.7 128.094 207.102 128.332 205.708 128.91L204.858 125.238C206.32 124.626 208.666 124.218 210.74 124.218C215.738 124.218 218.22 126.87 218.22 131.46V140.912Z" fill="white"/>
<path d="M189.796 142H185.104V117.588L189.796 117.35V124.898C190.714 124.456 191.802 124.218 193.298 124.218C197.684 124.218 200.608 126.666 200.608 131.188V142H195.916V131.562C195.916 129.216 194.726 128.128 192.55 128.128C191.598 128.128 190.578 128.4 189.796 128.774V142Z" fill="white"/>
<path d="M174.139 142.102C173.323 142.306 172.235 142.408 171.181 142.408C167.135 142.408 165.061 140.198 165.061 135.71V128.366H162.749V124.626H165.061V120.852L169.753 120.614V124.626H173.527V128.366H169.753V135.642C169.753 137.614 170.569 138.532 172.099 138.532C172.813 138.532 173.459 138.43 173.901 138.328L174.139 142.102Z" fill="white"/>
<path d="M156.463 117.52H160.951C160.917 120.988 158.911 124.456 157.245 126.598H154.729C155.851 123.504 156.395 120.342 156.463 117.52Z" fill="white"/>
<path d="M141.418 142H136.76V125.714C138.902 124.796 141.826 124.218 144.444 124.218C149.408 124.218 152.264 126.666 152.264 131.188V142H147.572V131.528C147.572 129.182 146.484 128.094 144.41 128.094C143.322 128.094 142.302 128.298 141.418 128.706V142Z" fill="white"/>
<path d="M132.903 125.204L132.393 129.012C130.829 128.536 129.299 128.094 127.667 128.094C126.239 128.094 125.287 128.502 125.287 129.488C125.287 130.508 126.069 130.814 128.109 131.392C132.053 132.48 133.889 133.806 133.889 136.934C133.889 140.606 130.897 142.408 126.749 142.408C124.573 142.408 122.159 141.966 120.595 141.286L121.241 137.444C122.737 138.022 124.641 138.532 126.647 138.532C128.211 138.532 129.299 137.988 129.299 137.036C129.299 135.914 128.449 135.608 125.661 134.826C122.533 134.01 120.663 132.548 120.663 129.59C120.663 126.122 123.145 124.218 127.293 124.218C129.231 124.218 131.441 124.626 132.903 125.204Z" fill="white"/>
<path d="M116.854 137.478L117.602 141.252C116.106 141.932 113.896 142.408 111.652 142.408C106.178 142.408 102.438 138.94 102.438 133.296C102.438 127.89 105.872 124.218 110.87 124.218C115.324 124.218 118.248 127.38 118.248 131.936C118.248 132.956 118.18 133.84 118.112 134.52H107.368C107.81 137.24 109.408 138.464 112.128 138.464C113.794 138.464 115.392 138.09 116.854 137.478ZM110.87 127.958C108.898 127.958 107.606 129.352 107.3 131.664H113.76V131.256C113.76 129.352 112.74 127.958 110.87 127.958Z" fill="white"/>
<path d="M99.8478 133.296C99.8478 138.77 96.6518 142.408 91.3818 142.408C86.1458 142.408 82.8818 138.77 82.8818 133.296C82.8818 127.856 86.1458 124.218 91.3818 124.218C96.6518 124.218 99.8478 127.856 99.8478 133.296ZM87.6758 133.296C87.6758 136.526 89.0018 138.532 91.3818 138.532C93.7958 138.532 95.0538 136.526 95.0538 133.296C95.0538 130.1 93.7958 128.094 91.3818 128.094C89.0018 128.094 87.6758 130.1 87.6758 133.296Z" fill="white"/>
<path d="M79.306 141.014C77.64 141.796 75.056 142.408 72.54 142.408C66.76 142.408 63.292 139.008 63.292 133.602C63.292 127.924 66.964 124.218 72.54 124.218C73.254 124.218 74.002 124.32 74.648 124.456V117.622L79.306 117.384V141.014ZM68.086 133.398C68.086 136.764 69.786 138.532 72.506 138.532C73.39 138.532 74.138 138.362 74.648 138.09V128.434C74.036 128.23 73.39 128.094 72.812 128.094C69.752 128.094 68.086 129.896 68.086 133.398Z" fill="white"/>
<path d="M295.646 157.52H300.134C300.1 160.988 298.094 164.456 296.428 166.598H293.912C295.034 163.504 295.578 160.342 295.646 157.52ZM302.548 157.52H307.036C307.002 160.988 304.996 164.456 303.33 166.598H300.814C301.97 163.504 302.514 160.342 302.548 157.52Z" fill="white"/>
<path d="M288.478 182.374C286.71 182.374 285.758 181.354 285.758 179.722C285.758 178.158 286.71 177.138 288.478 177.138C290.212 177.138 291.164 178.158 291.164 179.722C291.164 181.354 290.212 182.374 288.478 182.374Z" fill="white"/>
<path d="M281.808 181.014C280.142 181.796 277.558 182.408 275.042 182.408C269.262 182.408 265.794 179.008 265.794 173.602C265.794 167.924 269.466 164.218 275.042 164.218C275.756 164.218 276.504 164.32 277.15 164.456V157.622L281.808 157.384V181.014ZM270.588 173.398C270.588 176.764 272.288 178.532 275.008 178.532C275.892 178.532 276.64 178.362 277.15 178.09V168.434C276.538 168.23 275.892 168.094 275.314 168.094C272.254 168.094 270.588 169.896 270.588 173.398Z" fill="white"/>
<path d="M261.815 177.478L262.563 181.252C261.067 181.932 258.857 182.408 256.613 182.408C251.139 182.408 247.399 178.94 247.399 173.296C247.399 167.89 250.833 164.218 255.831 164.218C260.285 164.218 263.209 167.38 263.209 171.936C263.209 172.956 263.141 173.84 263.073 174.52H252.329C252.771 177.24 254.369 178.464 257.089 178.464C258.755 178.464 260.353 178.09 261.815 177.478ZM255.831 167.958C253.859 167.958 252.567 169.352 252.261 171.664H258.721V171.256C258.721 169.352 257.701 167.958 255.831 167.958Z" fill="white"/>
<path d="M245.688 182.102C244.872 182.306 243.784 182.408 242.73 182.408C238.684 182.408 236.61 180.198 236.61 175.71V168.366H234.298V164.626H236.61V160.852L241.302 160.614V164.626H245.076V168.366H241.302V175.642C241.302 177.614 242.118 178.532 243.648 178.532C244.362 178.532 245.008 178.43 245.45 178.328L245.688 182.102Z" fill="white"/>
<path d="M224.86 179.042C225.88 179.042 226.73 178.838 227.24 178.566V174.928C226.458 174.758 225.642 174.656 224.826 174.656C223.262 174.656 222.038 175.268 222.038 176.866C222.038 178.294 223.058 179.042 224.86 179.042ZM231.796 180.912C230.402 181.626 227.784 182.408 224.384 182.408C219.726 182.408 217.38 180.13 217.38 177.07C217.38 173.704 220.134 171.732 224.214 171.698C225.166 171.698 226.39 171.834 227.24 171.97V171.154C227.24 169.08 226.05 168.094 223.772 168.094C222.276 168.094 220.678 168.332 219.284 168.91L218.434 165.238C219.896 164.626 222.242 164.218 224.316 164.218C229.314 164.218 231.796 166.87 231.796 171.46V180.912Z" fill="white"/>
<path d="M210.082 164.218C212.02 164.218 213.958 164.66 215.216 165.238L214.332 168.944C213.04 168.4 211.646 168.094 210.49 168.094C207.736 168.094 206.24 170.032 206.24 173.228C206.24 176.73 207.804 178.532 210.728 178.532C211.85 178.532 213.21 178.226 214.502 177.648L215.25 181.422C214.094 182 212.326 182.408 210.354 182.408C204.71 182.408 201.446 178.906 201.446 173.364C201.446 167.856 204.676 164.218 210.082 164.218Z" fill="white"/>
<path d="M197.861 164.626V182H193.169V164.626H197.861ZM195.515 162.314C193.781 162.314 192.795 161.26 192.795 159.696C192.795 158.132 193.781 157.078 195.515 157.078C197.215 157.078 198.201 158.132 198.201 159.696C198.201 161.26 197.215 162.314 195.515 162.314Z" fill="white"/>
<path d="M187.198 157.35V175.71C187.198 177.546 187.674 178.532 189.034 178.532C189.374 178.532 189.714 178.498 190.02 178.43L190.36 182.136C189.714 182.272 188.66 182.408 187.98 182.408C184.07 182.408 182.506 179.858 182.506 175.778V157.622L187.198 157.35Z" fill="white"/>
<path d="M179.066 173.058C179.066 178.634 175.904 182.34 170.6 182.34C169.41 182.34 168.594 182.204 167.744 181.898V188.358H163.086V165.68C165.024 164.796 167.744 164.218 170.158 164.218C175.734 164.218 179.066 167.618 179.066 173.058ZM167.744 178.056C168.39 178.328 168.934 178.532 169.92 178.532C172.912 178.532 174.306 176.696 174.306 173.194C174.306 170.134 173.014 168.094 169.92 168.094C169.07 168.094 168.458 168.264 167.744 168.536V178.056Z" fill="white"/>
<path d="M158.769 182H154.111V171.528C154.111 169.25 153.193 168.094 151.051 168.094C149.895 168.094 148.739 168.434 147.889 168.91C148.161 169.828 148.297 170.916 148.297 172.106V182H143.741V171.528C143.741 169.25 142.857 168.094 140.681 168.094C139.729 168.094 138.811 168.298 137.927 168.706V182H133.269V165.714C135.445 164.762 138.267 164.218 140.919 164.218C142.891 164.218 144.523 164.694 145.713 165.612C147.141 164.898 149.181 164.218 151.255 164.218C156.083 164.218 158.769 166.734 158.769 171.188V182Z" fill="white"/>
<path d="M129.727 173.296C129.727 178.77 126.531 182.408 121.261 182.408C116.025 182.408 112.761 178.77 112.761 173.296C112.761 167.856 116.025 164.218 121.261 164.218C126.531 164.218 129.727 167.856 129.727 173.296ZM117.555 173.296C117.555 176.526 118.881 178.532 121.261 178.532C123.675 178.532 124.933 176.526 124.933 173.296C124.933 170.1 123.675 168.094 121.261 168.094C118.881 168.094 117.555 170.1 117.555 173.296Z" fill="white"/>
<path d="M105.758 164.218C107.696 164.218 109.634 164.66 110.892 165.238L110.008 168.944C108.716 168.4 107.322 168.094 106.166 168.094C103.412 168.094 101.916 170.032 101.916 173.228C101.916 176.73 103.48 178.532 106.404 178.532C107.526 178.532 108.886 178.226 110.178 177.648L110.926 181.422C109.77 182 108.002 182.408 106.03 182.408C100.386 182.408 97.122 178.906 97.122 173.364C97.122 167.856 100.352 164.218 105.758 164.218Z" fill="white"/>
</g>
<defs>
<clipPath id="clip0_41_5">
<rect width="406.835" height="267.786" fill="white"/>
</clipPath>
</defs>
</svg>
