<svg width="452" height="229" viewBox="0 0 452 229" fill="none" xmlns="http://www.w3.org/2000/svg">
<path d="M226.054 59.953V3.453C196.816 3.41596 167.86 9.15698 140.848 20.3461C113.836 31.5353 89.3013 47.9521 68.654 68.653L108.609 108.605C124.015 93.1587 142.322 80.9089 162.477 72.5596C182.632 64.2103 204.238 59.926 226.054 59.953Z" fill="#6E06C1" fill-opacity="0.15" stroke="#6406C1" stroke-width="5" stroke-linecap="round" stroke-linejoin="round"/>
<path d="M343.496 108.604L383.454 68.653C362.807 47.9512 338.272 31.5339 311.259 20.3447C284.247 9.15544 255.289 3.41492 226.051 3.45301V59.953C247.867 59.9256 269.473 64.2095 289.628 72.5587C309.784 80.9078 328.09 93.1576 343.496 108.604Z" fill="#6E06C1" fill-opacity="0.25" stroke="#6406C1" stroke-width="5" stroke-linecap="round" stroke-linejoin="round"/>
<path d="M392.146 226.055H448.646C448.683 196.817 442.943 167.86 431.753 140.849C420.564 113.837 404.147 89.3021 383.446 68.655L343.499 108.604C358.945 124.011 371.194 142.319 379.543 162.475C387.891 182.631 392.174 204.238 392.146 226.055Z" fill="#6E06C1" fill-opacity="0.35" stroke="#6406C1" stroke-width="5" stroke-linecap="round" stroke-linejoin="round"/>
<path d="M108.603 108.604L68.652 68.649C47.9498 89.2966 31.5323 113.832 20.3431 140.845C9.15382 167.858 3.41349 196.816 3.45197 226.055H59.952C59.923 204.238 64.2063 182.63 72.5555 162.474C80.9047 142.318 93.1553 124.01 108.603 108.604Z" fill="#6E06C1" fill-opacity="0.05" stroke="#6406C1" stroke-width="5" stroke-linecap="round" stroke-linejoin="round"/>
</svg>
