<svg width="123" height="145" viewBox="0 0 123 145" fill="none" xmlns="http://www.w3.org/2000/svg">
<path d="M31.9129 54.521L3.22095 3.302L44.5639 44.992L44.4769 45.057C55.8948 38.9356 69.2025 37.3496 81.7391 40.6164C94.2757 43.8831 105.117 51.7617 112.096 62.6768C119.074 73.5919 121.675 86.739 119.379 99.4891C117.083 112.239 110.058 123.653 99.71 131.447C89.3618 139.242 76.4528 142.843 63.5642 141.53C50.6756 140.218 38.7574 134.089 30.1927 124.368C21.6281 114.648 17.0482 102.053 17.369 89.1016C17.6898 76.1503 22.8876 63.7974 31.9229 54.513L31.9129 54.521Z" stroke="#170D67" stroke-width="5" stroke-linecap="round" stroke-linejoin="round"/>
</svg>
