<?xml version="1.0" encoding="UTF-8"?>
<svg id="Layer_2" data-name="Layer 2" xmlns="http://www.w3.org/2000/svg" xmlns:xlink="http://www.w3.org/1999/xlink" viewBox="0 0 619.17 240.18">
  <defs>
    <style>
      .cls-1 {
        fill: #170d67;
      }

      .cls-2 {
        fill: url(#New_Gradient_Swatch_1);
      }
    </style>
    <linearGradient id="New_Gradient_Swatch_1" data-name="New Gradient Swatch 1" x1="32.34" y1="102.64" x2="86.05" y2="9.6" gradientUnits="userSpaceOnUse">
      <stop offset=".17" stop-color="#6e06c1"/>
      <stop offset=".25" stop-color="#5e24bd"/>
      <stop offset=".46" stop-color="#3d67b4"/>
      <stop offset=".64" stop-color="#239dad"/>
      <stop offset=".8" stop-color="#0fc3a9"/>
      <stop offset=".92" stop-color="#04dba6"/>
      <stop offset="1" stop-color="#00e4a5"/>
    </linearGradient>
  </defs>
  <g id="Layer_1-2" data-name="Layer 1">
    <path class="cls-2" d="M107.29,65.03c-1.56-4.43-4.09-8.97-6.36-12.82-2.9-4.93-3.73-9.75-2.77-16.14,1.4-9.31-1.06-17.84-6.59-22.82-3.63-3.27-10.28-6.58-21.31-3.72-8.98,2.32-17.27-2.08-23.93-5.62-5.12-2.72-9.17-4.87-12.29-3.46-1.81.82-3.06,2.78-3.82,5.99-2,8.48-3.93,14.34-6.08,18.45-1.79,3.42-3.7,5.61-6.37,7.3-6.64,4.21-11.52,8.9-14.5,13.93C.64,50.61-.44,55.38.16,59.91c.53,3.97,2.34,7.72,5.22,10.82,2.8,3.02,6.47,5.28,10.61,6.56,3.28,1.01,5.9,2.78,8,5.4,2,2.5,3.55,5.81,4.73,10.11,1.05,3.84,2.73,7.06,4.99,9.6,2.25,2.53,4.96,4.23,8.05,5.05,1.38.37,2.8.55,4.26.55,2.23,0,4.55-.43,6.91-1.3,4.11-1.5,8.19-4.25,12.14-8.17,3.84-3.81,7.37-6.22,11.1-7.57,3.3-1.2,6.36-1.41,9.59-1.64,3.68-.26,7.49-.53,12-2.25,5.46-2.09,8.95-5.21,10.37-9.27,1.23-3.52.96-7.69-.82-12.77ZM99.46,64.76c-.67,7.27-4.13,13.24-10.27,17.75-2.7,1.97-5.33,3.27-8.01,4.4,1.85-1.41,3.59-2.97,5.2-4.7,3.79-4.07,6.67-8.76,8.56-13.95,1.83-5.01,2.66-10.26,2.47-15.61-.04-1.17-.14-2.33-.28-3.48.19.38.36.74.54,1.12,1.59,5.22,2.2,10.07,1.8,14.47ZM57.61,93.68c-.48.02-.96.03-1.44.03-10.04,0-19.56-3.74-26.94-10.62-7.74-7.21-12.2-16.99-12.58-27.56-.38-10.57,3.39-20.65,10.59-28.38,7.21-7.74,16.99-12.2,27.56-12.58.48-.02.96-.03,1.44-.03,10.04,0,19.56,3.74,26.94,10.62,7.74,7.21,12.2,16.99,12.58,27.56.38,10.57-3.39,20.65-10.59,28.38-7.21,7.74-16.99,12.2-27.56,12.58ZM84.3,23.96c-4.07-3.79-8.76-6.67-13.95-8.56-2.89-1.05-5.87-1.77-8.89-2.15,10.87-1.09,19.95,3.66,25.31,13.23-.79-.87-1.6-1.71-2.47-2.52ZM39.35,16.5c-5.04,2.25-9.51,5.46-13.3,9.53-.12.13-.23.27-.35.4.46-1.02.92-2.11,1.4-3.28.48-.92.97-1.85,1.49-2.83,3.87-7.18,10.5-6.92,18.89-6.59.15,0,.31.01.46.02-2.95.6-5.82,1.51-8.59,2.75ZM15.02,55.58c.19,5.35,1.39,10.53,3.57,15.39,1.29,2.88,2.9,5.58,4.8,8.07-5.15-3.89-8.68-9.21-10.01-15.18-1.36-6.11-.43-12.64,2.67-19.04-.81,3.51-1.17,7.11-1.04,10.76ZM42.07,92.84c4.54,1.66,9.28,2.49,14.11,2.49.5,0,1,0,1.49-.03,2.48-.09,4.92-.4,7.31-.92-4.05,2.34-8.3,3.57-12.47,3.57-.87,0-1.73-.05-2.58-.16-5.01-.61-9.46-2.97-12.87-6.8-.22-.25-.44-.49-.67-.73,1.82,1,3.71,1.86,5.68,2.58ZM91.38,31.94c-.77-1.51-1.56-3.08-2.33-4.64-2.7-5.47-6.64-9.8-11.39-12.5-2.79-1.58-5.81-2.59-9.03-3.06,5.55-.56,10.5.6,14.44,3.43,2.53,1.82,4.62,4.27,6.2,7.28,1.53,2.91,2.51,6.21,2.93,9.8.07.62.16,1.22.25,1.82-.36-.71-.72-1.42-1.07-2.13ZM47.54,12.11c-4.21-.17-8.18-.32-11.64.55-2.43.61-4.42,1.68-6.05,3.27.28-.77.55-1.55.84-2.37,1.39-3.98,3.42-5.37,6.44-5.37,2.28,0,5.12.8,8.67,1.87,2.54.77,5.36,1.63,8.38,2.17-2.25.04-4.46-.04-6.63-.12ZM16.27,41c-4.59,7.71-6.14,15.74-4.47,23.22.9,4.04,2.74,7.8,5.37,11.06-5.1-3.12-8.46-7.91-9.32-13.39-.81-5.2.29-13.38,9.7-23.15-.42.78-.84,1.54-1.27,2.26ZM35.84,92.08c3.68,4.13,8.48,6.67,13.89,7.33.92.11,1.85.17,2.79.17,3.25,0,6.53-.7,9.74-2.03-5.47,3.77-11.2,5.22-16.39,4.09-5.21-1.14-9.5-4.77-12.09-10.22-.62-1.31-1.41-2.63-2.33-3.93,1.44,1.38,2.9,2.91,4.4,4.6ZM85.22,86.84c1.63-.83,3.26-1.79,4.93-3.02,6.54-4.79,10.22-11.15,10.93-18.91.19-2.1.15-4.3-.09-6.57,1.23,3.7,1.88,7.02,1.92,9.98.04,3.29-.66,6.21-2.09,8.69-1.6,2.79-4.17,5.12-7.64,6.94-2.83,1.49-5.39,2.27-7.96,2.88ZM90.49,14.46c5.12,4.61,7.39,12.6,6.07,21.37-.33,2.18-.44,4.17-.36,6.07-.29-.66-.58-1.31-.89-1.96-.66-2.45-1.15-5.03-1.49-7.88-.44-3.79-1.49-7.28-3.11-10.37-1.7-3.24-3.95-5.88-6.69-7.84-2.6-1.87-5.6-3.06-8.88-3.58,7.68-.89,12.53,1.65,15.35,4.19ZM34.73,1.93c.45-.2.95-.29,1.49-.29,2.38,0,5.67,1.75,9.36,3.71,4.11,2.19,8.83,4.68,13.99,5.82-4.76-.08-9.23-1.43-13.3-2.67-3.89-1.18-7.24-2.2-10.14-1.9-2.01.21-3.6,1.03-4.86,2.52.19-.75.37-1.51.56-2.3.63-2.69,1.58-4.29,2.91-4.88ZM6.58,69.62c-2.65-2.86-4.31-6.29-4.8-9.93-.57-4.22.41-8.51,2.91-12.74,2.84-4.81,7.54-9.31,13.97-13.38.84-.54,1.62-1.13,2.35-1.79-.1.2-.19.39-.29.59-1.08,1.67-2.17,3.03-3.35,4.19-10.83,10.7-12.03,19.81-11.14,25.57.74,4.79,3.24,9.09,7.05,12.34-2.56-1.21-4.85-2.86-6.71-4.87ZM52.36,105.17c-3.59,1.31-7.02,1.55-10.19.7-2.77-.74-5.21-2.28-7.25-4.56-2.09-2.34-3.65-5.35-4.63-8.94-.76-2.77-1.69-5.17-2.8-7.25,1.91,2.11,3.61,4.48,4.81,7,2.81,5.92,7.5,9.86,13.22,11.11,1.27.28,2.57.42,3.89.42,3.47,0,7.05-.96,10.58-2.82-2.52,1.95-5.07,3.41-7.62,4.34ZM106.58,77.26c-1.28,3.64-4.36,6.35-9.42,8.29-2.86,1.09-5.44,1.57-7.91,1.84,1.51-.5,3.06-1.13,4.69-1.99,7.12-3.74,10.69-9.49,10.6-17.1-.03-2.72-.54-5.7-1.51-8.97,1.05,2.06,2,4.17,2.73,6.24,1.66,4.71,1.93,8.53.82,11.69Z"/>
    <path class="cls-1" d="M154.35,232.85h-10.62c-.77,2.29-1.51,4.6-2.18,6.92h-2.49c2.62-8.47,5.41-16.43,8.7-23.52h2.52c3.29,7.09,6.15,14.95,8.74,23.52h-2.49c-.67-2.32-1.41-4.64-2.18-6.92ZM144.44,230.74h9.21c-1.65-4.8-3.33-9.14-4.6-12-1.28,2.86-2.96,7.19-4.6,12ZM164.07,239.78v-23.52h2.35c4.1,7.33,8.13,13.3,13.07,20.13-.07-.87-.1-1.95-.1-3.19v-16.93h2.28v23.52h-2.35c-5.14-6.89-9.37-12.7-13.07-19.52.07,1.14.1,2.45.1,3.76v15.76h-2.29ZM212.39,239.78h-13.71v-23.52h13.71v2.12h-11.29v8.27h9.68v2.12h-9.68v8.91h11.29v2.12ZM225.64,229.16c-2.15,2.92-4.64,6.75-6.42,10.62h-2.55c1.88-4.27,4.77-8.47,7.83-12.33l-7.36-11.19h2.79l6.42,9.74c2.55-3.16,4.74-6.65,5.98-9.74h2.52c-1.58,3.9-4.2,7.73-7.39,11.42l7.93,12.1h-2.76l-6.99-10.62ZM254.09,239.78h-13.71v-23.52h13.71v2.12h-11.29v8.27h9.68v2.12h-9.68v8.91h11.29v2.12ZM259.62,216.25h2.42v21.4h11.16v2.12h-13.58v-23.52ZM286.34,240.18c-6.69,0-9.88-5.34-9.88-12.16s3.12-12.16,9.88-12.16,9.91,5.34,9.91,12.16-3.19,12.16-9.91,12.16ZM286.34,237.99c5.21,0,7.39-4.43,7.39-9.98s-2.18-9.98-7.39-9.98-7.36,4.44-7.36,9.98,2.18,9.98,7.36,9.98ZM302.45,239.78v-23.52h2.35c4.1,7.33,8.13,13.3,13.07,20.13-.07-.87-.1-1.95-.1-3.19v-16.93h2.28v23.52h-2.35c-5.14-6.89-9.38-12.7-13.07-19.52.07,1.14.1,2.45.1,3.76v15.76h-2.29ZM335.86,228.28c0-7.09,3.36-12.43,10.48-12.43,1.98,0,3.97.44,5.75,1.18l-.6,2.08c-1.58-.57-3.13-1.08-5.11-1.08-5.71,0-8,4.57-8,10.25s2.59,9.71,8.16,9.71c2.22,0,3.83-.6,5.21-1.21l.5,2.08c-1.38.7-3.49,1.31-5.78,1.31-6.96,0-10.62-4.74-10.62-11.89ZM365.58,240.18c-6.69,0-9.88-5.34-9.88-12.16s3.13-12.16,9.88-12.16,9.91,5.34,9.91,12.16-3.19,12.16-9.91,12.16ZM365.58,237.99c5.21,0,7.39-4.43,7.39-9.98s-2.19-9.98-7.39-9.98-7.36,4.44-7.36,9.98,2.18,9.98,7.36,9.98ZM405.04,216.25v23.52h-2.28v-15.66c0-1.34.07-2.55.1-3.59-2.15,4.97-4.84,10.01-8.43,15.66h-2.08c-3.6-5.65-6.32-10.75-8.5-15.69.1,1.04.13,2.28.13,3.63v15.66h-2.29v-23.52h2.52c2.42,5.91,5.48,11.56,9.21,17.54,3.7-5.98,6.72-11.62,9.11-17.54h2.52ZM412.36,216.25h5.71c5.68,0,9.34,2.28,9.34,7.53s-3.66,7.49-9.34,7.49h-3.29v8.5h-2.42v-23.52ZM418.04,218.37h-3.26v10.79h3.26c4.13,0,6.89-1.24,6.89-5.38s-2.76-5.41-6.89-5.41ZM444.86,232.85h-10.62c-.77,2.29-1.51,4.6-2.19,6.92h-2.49c2.62-8.47,5.41-16.43,8.7-23.52h2.52c3.29,7.09,6.15,14.95,8.74,23.52h-2.49c-.67-2.32-1.41-4.64-2.18-6.92ZM434.95,230.74h9.21c-1.65-4.8-3.33-9.14-4.6-12-1.28,2.86-2.96,7.19-4.6,12ZM454.58,239.78v-23.52h2.35c4.1,7.33,8.13,13.3,13.07,20.13-.07-.87-.1-1.95-.1-3.19v-16.93h2.28v23.52h-2.35c-5.14-6.89-9.37-12.7-13.07-19.52.07,1.14.1,2.45.1,3.76v15.76h-2.29ZM485.13,229.86c-3.56-4.74-6.08-8.77-8.06-13.61h2.55c1.68,4.1,3.63,7.33,6.75,11.59,3.09-4.23,5.01-7.49,6.69-11.59h2.55c-2.05,4.84-4.5,8.9-8.06,13.54v9.98h-2.42v-9.91ZM445.94,121.06c.71.27,1.7.57,2.81.57,1.35,0,2.14-.51,2.14-1.56,0-1.19-.9-1.54-2.38-2.03-1.74-.57-2.8-1.33-2.8-3.03,0-1.84,1.29-2.87,3.48-2.87.96,0,2,.23,2.66.5l-.32,1.3c-.71-.24-1.47-.42-2.25-.42-1.33,0-1.98.5-1.98,1.44,0,1.02.67,1.36,1.98,1.8,1.8.6,3.21,1.23,3.21,3.29s-1.62,2.95-3.67,2.95c-1.26,0-2.42-.25-3.17-.58l.3-1.36ZM465.08,112.33v10.5h-1.47v-6.08c0-.63.03-1.21.08-1.75-.86,1.95-1.94,3.95-3.33,6.12h-1.28c-1.41-2.17-2.49-4.18-3.37-6.13.06.53.09,1.12.09,1.77v6.08h-1.46v-10.5h1.62c1.02,2.5,2.22,4.77,3.76,7.23,1.53-2.46,2.7-4.73,3.72-7.23h1.63ZM159.31,88.78c-13.34,0-20.05-6.52-20.05-15.47,0-10.59,8.45-15.78,20.05-15.78,3.46,0,7.63.41,10.79,1.12v-4.28c0-7.13-3.87-10.99-11.91-10.99-4.78,0-9.67.92-13.64,2.55l-2.04-8.25c4.17-1.73,10.69-2.95,16.69-2.95,13.95,0,20.97,7.23,20.97,20.16v29.22c-4.28,2.44-11.3,4.68-20.87,4.68ZM170.1,78.9v-13.34c-2.85-.71-6.01-1.22-9.57-1.22-6.31,0-10.99,2.24-10.99,8.55,0,5.39,3.87,8.14,10.69,8.14,4.68,0,7.94-1.02,9.87-2.14ZM192.55,87.56v-43.26h-7.33v-8.35h7.33v-11.81l10.28-.51v12.32h12.73v8.35h-12.73v43.26h-10.28ZM222.62,87.56V14.46l10.28-.61v73.7h-10.28ZM261.67,88.78c-13.34,0-20.05-6.52-20.05-15.47,0-10.59,8.45-15.78,20.05-15.78,3.46,0,7.63.41,10.79,1.12v-4.28c0-7.13-3.87-10.99-11.91-10.99-4.78,0-9.67.92-13.64,2.55l-2.04-8.25c4.17-1.73,10.69-2.95,16.7-2.95,13.95,0,20.97,7.23,20.97,20.16v29.22c-4.28,2.44-11.3,4.68-20.87,4.68ZM272.46,78.9v-13.34c-2.85-.71-6.01-1.22-9.57-1.22-6.31,0-10.99,2.24-10.99,8.55,0,5.39,3.87,8.14,10.69,8.14,4.68,0,7.94-1.02,9.87-2.14ZM293.19,87.56v-48.05c6.31-2.95,14.35-4.79,22.19-4.79,14.25,0,21.78,7.23,21.78,19.65v33.19h-10.28v-32.47c0-7.43-3.77-11.71-11.5-11.71-4.28,0-8.45.92-11.91,2.65v41.53h-10.28ZM351.05,87.55v-43.26h-7.33v-8.35h7.33v-11.81l10.28-.51v12.32h12.72v8.35h-12.72v43.26h-10.28ZM380.69,20.67c0-3.56,2.34-6.11,6.41-6.11s6.31,2.54,6.31,6.11c0,3.77-2.34,6.31-6.31,6.31s-6.41-2.54-6.41-6.31ZM392.29,87.56h-10.28v-51.61h10.28v51.61ZM440.43,37.78l-2.04,8.25c-3.87-1.63-8.25-2.65-12.22-2.65-9.98,0-15.37,7.23-15.37,18.42,0,11.91,5.7,18.33,16.39,18.33,3.77,0,7.94-1.02,11.71-2.85l1.83,8.35c-3.56,1.83-8.75,3.15-14.25,3.15-16.69,0-26.16-10.08-26.16-26.77s9.16-27.28,25.14-27.28c5.8,0,11.2,1.32,14.96,3.06ZM510.63,37.78l-2.04,8.25c-3.87-1.63-8.25-2.65-12.22-2.65-9.98,0-15.37,7.23-15.37,18.42,0,11.91,5.7,18.33,16.39,18.33,3.77,0,7.94-1.02,11.71-2.85l1.83,8.35c-3.56,1.83-8.75,3.15-14.25,3.15-16.69,0-26.16-10.08-26.16-26.77s9.16-27.28,25.14-27.28c5.8,0,11.2,1.32,14.96,3.06ZM517.12,20.67c0-3.56,2.34-6.11,6.41-6.11s6.31,2.54,6.31,6.11c0,3.77-2.34,6.31-6.31,6.31s-6.41-2.54-6.41-6.31ZM528.72,87.56h-10.28v-51.61h10.28v51.61ZM543.59,87.56v-43.26h-7.33v-8.35h7.33v-11.81l10.28-.51v12.32h12.73v8.35h-12.73v43.26h-10.28ZM576.01,106.39l-1.73-8.85c6.62-1.32,13.44-5.5,17.41-12.12-10.89-15.47-16.8-29.93-18.93-49.47h10.38c1.63,17.41,6.92,29.72,13.95,41.53,6.41-12.83,10.28-24.13,11.81-41.53h10.28c-2.04,18.42-8.25,34.2-16.39,48.76-7.74,13.54-16.69,19.65-26.77,21.68ZM184.15,173.44c-4.78,2.24-10.89,3.56-17.51,3.56-16.19,0-26.88-9.88-26.88-27.08,0-15.88,9.47-26.98,24.33-26.98,13.44,0,21.38,9.67,21.38,22.6,0,2.65-.2,4.89-.41,6.82h-34.71c1.02,10.89,7.23,15.88,17.2,15.88,5.09,0,10.28-1.22,14.86-3.15l1.73,8.35ZM150.45,145.75h24.94c.1-.61.1-1.02.1-1.63,0-6.82-3.56-12.72-11.4-12.72s-12.72,5.6-13.64,14.35ZM194.04,175.78v-73.09l10.28-.61v73.7h-10.28ZM256.62,173.44c-4.78,2.24-10.89,3.56-17.51,3.56-16.19,0-26.88-9.88-26.88-27.08,0-15.88,9.47-26.98,24.33-26.98,13.44,0,21.38,9.67,21.38,22.6,0,2.65-.2,4.89-.41,6.82h-34.71c1.02,10.89,7.23,15.88,17.2,15.88,5.09,0,10.28-1.22,14.86-3.15l1.73,8.35ZM222.92,145.75h24.94c.1-.61.1-1.02.1-1.63,0-6.82-3.56-12.72-11.4-12.72s-12.72,5.6-13.64,14.35ZM304.04,126l-2.04,8.25c-3.87-1.63-8.25-2.65-12.22-2.65-9.98,0-15.37,7.23-15.37,18.43,0,11.91,5.7,18.32,16.39,18.32,3.77,0,7.94-1.02,11.71-2.85l1.83,8.35c-3.56,1.83-8.75,3.16-14.25,3.16-16.69,0-26.16-10.08-26.16-26.78s9.16-27.28,25.14-27.28c5.8,0,11.2,1.32,14.96,3.05ZM316.54,175.78v-43.26h-7.33v-8.35h7.33v-11.81l10.28-.51v12.32h12.73v8.35h-12.73v43.26h-10.28ZM367.83,122.95c2.85,0,5.4.3,7.23.71l-1.42,8.65c-1.53-.51-3.46-.71-5.09-.71-5.09,0-8.96,1.12-11.81,2.65v41.53h-10.28v-47.95c5.29-2.95,13.54-4.89,21.38-4.89ZM380.69,108.9c0-3.56,2.34-6.11,6.41-6.11s6.31,2.55,6.31,6.11c0,3.76-2.34,6.31-6.31,6.31s-6.41-2.55-6.41-6.31ZM392.29,175.78h-10.28v-51.61h10.28v51.61ZM440.43,126l-2.04,8.25c-3.87-1.63-8.25-2.65-12.22-2.65-9.98,0-15.37,7.23-15.37,18.43,0,11.91,5.7,18.32,16.39,18.32,3.77,0,7.94-1.02,11.71-2.85l1.83,8.35c-3.56,1.83-8.75,3.16-14.25,3.16-16.7,0-26.16-10.08-26.16-26.78s9.16-27.28,25.14-27.28c5.8,0,11.2,1.32,14.96,3.05Z"/>
  </g>
</svg>