<svg width="407" height="268" viewBox="0 0 407 268" fill="none" xmlns="http://www.w3.org/2000/svg">
<g clip-path="url(#clip0_18_54)">
<path d="M203.417 0C91.073 0 0 55.479 0 123.916C0 150.647 13.9 175.401 37.523 195.645L10.229 267.786L95.72 229.049C126.955 240.949 163.864 247.834 203.42 247.834C315.765 247.834 406.837 192.354 406.837 123.916C406.837 55.478 315.762 0 203.417 0Z" fill="#6E06C1"/>
<path d="M351.682 102.186C348.977 106.919 345.789 109.045 342.408 109.592L341.7 105.825C343.6 105.535 345.886 104.311 346.884 102.637C343.374 97.839 341.571 93.4275 341.088 87.1484H345.564C345.789 92.6547 347.367 96.1968 349.202 99.2558C350.845 95.7459 351.682 92.6547 351.939 87.1484H356.351C355.932 92.9123 354.032 98.0322 351.682 102.186Z" fill="white"/>
<path d="M339.117 95.3597C339.117 100.544 336.091 103.989 331.099 103.989C326.141 103.989 323.049 100.544 323.049 95.3597C323.049 90.2076 326.141 86.7622 331.099 86.7622C336.091 86.7622 339.117 90.2076 339.117 95.3597ZM327.59 95.3597C327.59 98.4188 328.845 100.319 331.099 100.319C333.386 100.319 334.577 98.4188 334.577 95.3597C334.577 92.3329 333.386 90.4331 331.099 90.4331C328.845 90.4331 327.59 92.3329 327.59 95.3597Z" fill="white"/>
<path d="M319.653 102.572C319.653 106.05 318.14 108.24 314.373 109.496L313.085 105.857C314.501 105.116 315.21 104.344 315.21 102.347V87.1485H319.653V102.572ZM319.975 82.4794C319.975 83.9607 319.042 84.9589 317.432 84.9589C315.789 84.9589 314.856 83.9607 314.856 82.4794C314.856 80.9982 315.789 80 317.432 80C319.042 80 319.975 80.9982 319.975 82.4794Z" fill="white"/>
<path d="M300.847 103.603H296.436V88.179C298.465 87.3096 301.234 86.7622 303.713 86.7622C308.414 86.7622 311.119 89.0806 311.119 93.3633V103.603H306.676V93.6853C306.676 91.4635 305.645 90.4331 303.681 90.4331C302.651 90.4331 301.685 90.6263 300.847 91.0127V103.603Z" fill="white"/>
<path d="M291.766 99.3204L292.475 102.895C291.058 103.539 288.965 103.989 286.84 103.989C281.656 103.989 278.113 100.705 278.113 95.3597C278.113 90.2398 281.366 86.7622 286.099 86.7622C290.317 86.7622 293.087 89.7568 293.087 94.0717C293.087 95.0377 293.022 95.8749 292.958 96.5189H282.783C283.201 99.095 284.715 100.254 287.291 100.254C288.868 100.254 290.382 99.9 291.766 99.3204ZM286.099 90.3043C284.232 90.3043 283.008 91.6245 282.718 93.8141H288.836V93.4277C288.836 91.6245 287.87 90.3043 286.099 90.3043Z" fill="white"/>
<path d="M268.019 95.3597C268.019 100.544 264.992 103.989 260.001 103.989C255.042 103.989 251.951 100.544 251.951 95.3597C251.951 90.2076 255.042 86.7622 260.001 86.7622C264.992 86.7622 268.019 90.2076 268.019 95.3597ZM256.491 95.3597C256.491 98.4188 257.747 100.319 260.001 100.319C262.287 100.319 263.478 98.4188 263.478 95.3597C263.478 92.3329 262.287 90.4331 260.001 90.4331C257.747 90.4331 256.491 92.3329 256.491 95.3597Z" fill="white"/>
<path d="M250.33 103.699C249.557 103.892 248.527 103.989 247.529 103.989C243.697 103.989 241.733 101.896 241.733 97.6456V90.6903H239.543V87.1483H241.733V83.574L246.176 83.3486V87.1483H249.75V90.6903H246.176V97.5812C246.176 99.4488 246.949 100.318 248.398 100.318C249.074 100.318 249.686 100.222 250.105 100.125L250.33 103.699Z" fill="white"/>
<path d="M229.923 87.696L229.44 91.3025C227.959 90.8517 226.51 90.4331 224.965 90.4331C223.612 90.4331 222.711 90.8195 222.711 91.7533C222.711 92.7193 223.451 93.0091 225.383 93.5565C229.118 94.5869 230.857 95.8427 230.857 98.8052C230.857 102.283 228.024 103.989 224.095 103.989C222.034 103.989 219.748 103.571 218.267 102.927L218.879 99.2882C220.296 99.8356 222.099 100.319 223.999 100.319C225.48 100.319 226.51 99.8034 226.51 98.9018C226.51 97.8391 225.705 97.5493 223.065 96.8087C220.102 96.0359 218.331 94.6513 218.331 91.8499C218.331 88.5654 220.682 86.7622 224.61 86.7622C226.446 86.7622 228.539 87.1486 229.923 87.696Z" fill="white"/>
<path d="M215.097 87.1485V103.603H210.653V87.1485H215.097ZM212.875 84.9589C211.232 84.9589 210.299 83.9607 210.299 82.4794C210.299 80.9982 211.232 80 212.875 80C214.485 80 215.419 80.9982 215.419 82.4794C215.419 83.9607 214.485 84.9589 212.875 84.9589Z" fill="white"/>
<path d="M200.268 103.699C199.496 103.892 198.465 103.989 197.467 103.989C193.635 103.989 191.671 101.896 191.671 97.6456V90.6903H189.481V87.1483H191.671V83.574L196.115 83.3486V87.1483H199.689V90.6903H196.115V97.5812C196.115 99.4488 196.887 100.318 198.336 100.318C199.013 100.318 199.624 100.222 200.043 100.125L200.268 103.699Z" fill="white"/>
<path d="M176.826 103.603H172.414V88.179C174.443 87.3096 177.212 86.7622 179.691 86.7622C184.393 86.7622 187.098 89.0806 187.098 93.3633V103.603H182.654V93.6853C182.654 91.4635 181.623 90.4331 179.659 90.4331C178.629 90.4331 177.663 90.6263 176.826 91.0127V103.603Z" fill="white"/>
<path d="M161.801 100.802C162.767 100.802 163.572 100.608 164.055 100.351V96.9053C163.314 96.7443 162.541 96.6477 161.769 96.6477C160.287 96.6477 159.128 97.2273 159.128 98.7408C159.128 100.093 160.094 100.802 161.801 100.802ZM168.37 102.573C167.049 103.249 164.57 103.989 161.35 103.989C156.939 103.989 154.717 101.832 154.717 98.934C154.717 95.7461 157.325 93.8785 161.189 93.8463C162.091 93.8463 163.25 93.9751 164.055 94.1039V93.3311C164.055 91.3669 162.928 90.4331 160.77 90.4331C159.354 90.4331 157.84 90.6585 156.52 91.2059L155.715 87.7282C157.1 87.1486 159.321 86.7622 161.286 86.7622C166.019 86.7622 168.37 89.2738 168.37 93.6209V102.573Z" fill="white"/>
<path d="M142.459 87.1484C142.813 92.6547 143.844 96.5188 145.357 100.157C147.128 96.5188 148.191 92.6547 148.416 87.1484H152.828C152.216 93.6207 151.024 97.7746 147.772 103.603H143.329C142.169 101.349 141.236 99.3524 140.495 97.3882C139.851 99.4168 138.982 101.574 137.887 103.603H133.604C130.03 97.7746 129.064 93.6207 128.549 87.1484H132.928C133.25 92.6547 134.312 96.5188 135.987 100.157C137.436 97.3882 138.402 93.6851 138.724 90.7549C138.563 89.6279 138.434 88.4365 138.338 87.1484H142.459Z" fill="white"/>
<path d="M113.143 103.603V81.0625H117.748V103.603H113.143Z" fill="white"/>
<path d="M99.6869 80.2576V97.6458C99.6869 99.3846 100.138 100.318 101.426 100.318C101.748 100.318 102.07 100.286 102.36 100.222L102.682 103.732C102.07 103.86 101.072 103.989 100.428 103.989C96.7245 103.989 95.2433 101.574 95.2433 97.7102V80.5152L99.6869 80.2576Z" fill="white"/>
<path d="M90.0646 80.2576V97.6458C90.0646 99.3846 90.5154 100.318 91.8034 100.318C92.1254 100.318 92.4474 100.286 92.7372 100.222L93.0592 103.732C92.4474 103.86 91.4492 103.989 90.8052 103.989C87.1021 103.989 85.6209 101.574 85.6209 97.7102V80.5152L90.0646 80.2576Z" fill="white"/>
<path d="M73.2471 85.957C72.3777 87.8568 71.3151 91.0768 70.2203 94.7155H76.2418C75.1469 91.0768 74.1165 87.8568 73.2471 85.957ZM78.7534 103.603C78.3026 101.961 77.8518 100.286 77.401 98.6439H69.0933C68.6103 100.286 68.1595 101.961 67.7408 103.603H63.0074C65.0682 96.0679 67.9662 87.1484 70.8321 81.0625H75.6299C78.4958 87.1484 81.426 96.0357 83.4868 103.603H78.7534Z" fill="white"/>
<path d="M59.9159 89.016H55.6655C55.6977 85.7315 57.5975 82.4471 59.1753 80.4185H61.5581C60.4955 83.3487 59.9481 86.3433 59.9159 89.016ZM53.3792 89.016H49.1288C49.161 85.7315 51.0286 82.4471 52.6064 80.4185H55.0215C53.9266 83.3487 53.4114 86.3433 53.3792 89.016Z" fill="white"/>
<path d="M351.902 140.827C349.197 145.56 346.009 147.685 342.628 148.233L341.92 144.465C343.82 144.175 346.106 142.952 347.104 141.277C343.594 136.48 341.791 132.068 341.308 125.789H345.784C346.009 131.295 347.587 134.837 349.422 137.896C351.065 134.387 351.902 131.295 352.16 125.789H356.571C356.152 131.553 354.253 136.673 351.902 140.827Z" fill="white"/>
<path d="M338.888 142.243H334.476V132.326C334.476 130.168 333.607 129.073 331.578 129.073C330.483 129.073 329.388 129.395 328.583 129.846C328.841 130.716 328.97 131.746 328.97 132.873V142.243H324.655V132.326C324.655 130.168 323.818 129.073 321.757 129.073C320.855 129.073 319.986 129.267 319.149 129.653V142.243H314.737V126.819C316.798 125.918 319.471 125.403 321.982 125.403C323.85 125.403 325.396 125.853 326.523 126.723C327.875 126.047 329.807 125.403 331.771 125.403C336.344 125.403 338.888 127.785 338.888 132.004V142.243Z" fill="white"/>
<path d="M304.385 142.34C303.612 142.533 302.582 142.63 301.584 142.63C297.752 142.63 295.788 140.537 295.788 136.286V129.331H293.598V125.789H295.788V122.215L300.231 121.989V125.789H303.806V129.331H300.231V136.222C300.231 138.089 301.004 138.959 302.453 138.959C303.129 138.959 303.741 138.862 304.16 138.766L304.385 142.34Z" fill="white"/>
<path d="M291.051 141.213C289.795 141.728 286.768 142.63 283.709 142.63C278.267 142.63 276.464 139.861 276.464 135.739V125.789H280.876V135.739C280.876 137.768 281.777 138.959 283.806 138.959C284.868 138.959 285.802 138.766 286.607 138.379V125.789H291.051V141.213Z" fill="white"/>
<path d="M273.27 134C273.27 139.184 270.243 142.63 265.252 142.63C260.293 142.63 257.202 139.184 257.202 134C257.202 128.848 260.293 125.403 265.252 125.403C270.243 125.403 273.27 128.848 273.27 134ZM261.742 134C261.742 137.059 262.998 138.959 265.252 138.959C267.538 138.959 268.73 137.059 268.73 134C268.73 130.973 267.538 129.073 265.252 129.073C262.998 129.073 261.742 130.973 261.742 134Z" fill="white"/>
<path d="M243.775 142.243H239.331V119.123L243.775 118.898V126.046C244.644 125.628 245.675 125.402 247.092 125.402C251.245 125.402 254.015 127.721 254.015 132.004V142.243H249.571V132.358C249.571 130.136 248.444 129.105 246.383 129.105C245.482 129.105 244.516 129.363 243.775 129.717V142.243Z" fill="white"/>
<path d="M236.588 142.34C235.815 142.533 234.785 142.63 233.787 142.63C229.955 142.63 227.991 140.537 227.991 136.286V129.331H225.801V125.789H227.991V122.215L232.434 121.989V125.789H236.009V129.331H232.434V136.222C232.434 138.089 233.207 138.959 234.656 138.959C235.332 138.959 235.944 138.862 236.363 138.766L236.588 142.34Z" fill="white"/>
<path d="M223.178 125.789V142.243H218.734V125.789H223.178ZM220.956 123.599C219.314 123.599 218.38 122.601 218.38 121.12C218.38 119.639 219.314 118.64 220.956 118.64C222.566 118.64 223.5 119.639 223.5 121.12C223.5 122.601 222.566 123.599 220.956 123.599Z" fill="white"/>
<path d="M205.382 125.789C205.736 131.295 206.767 135.159 208.28 138.798C210.051 135.159 211.114 131.295 211.339 125.789H215.751C215.139 132.261 213.947 136.415 210.695 142.243H206.251C205.092 139.989 204.158 137.993 203.418 136.029C202.774 138.057 201.904 140.215 200.81 142.243H196.527C192.953 136.415 191.987 132.261 191.471 125.789H195.851C196.173 131.295 197.235 135.159 198.91 138.798C200.359 136.029 201.325 132.326 201.647 129.396C201.486 128.268 201.357 127.077 201.26 125.789H205.382Z" fill="white"/>
<path d="M180.449 137.961L181.157 141.535C179.74 142.179 177.647 142.63 175.522 142.63C170.338 142.63 166.796 139.345 166.796 134C166.796 128.88 170.048 125.403 174.781 125.403C179 125.403 181.769 128.397 181.769 132.712C181.769 133.678 181.704 134.515 181.64 135.159H171.465C171.883 137.735 173.397 138.895 175.973 138.895C177.551 138.895 179.064 138.54 180.449 137.961ZM174.781 128.945C172.914 128.945 171.69 130.265 171.4 132.454H177.518V132.068C177.518 130.265 176.552 128.945 174.781 128.945Z" fill="white"/>
<path d="M163.609 142.243H159.198V132.326C159.198 130.168 158.328 129.073 156.3 129.073C155.205 129.073 154.11 129.395 153.305 129.846C153.563 130.716 153.692 131.746 153.692 132.873V142.243H149.377V132.326C149.377 130.168 148.539 129.073 146.479 129.073C145.577 129.073 144.708 129.267 143.87 129.653V142.243H139.459V126.819C141.52 125.918 144.192 125.403 146.704 125.403C148.572 125.403 150.117 125.853 151.244 126.723C152.597 126.047 154.529 125.403 156.493 125.403C161.065 125.403 163.609 127.785 163.609 132.004V142.243Z" fill="white"/>
<path d="M136.104 134C136.104 139.184 133.077 142.63 128.086 142.63C123.127 142.63 120.036 139.184 120.036 134C120.036 128.848 123.127 125.403 128.086 125.403C133.077 125.403 136.104 128.848 136.104 134ZM124.576 134C124.576 137.059 125.832 138.959 128.086 138.959C130.372 138.959 131.564 137.059 131.564 134C131.564 130.973 130.372 129.073 128.086 129.073C125.832 129.073 124.576 130.973 124.576 134Z" fill="white"/>
<path d="M106.609 142.243H102.165V119.123L106.609 118.898V126.046C107.478 125.628 108.509 125.402 109.925 125.402C114.079 125.402 116.848 127.721 116.848 132.004V142.243H112.405V132.358C112.405 130.136 111.278 129.105 109.217 129.105C108.315 129.105 107.349 129.363 106.609 129.717V142.243Z" fill="white"/>
<path d="M87.0662 140.827C84.3613 145.56 81.1735 147.685 77.7924 148.233L77.084 144.465C78.9839 144.175 81.2701 142.952 82.2683 141.277C78.7585 136.48 76.9552 132.068 76.4722 125.789H80.9481C81.1735 131.295 82.7513 134.837 84.5867 137.896C86.229 134.387 87.0662 131.295 87.3238 125.789H91.7352C91.3166 131.553 89.4168 136.673 87.0662 140.827Z" fill="white"/>
<path d="M74.0519 142.243H69.6405V132.326C69.6405 130.168 68.7711 129.073 66.7424 129.073C65.6476 129.073 64.5528 129.395 63.7478 129.846C64.0054 130.716 64.1342 131.746 64.1342 132.873V142.243H59.8193V132.326C59.8193 130.168 58.9821 129.073 56.9213 129.073C56.0197 129.073 55.1503 129.267 54.3131 129.653V142.243H49.9016V126.819C51.9624 125.918 54.6351 125.403 57.1467 125.403C59.0143 125.403 60.5599 125.853 61.687 126.723C63.0394 126.047 64.9714 125.403 66.9356 125.403C71.5081 125.403 74.0519 127.785 74.0519 132.004V142.243Z" fill="white"/>
<path d="M328.461 157.699H332.711C332.679 160.984 330.779 164.268 329.201 166.297H326.818C327.881 163.367 328.396 160.372 328.461 157.699ZM334.997 157.699H339.248C339.215 160.984 337.316 164.268 335.738 166.297H333.355C334.45 163.367 334.965 160.372 334.997 157.699Z" fill="white"/>
<path d="M321.672 181.238C319.997 181.238 319.096 180.272 319.096 178.727C319.096 177.245 319.997 176.279 321.672 176.279C323.314 176.279 324.215 177.245 324.215 178.727C324.215 180.272 323.314 181.238 321.672 181.238Z" fill="white"/>
<path d="M314.073 179.467C311.368 184.2 308.18 186.326 304.799 186.873L304.091 183.106C305.99 182.816 308.277 181.592 309.275 179.918C305.765 175.12 303.962 170.709 303.479 164.429H307.955C308.18 169.936 309.758 173.478 311.593 176.537C313.236 173.027 314.073 169.936 314.33 164.429H318.742C318.323 170.193 316.423 175.313 314.073 179.467Z" fill="white"/>
<path d="M294.533 178.082C295.499 178.082 296.304 177.889 296.787 177.632V174.186C296.047 174.025 295.274 173.928 294.501 173.928C293.02 173.928 291.86 174.508 291.86 176.022C291.86 177.374 292.827 178.082 294.533 178.082ZM301.102 179.853C299.782 180.53 297.302 181.27 294.082 181.27C289.671 181.27 287.449 179.113 287.449 176.215C287.449 173.027 290.057 171.159 293.921 171.127C294.823 171.127 295.982 171.256 296.787 171.385V170.612C296.787 168.648 295.66 167.714 293.503 167.714C292.086 167.714 290.572 167.939 289.252 168.487L288.447 165.009C289.832 164.429 292.054 164.043 294.018 164.043C298.751 164.043 301.102 166.555 301.102 170.902V179.853Z" fill="white"/>
<path d="M275.191 164.429C275.546 169.936 276.576 173.8 278.09 177.438C279.861 173.8 280.923 169.936 281.149 164.429H285.56C284.948 170.902 283.757 175.056 280.505 180.884H276.061C274.902 178.63 273.968 176.633 273.227 174.669C272.583 176.698 271.714 178.855 270.619 180.884H266.336C262.762 175.056 261.796 170.902 261.281 164.429H265.66C265.982 169.936 267.045 173.8 268.719 177.438C270.168 174.669 271.134 170.966 271.456 168.036C271.295 166.909 271.166 165.717 271.07 164.429H275.191Z" fill="white"/>
<path d="M252.27 178.082C253.236 178.082 254.041 177.889 254.524 177.632V174.186C253.784 174.025 253.011 173.928 252.238 173.928C250.757 173.928 249.597 174.508 249.597 176.022C249.597 177.374 250.564 178.082 252.27 178.082ZM258.839 179.853C257.519 180.53 255.039 181.27 251.819 181.27C247.408 181.27 245.186 179.113 245.186 176.215C245.186 173.027 247.794 171.159 251.658 171.127C252.56 171.127 253.719 171.256 254.524 171.385V170.612C254.524 168.648 253.397 167.714 251.24 167.714C249.823 167.714 248.309 167.939 246.989 168.487L246.184 165.009C247.569 164.429 249.791 164.043 251.755 164.043C256.488 164.043 258.839 166.555 258.839 170.902V179.853Z" fill="white"/>
<path d="M234.35 179.853C234.35 184.394 231.226 187.002 226.203 187.002C223.756 187.002 222.307 186.712 220.568 186.004L221.502 182.494C222.854 183.041 224.336 183.299 225.946 183.299C228.425 183.299 229.938 182.268 229.938 180.304V179.564C228.94 179.95 227.91 180.143 226.912 180.143C222.146 180.143 219.216 177.342 219.216 172.479C219.216 167.295 222.725 164.043 227.91 164.043C230.454 164.043 232.901 164.687 234.35 165.331V179.853ZM223.756 172.093C223.756 174.766 225.141 176.44 227.62 176.44C228.522 176.44 229.262 176.215 229.938 175.893V168.068C229.327 167.875 228.618 167.714 227.91 167.714C225.269 167.714 223.756 169.453 223.756 172.093Z" fill="white"/>
<path d="M205.787 180.884H201.376V165.46C203.404 164.59 206.173 164.043 208.653 164.043C213.354 164.043 216.059 166.361 216.059 170.644V180.884H211.615V170.966C211.615 168.744 210.585 167.714 208.621 167.714C207.59 167.714 206.624 167.907 205.787 168.293V180.884Z" fill="white"/>
<path d="M197.078 164.429V180.884H192.634V164.429H197.078ZM194.856 162.24C193.214 162.24 192.28 161.242 192.28 159.76C192.28 158.279 193.214 157.281 194.856 157.281C196.466 157.281 197.4 158.279 197.4 159.76C197.4 161.242 196.466 162.24 194.856 162.24Z" fill="white"/>
<path d="M180.433 165.46C182.172 164.59 184.877 164.043 187.196 164.043C188.355 164.043 189.45 164.172 190.094 164.333L189.45 167.971C188.902 167.778 188.226 167.714 187.55 167.714C186.358 167.714 185.553 167.939 184.877 168.261V180.884H180.433V165.46Z" fill="white"/>
<path d="M169.788 178.082C170.754 178.082 171.559 177.889 172.042 177.632V174.186C171.301 174.025 170.529 173.928 169.756 173.928C168.275 173.928 167.115 174.508 167.115 176.022C167.115 177.374 168.081 178.082 169.788 178.082ZM176.357 179.853C175.037 180.53 172.557 181.27 169.337 181.27C164.926 181.27 162.704 179.113 162.704 176.215C162.704 173.027 165.312 171.159 169.176 171.127C170.078 171.127 171.237 171.256 172.042 171.385V170.612C172.042 168.648 170.915 167.714 168.758 167.714C167.341 167.714 165.827 167.939 164.507 168.487L163.702 165.009C165.087 164.429 167.309 164.043 169.273 164.043C174.006 164.043 176.357 166.555 176.357 170.902V179.853Z" fill="white"/>
<path d="M160.411 172.64C160.411 177.825 157.385 181.27 152.393 181.27C147.435 181.27 144.343 177.825 144.343 172.64C144.343 167.488 147.435 164.043 152.393 164.043C157.385 164.043 160.411 167.488 160.411 172.64ZM148.884 172.64C148.884 175.7 150.139 177.599 152.393 177.599C154.68 177.599 155.871 175.7 155.871 172.64C155.871 169.614 154.68 167.714 152.393 167.714C150.139 167.714 148.884 169.614 148.884 172.64Z" fill="white"/>
<path d="M141.593 164.977L141.11 168.583C139.628 168.132 138.179 167.714 136.634 167.714C135.281 167.714 134.38 168.1 134.38 169.034C134.38 170 135.12 170.29 137.052 170.837C140.788 171.868 142.526 173.123 142.526 176.086C142.526 179.564 139.693 181.27 135.764 181.27C133.703 181.27 131.417 180.852 129.936 180.208L130.548 176.569C131.965 177.116 133.768 177.599 135.668 177.599C137.149 177.599 138.179 177.084 138.179 176.183C138.179 175.12 137.374 174.83 134.734 174.089C131.771 173.317 130 171.932 130 169.131C130 165.846 132.351 164.043 136.279 164.043C138.115 164.043 140.208 164.429 141.593 164.977Z" fill="white"/>
<path d="M119.769 164.977L119.286 168.583C117.805 168.132 116.356 167.714 114.81 167.714C113.458 167.714 112.556 168.1 112.556 169.034C112.556 170 113.297 170.29 115.229 170.837C118.964 171.868 120.703 173.123 120.703 176.086C120.703 179.564 117.869 181.27 113.941 181.27C111.88 181.27 109.594 180.852 108.113 180.208L108.724 176.569C110.141 177.116 111.945 177.599 113.844 177.599C115.326 177.599 116.356 177.084 116.356 176.183C116.356 175.12 115.551 174.83 112.911 174.089C109.948 173.317 108.177 171.932 108.177 169.131C108.177 165.846 110.528 164.043 114.456 164.043C116.292 164.043 118.385 164.429 119.769 164.977Z" fill="white"/>
<path d="M106.529 180.98C105.756 181.174 104.726 181.27 103.727 181.27C99.8955 181.27 97.9313 179.177 97.9313 174.927V167.971H95.7416V164.429H97.9313V160.855L102.375 160.63V164.429H105.949V167.971H102.375V174.862C102.375 176.73 103.148 177.599 104.597 177.599C105.273 177.599 105.885 177.503 106.303 177.406L106.529 180.98Z" fill="white"/>
<path d="M93.7636 164.977L93.2806 168.583C91.7994 168.132 90.3504 167.714 88.8047 167.714C87.4523 167.714 86.5507 168.1 86.5507 169.034C86.5507 170 87.2913 170.29 89.2233 170.837C92.9586 171.868 94.6974 173.123 94.6974 176.086C94.6974 179.564 91.8638 181.27 87.9353 181.27C85.8745 181.27 83.5883 180.852 82.1071 180.208L82.7189 176.569C84.1357 177.116 85.9389 177.599 87.8387 177.599C89.3199 177.599 90.3504 177.084 90.3504 176.183C90.3504 175.12 89.5454 174.83 86.9049 174.089C83.9425 173.317 82.1715 171.932 82.1715 169.131C82.1715 165.846 84.5221 164.043 88.4505 164.043C90.286 164.043 92.379 164.429 93.7636 164.977Z" fill="white"/>
<path d="M79.8789 172.64C79.8789 177.825 76.8521 181.27 71.861 181.27C66.9022 181.27 63.8109 177.825 63.8109 172.64C63.8109 167.488 66.9022 164.043 71.861 164.043C76.8521 164.043 79.8789 167.488 79.8789 172.64ZM68.3512 172.64C68.3512 175.7 69.607 177.599 71.861 177.599C74.1472 177.599 75.3387 175.7 75.3387 172.64C75.3387 169.614 74.1472 167.714 71.861 167.714C69.607 167.714 68.3512 169.614 68.3512 172.64Z" fill="white"/>
<path d="M57.1789 164.043C59.0143 164.043 60.8498 164.462 62.0412 165.009L61.204 168.519C59.9803 168.004 58.6601 167.714 57.5653 167.714C54.9571 167.714 53.5403 169.549 53.5403 172.576C53.5403 175.893 55.0215 177.599 57.7907 177.599C58.8533 177.599 60.1413 177.31 61.365 176.762L62.0734 180.336C60.9786 180.884 59.3041 181.27 57.4365 181.27C52.0912 181.27 49 177.954 49 172.705C49 167.488 52.059 164.043 57.1789 164.043Z" fill="white"/>
</g>
<defs>
<clipPath id="clip0_18_54">
<rect width="406.835" height="267.786" fill="white"/>
</clipPath>
</defs>
</svg>
