<svg width="452" height="265" viewBox="0 0 452 265" fill="none" xmlns="http://www.w3.org/2000/svg">
<g clip-path="url(#clip0_57_140)">
<path d="M410.721 216.771L418.298 264.416L366.222 226.63L77.462 237.854C31.756 239.631 -3.72195 205.754 0.313049 165.721L10.667 63.0148C14.613 23.8668 57.439 -5.49524 101.57 0.869763L380.21 41.0588C421.259 46.9788 451.872 76.5968 451.872 111.451V156.119C451.872 182.049 435.525 204.561 410.721 216.771Z" fill="white"/>
</g>
<path d="M377.571 85.6C376.271 85.6 375.571 84.85 375.571 83.65C375.571 82.5 376.271 81.75 377.571 81.75C378.846 81.75 379.546 82.5 379.546 83.65C379.546 84.85 378.846 85.6 377.571 85.6Z" fill="#6E06C1"/>
<path d="M372.371 82L372.921 84.775C371.821 85.275 370.196 85.625 368.546 85.625C364.521 85.625 361.771 83.075 361.771 78.925C361.771 74.95 364.296 72.25 367.971 72.25C371.246 72.25 373.396 74.575 373.396 77.925C373.396 78.675 373.346 79.325 373.296 79.825H365.396C365.721 81.825 366.896 82.725 368.896 82.725C370.121 82.725 371.296 82.45 372.371 82ZM367.971 75C366.521 75 365.571 76.025 365.346 77.725H370.096V77.425C370.096 76.025 369.346 75 367.971 75Z" fill="#6E06C1"/>
<path d="M359.297 85.325H355.872V77.625C355.872 75.95 355.197 75.1 353.622 75.1C352.772 75.1 351.922 75.35 351.297 75.7C351.497 76.375 351.597 77.175 351.597 78.05V85.325H348.247V77.625C348.247 75.95 347.597 75.1 345.997 75.1C345.297 75.1 344.622 75.25 343.972 75.55V85.325H340.547V73.35C342.147 72.65 344.222 72.25 346.172 72.25C347.622 72.25 348.822 72.6 349.697 73.275C350.747 72.75 352.247 72.25 353.772 72.25C357.322 72.25 359.297 74.1 359.297 77.375V85.325Z" fill="#6E06C1"/>
<path d="M337.942 78.925C337.942 82.95 335.592 85.625 331.717 85.625C327.867 85.625 325.467 82.95 325.467 78.925C325.467 74.925 327.867 72.25 331.717 72.25C335.592 72.25 337.942 74.925 337.942 78.925ZM328.992 78.925C328.992 81.3 329.967 82.775 331.717 82.775C333.492 82.775 334.417 81.3 334.417 78.925C334.417 76.575 333.492 75.1 331.717 75.1C329.967 75.1 328.992 76.575 328.992 78.925Z" fill="#6E06C1"/>
<path d="M315.043 85.325H311.593V67.375L315.043 67.2V72.75C315.718 72.425 316.518 72.25 317.618 72.25C320.843 72.25 322.993 74.05 322.993 77.375V85.325H319.543V77.65C319.543 75.925 318.668 75.125 317.068 75.125C316.368 75.125 315.618 75.325 315.043 75.6V85.325Z" fill="#6E06C1"/>
<path d="M299.87 84.225C297.77 87.9 295.295 89.55 292.67 89.975L292.12 87.05C293.595 86.825 295.37 85.875 296.145 84.575C293.42 80.85 292.02 77.425 291.645 72.55H295.12C295.295 76.825 296.52 79.575 297.945 81.95C299.22 79.225 299.87 76.825 300.07 72.55H303.495C303.17 77.025 301.695 81 299.87 84.225Z" fill="#6E06C1"/>
<path d="M282.268 72.55H283.968V72.025C283.968 69 285.493 67 288.493 67C289.493 67 290.318 67.15 291.043 67.325L290.493 70.025C290.093 69.95 289.568 69.875 289.143 69.875C287.868 69.875 287.418 70.7 287.418 71.95V72.55H290.343V75.3H287.418V85.325H283.968V75.3H282.268V72.55Z" fill="#6E06C1"/>
<path d="M280.269 85.325H276.844V77.625C276.844 75.95 276.169 75.1 274.594 75.1C273.744 75.1 272.894 75.35 272.269 75.7C272.469 76.375 272.569 77.175 272.569 78.05V85.325H269.219V77.625C269.219 75.95 268.569 75.1 266.969 75.1C266.269 75.1 265.594 75.25 264.944 75.55V85.325H261.519V73.35C263.119 72.65 265.194 72.25 267.144 72.25C268.594 72.25 269.794 72.6 270.669 73.275C271.719 72.75 273.219 72.25 274.744 72.25C278.294 72.25 280.269 74.1 280.269 77.375V85.325Z" fill="#6E06C1"/>
<path d="M258.914 78.925C258.914 82.95 256.564 85.625 252.689 85.625C248.839 85.625 246.439 82.95 246.439 78.925C246.439 74.925 248.839 72.25 252.689 72.25C256.564 72.25 258.914 74.925 258.914 78.925ZM249.964 78.925C249.964 81.3 250.939 82.775 252.689 82.775C254.464 82.775 255.389 81.3 255.389 78.925C255.389 76.575 254.464 75.1 252.689 75.1C250.939 75.1 249.964 76.575 249.964 78.925Z" fill="#6E06C1"/>
<path d="M241.29 72.25C242.715 72.25 244.14 72.575 245.065 73L244.415 75.725C243.465 75.325 242.44 75.1 241.59 75.1C239.565 75.1 238.465 76.525 238.465 78.875C238.465 81.45 239.615 82.775 241.765 82.775C242.59 82.775 243.59 82.55 244.54 82.125L245.09 84.9C244.24 85.325 242.94 85.625 241.49 85.625C237.34 85.625 234.94 83.05 234.94 78.975C234.94 74.925 237.315 72.25 241.29 72.25Z" fill="#6E06C1"/>
<path d="M221.467 83.15C222.217 83.15 222.842 83 223.217 82.8V80.125C222.642 80 222.042 79.925 221.442 79.925C220.292 79.925 219.392 80.375 219.392 81.55C219.392 82.6 220.142 83.15 221.467 83.15ZM226.567 84.525C225.542 85.05 223.617 85.625 221.117 85.625C217.692 85.625 215.967 83.95 215.967 81.7C215.967 79.225 217.992 77.775 220.992 77.75C221.692 77.75 222.592 77.85 223.217 77.95V77.35C223.217 75.825 222.342 75.1 220.667 75.1C219.567 75.1 218.392 75.275 217.367 75.7L216.742 73C217.817 72.55 219.542 72.25 221.067 72.25C224.742 72.25 226.567 74.2 226.567 77.575V84.525Z" fill="#6E06C1"/>
<path d="M207.234 82L207.784 84.775C206.684 85.275 205.059 85.625 203.409 85.625C199.384 85.625 196.634 83.075 196.634 78.925C196.634 74.95 199.159 72.25 202.834 72.25C206.109 72.25 208.259 74.575 208.259 77.925C208.259 78.675 208.209 79.325 208.159 79.825H200.259C200.584 81.825 201.759 82.725 203.759 82.725C204.984 82.725 206.159 82.45 207.234 82ZM202.834 75C201.384 75 200.434 76.025 200.209 77.725H204.959V77.425C204.959 76.025 204.209 75 202.834 75Z" fill="#6E06C1"/>
<path d="M186.552 72.55C186.827 76.825 187.752 79.725 189.177 82.55C190.652 79.725 191.602 76.825 191.827 72.55H195.277C194.777 77.575 193.702 80.8 191.102 85.325H187.277C184.577 80.8 183.452 77.575 183.077 72.55H186.552Z" fill="#6E06C1"/>
<path d="M174.63 73.35C175.98 72.675 178.08 72.25 179.88 72.25C180.78 72.25 181.63 72.35 182.13 72.475L181.63 75.3C181.205 75.15 180.68 75.1 180.155 75.1C179.23 75.1 178.605 75.275 178.08 75.525V85.325H174.63V73.35Z" fill="#6E06C1"/>
<path d="M170.979 82L171.529 84.775C170.429 85.275 168.804 85.625 167.154 85.625C163.129 85.625 160.379 83.075 160.379 78.925C160.379 74.95 162.904 72.25 166.579 72.25C169.854 72.25 172.004 74.575 172.004 77.925C172.004 78.675 171.954 79.325 171.904 79.825H164.004C164.329 81.825 165.504 82.725 167.504 82.725C168.729 82.725 169.904 82.45 170.979 82ZM166.579 75C165.129 75 164.179 76.025 163.954 77.725H168.704V77.425C168.704 76.025 167.954 75 166.579 75Z" fill="#6E06C1"/>
<path d="M158.243 72.975L157.868 75.775C156.718 75.425 155.593 75.1 154.393 75.1C153.343 75.1 152.643 75.4 152.643 76.125C152.643 76.875 153.218 77.1 154.718 77.525C157.618 78.325 158.968 79.3 158.968 81.6C158.968 84.3 156.768 85.625 153.718 85.625C152.118 85.625 150.343 85.3 149.193 84.8L149.668 81.975C150.768 82.4 152.168 82.775 153.643 82.775C154.793 82.775 155.593 82.375 155.593 81.675C155.593 80.85 154.968 80.625 152.918 80.05C150.618 79.45 149.243 78.375 149.243 76.2C149.243 73.65 151.068 72.25 154.118 72.25C155.543 72.25 157.168 72.55 158.243 72.975Z" fill="#6E06C1"/>
<path d="M146.443 82L146.993 84.775C145.893 85.275 144.268 85.625 142.618 85.625C138.593 85.625 135.843 83.075 135.843 78.925C135.843 74.95 138.368 72.25 142.043 72.25C145.318 72.25 147.468 74.575 147.468 77.925C147.468 78.675 147.418 79.325 147.368 79.825H139.468C139.793 81.825 140.968 82.725 142.968 82.725C144.193 82.725 145.368 82.45 146.443 82ZM142.043 75C140.593 75 139.643 76.025 139.418 77.725H144.168V77.425C144.168 76.025 143.418 75 142.043 75Z" fill="#6E06C1"/>
<path d="M133.214 84.6C131.989 85.175 130.089 85.625 128.239 85.625C123.989 85.625 121.439 83.125 121.439 79.15C121.439 74.975 124.139 72.25 128.239 72.25C128.764 72.25 129.314 72.325 129.789 72.425V67.4L133.214 67.225V84.6ZM124.964 79C124.964 81.475 126.214 82.775 128.214 82.775C128.864 82.775 129.414 82.65 129.789 82.45V75.35C129.339 75.2 128.864 75.1 128.439 75.1C126.189 75.1 124.964 76.425 124.964 79Z" fill="#6E06C1"/>
<path d="M112.929 84.525C111.954 84.925 109.604 85.625 107.229 85.625C103.004 85.625 101.604 83.475 101.604 80.275V72.55H105.029V80.275C105.029 81.85 105.729 82.775 107.304 82.775C108.129 82.775 108.854 82.625 109.479 82.325V72.55H112.929V84.525Z" fill="#6E06C1"/>
<path d="M99.1237 78.925C99.1237 82.95 96.7737 85.625 92.8987 85.625C89.0487 85.625 86.6487 82.95 86.6487 78.925C86.6487 74.925 89.0487 72.25 92.8987 72.25C96.7737 72.25 99.1237 74.925 99.1237 78.925ZM90.1737 78.925C90.1737 81.3 91.1487 82.775 92.8987 82.775C94.6737 82.775 95.5987 81.3 95.5987 78.925C95.5987 76.575 94.6737 75.1 92.8987 75.1C91.1487 75.1 90.1737 76.575 90.1737 78.925Z" fill="#6E06C1"/>
<path d="M78.0251 85.325V78.325C75.5501 74.775 73.4751 71.4 72.2251 67.825H75.9001C76.8251 70.275 77.8751 72.425 79.8251 75.425C81.7751 72.45 82.8001 70.275 83.7251 67.825H87.4001C86.1001 71.425 84.0251 74.85 81.6001 78.325V85.325H78.0251Z" fill="#6E06C1"/>
<path d="M70.075 74H66.775C66.8 71.45 68.275 68.9 69.5 67.325H71.35C70.525 69.6 70.1 71.925 70.075 74ZM65 74H61.7C61.725 71.45 63.175 68.9 64.4 67.325H66.275C65.425 69.6 65.025 71.925 65 74Z" fill="#6E06C1"/>
<path d="M400.22 102.975L399.845 105.775C398.695 105.425 397.57 105.1 396.37 105.1C395.32 105.1 394.62 105.4 394.62 106.125C394.62 106.875 395.195 107.1 396.695 107.525C399.595 108.325 400.945 109.3 400.945 111.6C400.945 114.3 398.745 115.625 395.695 115.625C394.095 115.625 392.32 115.3 391.17 114.8L391.645 111.975C392.745 112.4 394.145 112.775 395.62 112.775C396.77 112.775 397.57 112.375 397.57 111.675C397.57 110.85 396.945 110.625 394.895 110.05C392.595 109.45 391.22 108.375 391.22 106.2C391.22 103.65 393.045 102.25 396.095 102.25C397.52 102.25 399.145 102.55 400.22 102.975Z" fill="#6E06C1"/>
<path d="M380.919 115.325H377.494V103.35C379.069 102.675 381.219 102.25 383.144 102.25C386.794 102.25 388.894 104.05 388.894 107.375V115.325H385.444V107.625C385.444 105.9 384.644 105.1 383.119 105.1C382.319 105.1 381.569 105.25 380.919 105.55V115.325Z" fill="#6E06C1"/>
<path d="M374.89 108.925C374.89 112.95 372.54 115.625 368.665 115.625C364.815 115.625 362.415 112.95 362.415 108.925C362.415 104.925 364.815 102.25 368.665 102.25C372.54 102.25 374.89 104.925 374.89 108.925ZM365.94 108.925C365.94 111.3 366.915 112.775 368.665 112.775C370.44 112.775 371.365 111.3 371.365 108.925C371.365 106.575 370.44 105.1 368.665 105.1C366.915 105.1 365.94 106.575 365.94 108.925Z" fill="#6E06C1"/>
<path d="M359.778 102.55V115.325H356.328V102.55H359.778ZM358.053 100.85C356.778 100.85 356.053 100.075 356.053 98.925C356.053 97.775 356.778 97 358.053 97C359.303 97 360.028 97.775 360.028 98.925C360.028 100.075 359.303 100.85 358.053 100.85Z" fill="#6E06C1"/>
<path d="M354.198 115.4C353.598 115.55 352.798 115.625 352.023 115.625C349.048 115.625 347.523 114 347.523 110.7V105.3H345.823V102.55H347.523V99.775L350.973 99.6V102.55H353.748V105.3H350.973V110.65C350.973 112.1 351.573 112.775 352.698 112.775C353.223 112.775 353.698 112.7 354.023 112.625L354.198 115.4Z" fill="#6E06C1"/>
<path d="M343.846 114.525C342.871 114.925 340.521 115.625 338.146 115.625C333.921 115.625 332.521 113.475 332.521 110.275V102.55H335.946V110.275C335.946 111.85 336.646 112.775 338.221 112.775C339.046 112.775 339.771 112.625 340.396 112.325V102.55H343.846V114.525Z" fill="#6E06C1"/>
<path d="M328.476 97.2V110.7C328.476 112.05 328.826 112.775 329.826 112.775C330.076 112.775 330.326 112.75 330.551 112.7L330.801 115.425C330.326 115.525 329.551 115.625 329.051 115.625C326.176 115.625 325.026 113.75 325.026 110.75V97.4L328.476 97.2Z" fill="#6E06C1"/>
<path d="M322.521 108.925C322.521 112.95 320.171 115.625 316.296 115.625C312.446 115.625 310.046 112.95 310.046 108.925C310.046 104.925 312.446 102.25 316.296 102.25C320.171 102.25 322.521 104.925 322.521 108.925ZM313.571 108.925C313.571 111.3 314.546 112.775 316.296 112.775C318.071 112.775 318.996 111.3 318.996 108.925C318.996 106.575 318.071 105.1 316.296 105.1C314.546 105.1 313.571 106.575 313.571 108.925Z" fill="#6E06C1"/>
<path d="M307.911 102.975L307.536 105.775C306.386 105.425 305.261 105.1 304.061 105.1C303.011 105.1 302.311 105.4 302.311 106.125C302.311 106.875 302.886 107.1 304.386 107.525C307.286 108.325 308.636 109.3 308.636 111.6C308.636 114.3 306.436 115.625 303.386 115.625C301.786 115.625 300.011 115.3 298.861 114.8L299.336 111.975C300.436 112.4 301.836 112.775 303.311 112.775C304.461 112.775 305.261 112.375 305.261 111.675C305.261 110.85 304.636 110.625 302.586 110.05C300.286 109.45 298.911 108.375 298.911 106.2C298.911 103.65 300.736 102.25 303.786 102.25C305.211 102.25 306.836 102.55 307.911 102.975Z" fill="#6E06C1"/>
<path d="M284.355 103.35C285.705 102.675 287.805 102.25 289.605 102.25C290.505 102.25 291.355 102.35 291.855 102.475L291.355 105.3C290.93 105.15 290.405 105.1 289.88 105.1C288.955 105.1 288.33 105.275 287.805 105.525V115.325H284.355V103.35Z" fill="#6E06C1"/>
<path d="M280.705 112L281.255 114.775C280.155 115.275 278.53 115.625 276.88 115.625C272.855 115.625 270.105 113.075 270.105 108.925C270.105 104.95 272.63 102.25 276.305 102.25C279.58 102.25 281.73 104.575 281.73 107.925C281.73 108.675 281.68 109.325 281.63 109.825H273.73C274.055 111.825 275.23 112.725 277.23 112.725C278.455 112.725 279.63 112.45 280.705 112ZM276.305 105C274.855 105 273.905 106.025 273.68 107.725H278.43V107.425C278.43 106.025 277.68 105 276.305 105Z" fill="#6E06C1"/>
<path d="M260.939 102.55H262.639V102.025C262.639 99 264.164 97 267.164 97C268.164 97 268.989 97.15 269.714 97.325L269.164 100.025C268.764 99.95 268.239 99.875 267.814 99.875C266.539 99.875 266.089 100.7 266.089 101.95V102.55H269.014V105.3H266.089V115.325H262.639V105.3H260.939V102.55Z" fill="#6E06C1"/>
<path d="M252.247 102.55H253.947V102.025C253.947 99 255.472 97 258.472 97C259.472 97 260.297 97.15 261.022 97.325L260.472 100.025C260.072 99.95 259.547 99.875 259.122 99.875C257.847 99.875 257.397 100.7 257.397 101.95V102.55H260.322V105.3H257.397V115.325H253.947V105.3H252.247V102.55Z" fill="#6E06C1"/>
<path d="M250.817 108.925C250.817 112.95 248.467 115.625 244.592 115.625C240.742 115.625 238.342 112.95 238.342 108.925C238.342 104.925 240.742 102.25 244.592 102.25C248.467 102.25 250.817 104.925 250.817 108.925ZM241.867 108.925C241.867 111.3 242.842 112.775 244.592 112.775C246.367 112.775 247.292 111.3 247.292 108.925C247.292 106.575 246.367 105.1 244.592 105.1C242.842 105.1 241.867 106.575 241.867 108.925Z" fill="#6E06C1"/>
<path d="M229.484 112L230.034 114.775C228.934 115.275 227.309 115.625 225.659 115.625C221.634 115.625 218.884 113.075 218.884 108.925C218.884 104.95 221.409 102.25 225.084 102.25C228.359 102.25 230.509 104.575 230.509 107.925C230.509 108.675 230.459 109.325 230.409 109.825H222.509C222.834 111.825 224.009 112.725 226.009 112.725C227.234 112.725 228.409 112.45 229.484 112ZM225.084 105C223.634 105 222.684 106.025 222.459 107.725H227.209V107.425C227.209 106.025 226.459 105 225.084 105Z" fill="#6E06C1"/>
<path d="M209.487 102.55C209.762 106.825 210.562 109.825 211.737 112.65C213.112 109.825 213.937 106.825 214.112 102.55H217.537C217.062 107.575 216.137 110.8 213.612 115.325H210.162C209.262 113.575 208.537 112.025 207.962 110.5C207.462 112.075 206.787 113.75 205.937 115.325H202.612C199.837 110.8 199.087 107.575 198.687 102.55H202.087C202.337 106.825 203.162 109.825 204.462 112.65C205.587 110.5 206.337 107.625 206.587 105.35C206.462 104.475 206.362 103.55 206.287 102.55H209.487Z" fill="#6E06C1"/>
<path d="M187.989 114.225C185.889 117.9 183.414 119.55 180.789 119.975L180.239 117.05C181.714 116.825 183.489 115.875 184.264 114.575C181.539 110.85 180.139 107.425 179.764 102.55H183.239C183.414 106.825 184.639 109.575 186.064 111.95C187.339 109.225 187.989 106.825 188.189 102.55H191.614C191.289 107.025 189.814 111 187.989 114.225Z" fill="#6E06C1"/>
<path d="M169.934 115.325H166.484V97.375L169.934 97.2V102.75C170.609 102.425 171.409 102.25 172.509 102.25C175.734 102.25 177.884 104.05 177.884 107.375V115.325H174.434V107.65C174.434 105.925 173.559 105.125 171.959 105.125C171.259 105.125 170.509 105.325 169.934 105.6V115.325Z" fill="#6E06C1"/>
<path d="M156.118 102.55C156.393 106.825 157.193 109.825 158.368 112.65C159.743 109.825 160.568 106.825 160.743 102.55H164.168C163.693 107.575 162.768 110.8 160.243 115.325H156.793C155.893 113.575 155.168 112.025 154.593 110.5C154.093 112.075 153.418 113.75 152.568 115.325H149.243C146.468 110.8 145.718 107.575 145.318 102.55H148.718C148.968 106.825 149.793 109.825 151.093 112.65C152.218 110.5 152.968 107.625 153.218 105.35C153.093 104.475 152.993 103.55 152.918 102.55H156.118Z" fill="#6E06C1"/>
<path d="M137.549 102.975L137.174 105.775C136.024 105.425 134.899 105.1 133.699 105.1C132.649 105.1 131.949 105.4 131.949 106.125C131.949 106.875 132.524 107.1 134.024 107.525C136.924 108.325 138.274 109.3 138.274 111.6C138.274 114.3 136.074 115.625 133.024 115.625C131.424 115.625 129.649 115.3 128.499 114.8L128.974 111.975C130.074 112.4 131.474 112.775 132.949 112.775C134.099 112.775 134.899 112.375 134.899 111.675C134.899 110.85 134.274 110.625 132.224 110.05C129.924 109.45 128.549 108.375 128.549 106.2C128.549 103.65 130.374 102.25 133.424 102.25C134.849 102.25 136.474 102.55 137.549 102.975Z" fill="#6E06C1"/>
<path d="M124.209 97.325H127.509C127.484 99.875 126.009 102.425 124.784 104H122.934C123.759 101.725 124.159 99.4 124.209 97.325Z" fill="#6E06C1"/>
<path d="M121.679 115.4C121.079 115.55 120.279 115.625 119.504 115.625C116.529 115.625 115.004 114 115.004 110.7V105.3H113.304V102.55H115.004V99.775L118.454 99.6V102.55H121.229V105.3H118.454V110.65C118.454 112.1 119.054 112.775 120.179 112.775C120.704 112.775 121.179 112.7 121.504 112.625L121.679 115.4Z" fill="#6E06C1"/>
<path d="M106.364 113.15C107.114 113.15 107.739 113 108.114 112.8V110.125C107.539 110 106.939 109.925 106.339 109.925C105.189 109.925 104.289 110.375 104.289 111.55C104.289 112.6 105.039 113.15 106.364 113.15ZM111.464 114.525C110.439 115.05 108.514 115.625 106.014 115.625C102.589 115.625 100.864 113.95 100.864 111.7C100.864 109.225 102.889 107.775 105.889 107.75C106.589 107.75 107.489 107.85 108.114 107.95V107.35C108.114 105.825 107.239 105.1 105.564 105.1C104.464 105.1 103.289 105.275 102.264 105.7L101.639 103C102.714 102.55 104.439 102.25 105.964 102.25C109.639 102.25 111.464 104.2 111.464 107.575V114.525Z" fill="#6E06C1"/>
<path d="M90.5643 115.325H87.1143V97.375L90.5643 97.2V102.75C91.2393 102.425 92.0393 102.25 93.1393 102.25C96.3643 102.25 98.5143 104.05 98.5143 107.375V115.325H95.0643V107.65C95.0643 105.925 94.1893 105.125 92.5893 105.125C91.8893 105.125 91.1393 105.325 90.5643 105.6V115.325Z" fill="#6E06C1"/>
<path d="M76.65 115.325V100.875H72V97.825H84.875V100.875H80.225V115.325H76.65Z" fill="#6E06C1"/>
<path d="M378.608 127.125H381.908C381.883 129.675 380.408 132.225 379.183 133.8H377.333C378.158 131.525 378.558 129.2 378.608 127.125ZM383.683 127.125H386.983C386.958 129.675 385.483 132.225 384.258 133.8H382.408C383.258 131.525 383.658 129.2 383.683 127.125Z" fill="#6E06C1"/>
<path d="M373.337 145.4C372.037 145.4 371.337 144.65 371.337 143.45C371.337 142.3 372.037 141.55 373.337 141.55C374.612 141.55 375.312 142.3 375.312 143.45C375.312 144.65 374.612 145.4 373.337 145.4Z" fill="#6E06C1"/>
<path d="M368.926 132.775L368.551 135.575C367.401 135.225 366.276 134.9 365.076 134.9C364.026 134.9 363.326 135.2 363.326 135.925C363.326 136.675 363.901 136.9 365.401 137.325C368.301 138.125 369.651 139.1 369.651 141.4C369.651 144.1 367.451 145.425 364.401 145.425C362.801 145.425 361.026 145.1 359.876 144.6L360.351 141.775C361.451 142.2 362.851 142.575 364.326 142.575C365.476 142.575 366.276 142.175 366.276 141.475C366.276 140.65 365.651 140.425 363.601 139.85C361.301 139.25 359.926 138.175 359.926 136C359.926 133.45 361.751 132.05 364.801 132.05C366.226 132.05 367.851 132.35 368.926 132.775Z" fill="#6E06C1"/>
<path d="M358.646 145.2C358.046 145.35 357.246 145.425 356.471 145.425C353.496 145.425 351.971 143.8 351.971 140.5V135.1H350.271V132.35H351.971V129.575L355.421 129.4V132.35H358.196V135.1H355.421V140.45C355.421 141.9 356.021 142.575 357.146 142.575C357.671 142.575 358.146 142.5 358.471 142.425L358.646 145.2Z" fill="#6E06C1"/>
<path d="M348.736 132.775L348.361 135.575C347.211 135.225 346.086 134.9 344.886 134.9C343.836 134.9 343.136 135.2 343.136 135.925C343.136 136.675 343.711 136.9 345.211 137.325C348.111 138.125 349.461 139.1 349.461 141.4C349.461 144.1 347.261 145.425 344.211 145.425C342.611 145.425 340.836 145.1 339.686 144.6L340.161 141.775C341.261 142.2 342.661 142.575 344.136 142.575C345.286 142.575 346.086 142.175 346.086 141.475C346.086 140.65 345.461 140.425 343.411 139.85C341.111 139.25 339.736 138.175 339.736 136C339.736 133.45 341.561 132.05 344.611 132.05C346.036 132.05 347.661 132.35 348.736 132.775Z" fill="#6E06C1"/>
<path d="M337.956 138.725C337.956 142.75 335.606 145.425 331.731 145.425C327.881 145.425 325.481 142.75 325.481 138.725C325.481 134.725 327.881 132.05 331.731 132.05C335.606 132.05 337.956 134.725 337.956 138.725ZM329.006 138.725C329.006 141.1 329.981 142.575 331.731 142.575C333.506 142.575 334.431 141.1 334.431 138.725C334.431 136.375 333.506 134.9 331.731 134.9C329.981 134.9 329.006 136.375 329.006 138.725Z" fill="#6E06C1"/>
<path d="M320.332 132.05C321.757 132.05 323.182 132.375 324.107 132.8L323.457 135.525C322.507 135.125 321.482 134.9 320.632 134.9C318.607 134.9 317.507 136.325 317.507 138.675C317.507 141.25 318.657 142.575 320.807 142.575C321.632 142.575 322.632 142.35 323.582 141.925L324.132 144.7C323.282 145.125 321.982 145.425 320.532 145.425C316.382 145.425 313.982 142.85 313.982 138.775C313.982 134.725 316.357 132.05 320.332 132.05Z" fill="#6E06C1"/>
<path d="M305.124 141.8L305.674 144.575C304.574 145.075 302.949 145.425 301.299 145.425C297.274 145.425 294.524 142.875 294.524 138.725C294.524 134.75 297.049 132.05 300.724 132.05C303.999 132.05 306.149 134.375 306.149 137.725C306.149 138.475 306.099 139.125 306.049 139.625H298.149C298.474 141.625 299.649 142.525 301.649 142.525C302.874 142.525 304.049 142.25 305.124 141.8ZM300.724 134.8C299.274 134.8 298.324 135.825 298.099 137.525H302.849V137.225C302.849 135.825 302.099 134.8 300.724 134.8Z" fill="#6E06C1"/>
<path d="M292.388 132.775L292.013 135.575C290.863 135.225 289.738 134.9 288.538 134.9C287.488 134.9 286.788 135.2 286.788 135.925C286.788 136.675 287.363 136.9 288.863 137.325C291.763 138.125 293.113 139.1 293.113 141.4C293.113 144.1 290.913 145.425 287.863 145.425C286.263 145.425 284.488 145.1 283.338 144.6L283.813 141.775C284.913 142.2 286.313 142.575 287.788 142.575C288.938 142.575 289.738 142.175 289.738 141.475C289.738 140.65 289.113 140.425 287.063 139.85C284.763 139.25 283.388 138.175 283.388 136C283.388 133.45 285.213 132.05 288.263 132.05C289.688 132.05 291.313 132.35 292.388 132.775Z" fill="#6E06C1"/>
<path d="M281.608 138.725C281.608 142.75 279.258 145.425 275.383 145.425C271.533 145.425 269.133 142.75 269.133 138.725C269.133 134.725 271.533 132.05 275.383 132.05C279.258 132.05 281.608 134.725 281.608 138.725ZM272.658 138.725C272.658 141.1 273.633 142.575 275.383 142.575C277.158 142.575 278.083 141.1 278.083 138.725C278.083 136.375 277.158 134.9 275.383 134.9C273.633 134.9 272.658 136.375 272.658 138.725Z" fill="#6E06C1"/>
<path d="M258.709 145.125H255.259V127.175L258.709 127V132.55C259.384 132.225 260.184 132.05 261.284 132.05C264.509 132.05 266.659 133.85 266.659 137.175V145.125H263.209V137.45C263.209 135.725 262.334 134.925 260.734 134.925C260.034 134.925 259.284 135.125 258.709 135.4V145.125Z" fill="#6E06C1"/>
<path d="M253.129 145.2C252.529 145.35 251.729 145.425 250.954 145.425C247.979 145.425 246.454 143.8 246.454 140.5V135.1H244.754V132.35H246.454V129.575L249.904 129.4V132.35H252.679V135.1H249.904V140.45C249.904 141.9 250.504 142.575 251.629 142.575C252.154 142.575 252.629 142.5 252.954 142.425L253.129 145.2Z" fill="#6E06C1"/>
<path d="M236.792 144.4C235.567 144.975 233.667 145.425 231.817 145.425C227.567 145.425 225.017 142.925 225.017 138.95C225.017 134.775 227.717 132.05 231.817 132.05C232.342 132.05 232.892 132.125 233.367 132.225V127.2L236.792 127.025V144.4ZM228.542 138.8C228.542 141.275 229.792 142.575 231.792 142.575C232.442 142.575 232.992 142.45 233.367 142.25V135.15C232.917 135 232.442 134.9 232.017 134.9C229.767 134.9 228.542 136.225 228.542 138.8Z" fill="#6E06C1"/>
<path d="M214.591 145.125H211.166V133.15C212.741 132.475 214.891 132.05 216.816 132.05C220.466 132.05 222.566 133.85 222.566 137.175V145.125H219.116V137.425C219.116 135.7 218.316 134.9 216.791 134.9C215.991 134.9 215.241 135.05 214.591 135.35V145.125Z" fill="#6E06C1"/>
<path d="M207.888 144.325C206.913 144.725 204.563 145.425 202.188 145.425C197.963 145.425 196.563 143.275 196.563 140.075V132.35H199.988V140.075C199.988 141.65 200.688 142.575 202.263 142.575C203.088 142.575 203.813 142.425 204.438 142.125V132.35H207.888V144.325Z" fill="#6E06C1"/>
<path d="M194.084 138.725C194.084 142.75 191.734 145.425 187.859 145.425C184.009 145.425 181.609 142.75 181.609 138.725C181.609 134.725 184.009 132.05 187.859 132.05C191.734 132.05 194.084 134.725 194.084 138.725ZM185.134 138.725C185.134 141.1 186.109 142.575 187.859 142.575C189.634 142.575 190.559 141.1 190.559 138.725C190.559 136.375 189.634 134.9 187.859 134.9C186.109 134.9 185.134 136.375 185.134 138.725Z" fill="#6E06C1"/>
<path d="M173.178 133.15C174.528 132.475 176.628 132.05 178.428 132.05C179.328 132.05 180.178 132.15 180.678 132.275L180.178 135.1C179.753 134.95 179.228 134.9 178.703 134.9C177.778 134.9 177.153 135.075 176.628 135.325V145.125H173.178V133.15Z" fill="#6E06C1"/>
<path d="M169.848 144.325C169.848 147.85 167.423 149.875 163.523 149.875C161.623 149.875 160.498 149.65 159.148 149.1L159.873 146.375C160.923 146.8 162.073 147 163.323 147C165.248 147 166.423 146.2 166.423 144.675V144.1C165.648 144.4 164.848 144.55 164.073 144.55C160.373 144.55 158.098 142.375 158.098 138.6C158.098 134.575 160.823 132.05 164.848 132.05C166.823 132.05 168.723 132.55 169.848 133.05V144.325ZM161.623 138.3C161.623 140.375 162.698 141.675 164.623 141.675C165.323 141.675 165.898 141.5 166.423 141.25V135.175C165.948 135.025 165.398 134.9 164.848 134.9C162.798 134.9 161.623 136.25 161.623 138.3Z" fill="#6E06C1"/>
<path d="M150.235 138.55C150.235 142.65 147.91 145.375 144.01 145.375C143.135 145.375 142.535 145.275 141.91 145.05V149.8H138.485V133.125C139.91 132.475 141.91 132.05 143.685 132.05C147.785 132.05 150.235 134.55 150.235 138.55ZM141.91 142.225C142.385 142.425 142.785 142.575 143.51 142.575C145.71 142.575 146.735 141.225 146.735 138.65C146.735 136.4 145.785 134.9 143.51 134.9C142.885 134.9 142.435 135.025 141.91 135.225V142.225Z" fill="#6E06C1"/>
<path d="M134.121 127V140.5C134.121 141.85 134.471 142.575 135.471 142.575C135.721 142.575 135.971 142.55 136.196 142.5L136.446 145.225C135.971 145.325 135.196 145.425 134.696 145.425C131.821 145.425 130.671 143.55 130.671 140.55V127.2L134.121 127Z" fill="#6E06C1"/>
<path d="M127.145 141.8L127.695 144.575C126.595 145.075 124.97 145.425 123.32 145.425C119.295 145.425 116.545 142.875 116.545 138.725C116.545 134.75 119.07 132.05 122.745 132.05C126.02 132.05 128.17 134.375 128.17 137.725C128.17 138.475 128.12 139.125 128.07 139.625H120.17C120.495 141.625 121.67 142.525 123.67 142.525C124.895 142.525 126.07 142.25 127.145 141.8ZM122.745 134.8C121.295 134.8 120.345 135.825 120.12 137.525H124.87V137.225C124.87 135.825 124.12 134.8 122.745 134.8Z" fill="#6E06C1"/>
<path d="M106.121 145.125H102.671V127.175L106.121 127V132.55C106.796 132.225 107.596 132.05 108.696 132.05C111.921 132.05 114.071 133.85 114.071 137.175V145.125H110.621V137.45C110.621 135.725 109.746 134.925 108.146 134.925C107.446 134.925 106.696 135.125 106.121 135.4V145.125Z" fill="#6E06C1"/>
<path d="M94.1081 138.725C94.1081 142.75 91.7581 145.425 87.8831 145.425C84.0331 145.425 81.6331 142.75 81.6331 138.725C81.6331 134.725 84.0331 132.05 87.8831 132.05C91.7581 132.05 94.1081 134.725 94.1081 138.725ZM85.1581 138.725C85.1581 141.1 86.1331 142.575 87.8831 142.575C89.6581 142.575 90.5831 141.1 90.5831 138.725C90.5831 136.375 89.6581 134.9 87.8831 134.9C86.1331 134.9 85.1581 136.375 85.1581 138.725Z" fill="#6E06C1"/>
<path d="M80.375 145.2C79.775 145.35 78.975 145.425 78.2 145.425C75.225 145.425 73.7 143.8 73.7 140.5V135.1H72V132.35H73.7V129.575L77.15 129.4V132.35H79.925V135.1H77.15V140.45C77.15 141.9 77.75 142.575 78.875 142.575C79.4 142.575 79.875 142.5 80.2 142.425L80.375 145.2Z" fill="#6E06C1"/>
<path d="M323.315 192.899L323.549 193.961C322.667 194.375 321.641 194.591 320.507 194.591C317.681 194.591 315.845 192.917 315.845 189.821C315.845 187.067 317.411 185.087 320.003 185.087C322.397 185.087 323.675 186.833 323.675 189.029C323.675 189.425 323.657 189.767 323.621 190.091H317.141C317.249 192.395 318.545 193.493 320.597 193.493C321.515 193.493 322.469 193.259 323.315 192.899ZM320.003 186.167C318.311 186.167 317.321 187.391 317.159 189.191H322.415C322.433 189.065 322.433 188.993 322.433 188.849C322.433 187.481 321.731 186.167 320.003 186.167Z" fill="#680DC5"/>
<path d="M313.176 193.817C312.42 194.285 311.34 194.591 310.044 194.591C307.308 194.591 305.526 192.881 305.526 189.983C305.526 187.013 307.218 185.087 310.224 185.087C310.836 185.087 311.43 185.213 311.916 185.393V181.433L313.176 181.361V193.817ZM306.822 189.947C306.822 192.179 308.1 193.493 310.026 193.493C310.782 193.493 311.52 193.331 311.916 193.061V186.545C311.43 186.329 310.836 186.185 310.278 186.185C308.01 186.185 306.822 187.571 306.822 189.947Z" fill="#680DC5"/>
<path d="M302.864 185.303V194.375H301.604V185.303H302.864ZM302.234 183.413C301.694 183.413 301.388 183.035 301.388 182.549C301.388 182.081 301.694 181.721 302.234 181.721C302.774 181.721 303.08 182.081 303.08 182.549C303.08 183.035 302.774 183.413 302.234 183.413Z" fill="#680DC5"/>
<path d="M298.361 193.673C297.371 194.177 296.039 194.591 294.473 194.591C292.043 194.591 291.071 193.295 291.071 191.351V185.303H292.331V191.333C292.331 192.611 292.943 193.493 294.491 193.493C295.445 193.493 296.291 193.313 297.083 192.881V185.303H298.361V193.673Z" fill="#680DC5"/>
<path d="M288.302 193.799C287.456 194.195 286.088 194.591 284.756 194.591C280.688 194.591 278.546 191.981 278.546 188.129C278.546 184.421 280.616 181.559 284.504 181.559C285.692 181.559 287.006 181.829 287.978 182.297L287.672 183.395C286.682 182.963 285.674 182.729 284.522 182.729C281.372 182.729 279.896 185.141 279.896 188.129C279.896 191.261 281.534 193.421 284.792 193.421C285.602 193.421 286.412 193.295 287.096 193.079V188.921H284.36V187.805H288.302V193.799Z" fill="#680DC5"/>
<path d="M269.226 194.105C267.984 196.283 266.562 197.291 264.906 197.687L264.654 196.589C265.95 196.283 267.066 195.509 267.876 194.159C266.004 191.351 264.924 188.705 264.474 185.303H265.734C266.148 188.381 267.138 190.703 268.56 193.133C269.874 190.631 270.72 188.381 271.134 185.303H272.394C271.944 188.597 270.792 191.333 269.226 194.105Z" fill="#680DC5"/>
<path d="M262.181 194.411C262.181 196.661 260.723 197.813 258.365 197.813C257.123 197.813 256.349 197.651 255.467 197.327L255.755 196.265C256.583 196.571 257.303 196.715 258.311 196.715C260.075 196.715 260.921 195.851 260.921 194.501V193.439C260.363 193.781 259.643 194.015 258.689 194.015C256.187 194.015 254.585 192.467 254.585 189.695C254.585 186.851 256.313 185.087 259.031 185.087C260.291 185.087 261.443 185.411 262.181 185.807V194.411ZM255.881 189.623C255.881 191.693 256.979 192.917 258.833 192.917C259.715 192.917 260.381 192.683 260.921 192.305V186.563C260.453 186.365 259.751 186.185 259.031 186.185C257.105 186.185 255.881 187.463 255.881 189.623Z" fill="#680DC5"/>
<path d="M248.624 186.005C249.578 185.465 250.946 185.087 252.404 185.087C252.8 185.087 253.106 185.123 253.412 185.177L253.232 186.275C252.998 186.203 252.692 186.185 252.476 186.185C251.378 186.185 250.514 186.437 249.884 186.797V194.375H248.624V186.005Z" fill="#680DC5"/>
<path d="M245.619 192.899L245.853 193.961C244.971 194.375 243.945 194.591 242.811 194.591C239.985 194.591 238.149 192.917 238.149 189.821C238.149 187.067 239.715 185.087 242.307 185.087C244.701 185.087 245.979 186.833 245.979 189.029C245.979 189.425 245.961 189.767 245.925 190.091H239.445C239.553 192.395 240.849 193.493 242.901 193.493C243.819 193.493 244.773 193.259 245.619 192.899ZM242.307 186.167C240.615 186.167 239.625 187.391 239.463 189.191H244.719C244.737 189.065 244.737 188.993 244.737 188.849C244.737 187.481 244.035 186.167 242.307 186.167Z" fill="#680DC5"/>
<path d="M229.491 194.375H228.231V186.005C229.329 185.447 230.643 185.087 232.047 185.087C234.477 185.087 235.647 186.347 235.647 188.399V194.375H234.387V188.471C234.387 187.085 233.667 186.185 232.047 186.185C231.147 186.185 230.265 186.383 229.491 186.797V194.375Z" fill="#680DC5"/>
<path d="M225.665 193.241V194.375H218.321V181.775H225.665V182.909H219.617V187.337H224.801V188.471H219.617V193.241H225.665Z" fill="#680DC5"/>
<path d="M210.38 193.817C209.624 194.285 208.543 194.591 207.247 194.591C204.511 194.591 202.729 192.881 202.729 189.983C202.729 187.013 204.421 185.087 207.427 185.087C208.039 185.087 208.633 185.213 209.119 185.393V181.433L210.38 181.361V193.817ZM204.025 189.947C204.025 192.179 205.303 193.493 207.229 193.493C207.985 193.493 208.723 193.331 209.119 193.061V186.545C208.633 186.329 208.039 186.185 207.481 186.185C205.213 186.185 204.025 187.571 204.025 189.947Z" fill="#680DC5"/>
<path d="M200.707 189.839C200.707 192.665 199.231 194.591 196.603 194.591C194.011 194.591 192.517 192.665 192.517 189.839C192.517 187.013 194.011 185.087 196.603 185.087C199.231 185.087 200.707 187.013 200.707 189.839ZM193.813 189.839C193.813 192.035 194.731 193.493 196.603 193.493C198.529 193.493 199.411 192.035 199.411 189.839C199.411 187.643 198.529 186.185 196.603 186.185C194.731 186.185 193.813 187.643 193.813 189.839Z" fill="#680DC5"/>
<path d="M190.494 189.839C190.494 192.665 189.018 194.591 186.39 194.591C183.798 194.591 182.304 192.665 182.304 189.839C182.304 187.013 183.798 185.087 186.39 185.087C189.018 185.087 190.494 187.013 190.494 189.839ZM183.6 189.839C183.6 192.035 184.518 193.493 186.39 193.493C188.316 193.493 189.198 192.035 189.198 189.839C189.198 187.643 188.316 186.185 186.39 186.185C184.518 186.185 183.6 187.643 183.6 189.839Z" fill="#680DC5"/>
<path d="M180.021 193.799C179.175 194.195 177.807 194.591 176.475 194.591C172.407 194.591 170.265 191.981 170.265 188.129C170.265 184.421 172.335 181.559 176.223 181.559C177.411 181.559 178.725 181.829 179.697 182.297L179.391 183.395C178.401 182.963 177.393 182.729 176.241 182.729C173.091 182.729 171.615 185.141 171.615 188.129C171.615 191.261 173.253 193.421 176.511 193.421C177.321 193.421 178.131 193.295 178.815 193.079V188.921H176.079V187.805H180.021V193.799Z" fill="#680DC5"/>
<path d="M159.538 186.005C160.492 185.465 161.86 185.087 163.318 185.087C163.714 185.087 164.02 185.123 164.326 185.177L164.146 186.275C163.912 186.203 163.606 186.185 163.39 186.185C162.292 186.185 161.428 186.437 160.798 186.797V194.375H159.538V186.005Z" fill="#680DC5"/>
<path d="M156.294 193.673C155.304 194.177 153.972 194.591 152.406 194.591C149.976 194.591 149.004 193.295 149.004 191.351V185.303H150.264V191.333C150.264 192.611 150.876 193.493 152.424 193.493C153.378 193.493 154.224 193.313 155.016 192.881V185.303H156.294V193.673Z" fill="#680DC5"/>
<path d="M146.496 189.839C146.496 192.665 145.02 194.591 142.392 194.591C139.8 194.591 138.306 192.665 138.306 189.839C138.306 187.013 139.8 185.087 142.392 185.087C145.02 185.087 146.496 187.013 146.496 189.839ZM139.602 189.839C139.602 192.035 140.52 193.493 142.392 193.493C144.318 193.493 145.2 192.035 145.2 189.839C145.2 187.643 144.318 186.185 142.392 186.185C140.52 186.185 139.602 187.643 139.602 189.839Z" fill="#680DC5"/>
<path d="M132.466 194.375V189.065C130.558 186.527 129.208 184.367 128.146 181.775H129.514C130.414 183.971 131.458 185.699 133.132 187.985C134.788 185.717 135.814 183.971 136.714 181.775H138.082C136.984 184.367 135.67 186.545 133.762 189.029V194.375H132.466Z" fill="#680DC5"/>
<path d="M121.703 192.719H122.927C122.873 194.267 122.315 195.905 121.739 197.021H120.947C121.397 195.581 121.613 194.123 121.703 192.719Z" fill="#680DC5"/>
<path d="M118.876 191.549L119.344 193.979C118.588 194.321 117.364 194.591 116.14 194.591C113.206 194.591 111.172 192.665 111.172 189.731C111.172 186.815 113.098 184.889 115.78 184.889C118.102 184.889 119.794 186.545 119.794 189.065C119.794 189.659 119.758 190.199 119.722 190.559H114.412C114.664 191.585 115.33 192.035 116.482 192.035C117.328 192.035 118.138 191.837 118.876 191.549ZM115.78 187.319C115.024 187.319 114.502 187.823 114.34 188.759H116.878V188.615C116.878 187.769 116.41 187.319 115.78 187.319Z" fill="#680DC5"/>
<path d="M110.09 189.731C110.09 192.665 108.29 194.591 105.428 194.591C102.566 194.591 100.748 192.665 100.748 189.731C100.748 186.815 102.566 184.889 105.428 184.889C108.29 184.889 110.09 186.815 110.09 189.731ZM103.862 189.731C103.862 191.207 104.456 192.071 105.428 192.071C106.4 192.071 106.976 191.207 106.976 189.731C106.976 188.273 106.4 187.409 105.428 187.409C104.456 187.409 103.862 188.273 103.862 189.731Z" fill="#680DC5"/>
<path d="M99.3008 184.151C98.0048 187.085 96.3848 189.407 94.4768 191.675H99.7508V194.375H90.6248V191.945C92.4788 189.821 94.5848 187.229 95.9708 184.475H90.8228V181.775H99.3008V184.151Z" fill="#680DC5"/>
<path d="M72.6609 189.191V188.093H89.3289V189.191H72.6609Z" fill="#680DC5"/>
<defs>
<clipPath id="clip0_57_140">
<rect width="451.873" height="264.416" fill="white"/>
</clipPath>
</defs>
</svg>
