<svg width="452" height="265" viewBox="0 0 452 265" fill="none" xmlns="http://www.w3.org/2000/svg">
<g clip-path="url(#clip0_59_339)">
<path d="M410.721 47.645L418.3 0L366.222 37.786L77.462 26.562C31.756 24.785 -3.72195 58.658 0.313049 98.7L10.667 201.4C14.613 240.548 57.439 269.909 101.567 263.545L380.21 223.357C421.259 217.437 451.872 187.819 451.872 152.965V108.3C451.872 82.37 435.525 59.858 410.721 47.648" fill="white"/>
<path d="M56.78 84.499H53.48C53.505 81.949 54.98 79.399 56.205 77.824H58.055C57.23 80.099 56.805 82.424 56.78 84.499ZM51.705 84.499H48.405C48.43 81.949 49.88 79.399 51.105 77.824H52.98C52.13 80.099 51.73 82.424 51.705 84.499ZM64.7302 95.824V88.824C62.2552 85.274 60.1802 81.899 58.9302 78.324H62.6052C63.5302 80.774 64.5802 82.924 66.5302 85.924C68.4802 82.949 69.5052 80.774 70.4302 78.324H74.1052C72.8052 81.924 70.7302 85.349 68.3052 88.824V95.824H64.7302ZM85.8288 89.424C85.8288 93.449 83.4788 96.124 79.6038 96.124C75.7538 96.124 73.3538 93.449 73.3538 89.424C73.3538 85.424 75.7538 82.749 79.6038 82.749C83.4788 82.749 85.8288 85.424 85.8288 89.424ZM76.8788 89.424C76.8788 91.799 77.8538 93.274 79.6038 93.274C81.3788 93.274 82.3038 91.799 82.3038 89.424C82.3038 87.074 81.3788 85.599 79.6038 85.599C77.8538 85.599 76.8788 87.074 76.8788 89.424ZM99.6337 95.024C98.6587 95.424 96.3087 96.124 93.9337 96.124C89.7087 96.124 88.3087 93.974 88.3087 90.774V83.049H91.7337V90.774C91.7337 92.349 92.4337 93.274 94.0087 93.274C94.8337 93.274 95.5587 93.124 96.1837 92.824V83.049H99.6337V95.024ZM119.919 95.099C118.694 95.674 116.794 96.124 114.944 96.124C110.694 96.124 108.144 93.624 108.144 89.649C108.144 85.474 110.844 82.749 114.944 82.749C115.469 82.749 116.019 82.824 116.494 82.924V77.899L119.919 77.724V95.099ZM111.669 89.499C111.669 91.974 112.919 93.274 114.919 93.274C115.569 93.274 116.119 93.149 116.494 92.949V85.849C116.044 85.699 115.569 85.599 115.144 85.599C112.894 85.599 111.669 86.924 111.669 89.499ZM133.148 92.499L133.698 95.274C132.598 95.774 130.973 96.124 129.323 96.124C125.298 96.124 122.548 93.574 122.548 89.424C122.548 85.449 125.073 82.749 128.748 82.749C132.023 82.749 134.173 85.074 134.173 88.424C134.173 89.174 134.123 89.824 134.073 90.324H126.173C126.498 92.324 127.673 93.224 129.673 93.224C130.898 93.224 132.073 92.949 133.148 92.499ZM128.748 85.499C127.298 85.499 126.348 86.524 126.123 88.224H130.873V87.924C130.873 86.524 130.123 85.499 128.748 85.499ZM144.949 83.474L144.574 86.274C143.424 85.924 142.299 85.599 141.099 85.599C140.049 85.599 139.349 85.899 139.349 86.624C139.349 87.374 139.924 87.599 141.424 88.024C144.324 88.824 145.674 89.799 145.674 92.099C145.674 94.799 143.474 96.124 140.424 96.124C138.824 96.124 137.049 95.799 135.899 95.299L136.374 92.474C137.474 92.899 138.874 93.274 140.349 93.274C141.499 93.274 142.299 92.874 142.299 92.174C142.299 91.349 141.674 91.124 139.624 90.549C137.324 89.949 135.949 88.874 135.949 86.699C135.949 84.149 137.774 82.749 140.824 82.749C142.249 82.749 143.874 83.049 144.949 83.474ZM157.684 92.499L158.234 95.274C157.134 95.774 155.509 96.124 153.859 96.124C149.834 96.124 147.084 93.574 147.084 89.424C147.084 85.449 149.609 82.749 153.284 82.749C156.559 82.749 158.709 85.074 158.709 88.424C158.709 89.174 158.659 89.824 158.609 90.324H150.709C151.034 92.324 152.209 93.224 154.209 93.224C155.434 93.224 156.609 92.949 157.684 92.499ZM153.284 85.499C151.834 85.499 150.884 86.524 150.659 88.224H155.409V87.924C155.409 86.524 154.659 85.499 153.284 85.499ZM161.335 83.849C162.685 83.174 164.785 82.749 166.585 82.749C167.485 82.749 168.335 82.849 168.835 82.974L168.335 85.799C167.91 85.649 167.385 85.599 166.86 85.599C165.935 85.599 165.31 85.774 164.785 86.024V95.824H161.335V83.849ZM173.257 83.049C173.532 87.324 174.457 90.224 175.882 93.049C177.357 90.224 178.307 87.324 178.532 83.049H181.982C181.482 88.074 180.407 91.299 177.807 95.824H173.982C171.282 91.299 170.157 88.074 169.782 83.049H173.257ZM193.939 92.499L194.489 95.274C193.389 95.774 191.764 96.124 190.114 96.124C186.089 96.124 183.339 93.574 183.339 89.424C183.339 85.449 185.864 82.749 189.539 82.749C192.814 82.749 194.964 85.074 194.964 88.424C194.964 89.174 194.914 89.824 194.864 90.324H186.964C187.289 92.324 188.464 93.224 190.464 93.224C191.689 93.224 192.864 92.949 193.939 92.499ZM189.539 85.499C188.089 85.499 187.139 86.524 186.914 88.224H191.664V87.924C191.664 86.524 190.914 85.499 189.539 85.499ZM208.172 93.649C208.922 93.649 209.547 93.499 209.922 93.299V90.624C209.347 90.499 208.747 90.424 208.147 90.424C206.997 90.424 206.097 90.874 206.097 92.049C206.097 93.099 206.847 93.649 208.172 93.649ZM213.272 95.024C212.247 95.549 210.322 96.124 207.822 96.124C204.397 96.124 202.672 94.449 202.672 92.199C202.672 89.724 204.697 88.274 207.697 88.249C208.397 88.249 209.297 88.349 209.922 88.449V87.849C209.922 86.324 209.047 85.599 207.372 85.599C206.272 85.599 205.097 85.774 204.072 86.199L203.447 83.499C204.522 83.049 206.247 82.749 207.772 82.749C211.447 82.749 213.272 84.699 213.272 88.074V95.024ZM227.995 82.749C229.42 82.749 230.845 83.074 231.77 83.499L231.12 86.224C230.17 85.824 229.145 85.599 228.295 85.599C226.27 85.599 225.17 87.024 225.17 89.374C225.17 91.949 226.32 93.274 228.47 93.274C229.295 93.274 230.295 93.049 231.245 92.624L231.795 95.399C230.945 95.824 229.645 96.124 228.195 96.124C224.045 96.124 221.645 93.549 221.645 89.474C221.645 85.424 224.02 82.749 227.995 82.749ZM245.619 89.424C245.619 93.449 243.269 96.124 239.394 96.124C235.544 96.124 233.144 93.449 233.144 89.424C233.144 85.424 235.544 82.749 239.394 82.749C243.269 82.749 245.619 85.424 245.619 89.424ZM236.669 89.424C236.669 91.799 237.644 93.274 239.394 93.274C241.169 93.274 242.094 91.799 242.094 89.424C242.094 87.074 241.169 85.599 239.394 85.599C237.644 85.599 236.669 87.074 236.669 89.424ZM266.974 95.824H263.549V88.124C263.549 86.449 262.874 85.599 261.299 85.599C260.449 85.599 259.599 85.849 258.974 86.199C259.174 86.874 259.274 87.674 259.274 88.549V95.824H255.924V88.124C255.924 86.449 255.274 85.599 253.674 85.599C252.974 85.599 252.299 85.749 251.649 86.049V95.824H248.224V83.849C249.824 83.149 251.899 82.749 253.849 82.749C255.299 82.749 256.499 83.099 257.374 83.774C258.424 83.249 259.924 82.749 261.449 82.749C264.999 82.749 266.974 84.599 266.974 87.874V95.824ZM268.973 83.049H270.673V82.524C270.673 79.499 272.198 77.499 275.198 77.499C276.198 77.499 277.023 77.649 277.748 77.824L277.198 80.524C276.798 80.449 276.273 80.374 275.848 80.374C274.573 80.374 274.123 81.199 274.123 82.449V83.049H277.048V85.799H274.123V95.824H270.673V85.799H268.973V83.049ZM286.575 94.724C284.475 98.399 282 100.049 279.375 100.474L278.825 97.549C280.3 97.324 282.075 96.374 282.85 95.074C280.125 91.349 278.725 87.924 278.35 83.049H281.825C282 87.324 283.225 90.074 284.65 92.449C285.925 89.724 286.575 87.324 286.775 83.049H290.2C289.875 87.524 288.4 91.499 286.575 94.724ZM301.748 95.824H298.298V77.874L301.748 77.699V83.249C302.423 82.924 303.223 82.749 304.323 82.749C307.548 82.749 309.698 84.549 309.698 87.874V95.824H306.248V88.149C306.248 86.424 305.373 85.624 303.773 85.624C303.073 85.624 302.323 85.824 301.748 86.099V95.824ZM324.647 89.424C324.647 93.449 322.297 96.124 318.422 96.124C314.572 96.124 312.172 93.449 312.172 89.424C312.172 85.424 314.572 82.749 318.422 82.749C322.297 82.749 324.647 85.424 324.647 89.424ZM315.697 89.424C315.697 91.799 316.672 93.274 318.422 93.274C320.197 93.274 321.122 91.799 321.122 89.424C321.122 87.074 320.197 85.599 318.422 85.599C316.672 85.599 315.697 87.074 315.697 89.424ZM346.002 95.824H342.577V88.124C342.577 86.449 341.902 85.599 340.327 85.599C339.477 85.599 338.627 85.849 338.002 86.199C338.202 86.874 338.302 87.674 338.302 88.549V95.824H334.952V88.124C334.952 86.449 334.302 85.599 332.702 85.599C332.002 85.599 331.327 85.749 330.677 86.049V95.824H327.252V83.849C328.852 83.149 330.927 82.749 332.877 82.749C334.327 82.749 335.527 83.099 336.402 83.774C337.452 83.249 338.952 82.749 340.477 82.749C344.027 82.749 346.002 84.599 346.002 87.874V95.824ZM359.076 92.499L359.626 95.274C358.526 95.774 356.901 96.124 355.251 96.124C351.226 96.124 348.476 93.574 348.476 89.424C348.476 85.449 351.001 82.749 354.676 82.749C357.951 82.749 360.101 85.074 360.101 88.424C360.101 89.174 360.051 89.824 360.001 90.324H352.101C352.426 92.324 353.601 93.224 355.601 93.224C356.826 93.224 358.001 92.949 359.076 92.499ZM354.676 85.499C353.226 85.499 352.276 86.524 352.051 88.224H356.801V87.924C356.801 86.524 356.051 85.499 354.676 85.499ZM364.276 96.099C362.976 96.099 362.276 95.349 362.276 94.149C362.276 92.999 362.976 92.249 364.276 92.249C365.551 92.249 366.251 92.999 366.251 94.149C366.251 95.349 365.551 96.099 364.276 96.099Z" fill="#6E06C1"/>
<path d="M64.2 126V111.55H59.55V108.5H72.425V111.55H67.775V126H64.2ZM78.1143 126H74.6643V108.05L78.1143 107.875V113.425C78.7893 113.1 79.5893 112.925 80.6893 112.925C83.9143 112.925 86.0643 114.725 86.0643 118.05V126H82.6143V118.325C82.6143 116.6 81.7393 115.8 80.1393 115.8C79.4393 115.8 78.6893 116 78.1143 116.275V126ZM93.9139 123.825C94.6639 123.825 95.2889 123.675 95.6639 123.475V120.8C95.0889 120.675 94.4889 120.6 93.8889 120.6C92.7389 120.6 91.8389 121.05 91.8389 122.225C91.8389 123.275 92.5889 123.825 93.9139 123.825ZM99.0139 125.2C97.9889 125.725 96.0639 126.3 93.5639 126.3C90.1389 126.3 88.4139 124.625 88.4139 122.375C88.4139 119.9 90.4389 118.45 93.4389 118.425C94.1389 118.425 95.0389 118.525 95.6639 118.625V118.025C95.6639 116.5 94.7889 115.775 93.1139 115.775C92.0139 115.775 90.8389 115.95 89.8139 116.375L89.1889 113.675C90.2639 113.225 91.9889 112.925 93.5139 112.925C97.1889 112.925 99.0139 114.875 99.0139 118.25V125.2ZM109.229 126.075C108.629 126.225 107.829 126.3 107.054 126.3C104.079 126.3 102.554 124.675 102.554 121.375V115.975H100.854V113.225H102.554V110.45L106.004 110.275V113.225H108.779V115.975H106.004V121.325C106.004 122.775 106.604 123.45 107.729 123.45C108.254 123.45 108.729 123.375 109.054 123.3L109.229 126.075ZM111.759 108H115.059C115.034 110.55 113.559 113.1 112.334 114.675H110.484C111.309 112.4 111.709 110.075 111.759 108ZM125.099 113.65L124.724 116.45C123.574 116.1 122.449 115.775 121.249 115.775C120.199 115.775 119.499 116.075 119.499 116.8C119.499 117.55 120.074 117.775 121.574 118.2C124.474 119 125.824 119.975 125.824 122.275C125.824 124.975 123.624 126.3 120.574 126.3C118.974 126.3 117.199 125.975 116.049 125.475L116.524 122.65C117.624 123.075 119.024 123.45 120.499 123.45C121.649 123.45 122.449 123.05 122.449 122.35C122.449 121.525 121.824 121.3 119.774 120.725C117.474 120.125 116.099 119.05 116.099 116.875C116.099 114.325 117.924 112.925 120.974 112.925C122.399 112.925 124.024 113.225 125.099 113.65ZM143.668 113.225C143.943 117.5 144.743 120.5 145.918 123.325C147.293 120.5 148.118 117.5 148.293 113.225H151.718C151.243 118.25 150.318 121.475 147.793 126H144.343C143.443 124.25 142.718 122.7 142.143 121.175C141.643 122.75 140.968 124.425 140.118 126H136.793C134.018 121.475 133.268 118.25 132.868 113.225H136.268C136.518 117.5 137.343 120.5 138.643 123.325C139.768 121.175 140.518 118.3 140.768 116.025C140.643 115.15 140.543 114.225 140.468 113.225H143.668ZM157.484 126H154.034V108.05L157.484 107.875V113.425C158.159 113.1 158.959 112.925 160.059 112.925C163.284 112.925 165.434 114.725 165.434 118.05V126H161.984V118.325C161.984 116.6 161.109 115.8 159.509 115.8C158.809 115.8 158.059 116 157.484 116.275V126ZM175.539 124.9C173.439 128.575 170.964 130.225 168.339 130.65L167.789 127.725C169.264 127.5 171.039 126.55 171.814 125.25C169.089 121.525 167.689 118.1 167.314 113.225H170.789C170.964 117.5 172.189 120.25 173.614 122.625C174.889 119.9 175.539 117.5 175.739 113.225H179.164C178.839 117.7 177.364 121.675 175.539 124.9ZM197.037 113.225C197.312 117.5 198.112 120.5 199.287 123.325C200.662 120.5 201.487 117.5 201.662 113.225H205.087C204.612 118.25 203.687 121.475 201.162 126H197.712C196.812 124.25 196.087 122.7 195.512 121.175C195.012 122.75 194.337 124.425 193.487 126H190.162C187.387 121.475 186.637 118.25 186.237 113.225H189.637C189.887 117.5 190.712 120.5 192.012 123.325C193.137 121.175 193.887 118.3 194.137 116.025C194.012 115.15 193.912 114.225 193.837 113.225H197.037ZM217.034 122.675L217.584 125.45C216.484 125.95 214.859 126.3 213.209 126.3C209.184 126.3 206.434 123.75 206.434 119.6C206.434 115.625 208.959 112.925 212.634 112.925C215.909 112.925 218.059 115.25 218.059 118.6C218.059 119.35 218.009 120 217.959 120.5H210.059C210.384 122.5 211.559 123.4 213.559 123.4C214.784 123.4 215.959 123.125 217.034 122.675ZM212.634 115.675C211.184 115.675 210.234 116.7 210.009 118.4H214.759V118.1C214.759 116.7 214.009 115.675 212.634 115.675ZM238.367 119.6C238.367 123.625 236.017 126.3 232.142 126.3C228.292 126.3 225.892 123.625 225.892 119.6C225.892 115.6 228.292 112.925 232.142 112.925C236.017 112.925 238.367 115.6 238.367 119.6ZM229.417 119.6C229.417 121.975 230.392 123.45 232.142 123.45C233.917 123.45 234.842 121.975 234.842 119.6C234.842 117.25 233.917 115.775 232.142 115.775C230.392 115.775 229.417 117.25 229.417 119.6ZM239.797 113.225H241.497V112.7C241.497 109.675 243.022 107.675 246.022 107.675C247.022 107.675 247.847 107.825 248.572 108L248.022 110.7C247.622 110.625 247.097 110.55 246.672 110.55C245.397 110.55 244.947 111.375 244.947 112.625V113.225H247.872V115.975H244.947V126H241.497V115.975H239.797V113.225ZM248.489 113.225H250.189V112.7C250.189 109.675 251.714 107.675 254.714 107.675C255.714 107.675 256.539 107.825 257.264 108L256.714 110.7C256.314 110.625 255.789 110.55 255.364 110.55C254.089 110.55 253.639 111.375 253.639 112.625V113.225H256.564V115.975H253.639V126H250.189V115.975H248.489V113.225ZM268.255 122.675L268.805 125.45C267.705 125.95 266.08 126.3 264.43 126.3C260.405 126.3 257.655 123.75 257.655 119.6C257.655 115.625 260.18 112.925 263.855 112.925C267.13 112.925 269.28 115.25 269.28 118.6C269.28 119.35 269.23 120 269.18 120.5H261.28C261.605 122.5 262.78 123.4 264.78 123.4C266.005 123.4 267.18 123.125 268.255 122.675ZM263.855 115.675C262.405 115.675 261.455 116.7 261.23 118.4H265.98V118.1C265.98 116.7 265.23 115.675 263.855 115.675ZM271.905 114.025C273.255 113.35 275.355 112.925 277.155 112.925C278.055 112.925 278.905 113.025 279.405 113.15L278.905 115.975C278.48 115.825 277.955 115.775 277.43 115.775C276.505 115.775 275.88 115.95 275.355 116.2V126H271.905V114.025ZM295.461 113.65L295.086 116.45C293.936 116.1 292.811 115.775 291.611 115.775C290.561 115.775 289.861 116.075 289.861 116.8C289.861 117.55 290.436 117.775 291.936 118.2C294.836 119 296.186 119.975 296.186 122.275C296.186 124.975 293.986 126.3 290.936 126.3C289.336 126.3 287.561 125.975 286.411 125.475L286.886 122.65C287.986 123.075 289.386 123.45 290.861 123.45C292.011 123.45 292.811 123.05 292.811 122.35C292.811 121.525 292.186 121.3 290.136 120.725C287.836 120.125 286.461 119.05 286.461 116.875C286.461 114.325 288.286 112.925 291.336 112.925C292.761 112.925 294.386 113.225 295.461 113.65ZM310.071 119.6C310.071 123.625 307.721 126.3 303.846 126.3C299.996 126.3 297.596 123.625 297.596 119.6C297.596 115.6 299.996 112.925 303.846 112.925C307.721 112.925 310.071 115.6 310.071 119.6ZM301.121 119.6C301.121 121.975 302.096 123.45 303.846 123.45C305.621 123.45 306.546 121.975 306.546 119.6C306.546 117.25 305.621 115.775 303.846 115.775C302.096 115.775 301.121 117.25 301.121 119.6ZM316.026 107.875V121.375C316.026 122.725 316.376 123.45 317.376 123.45C317.626 123.45 317.876 123.425 318.101 123.375L318.351 126.1C317.876 126.2 317.101 126.3 316.601 126.3C313.726 126.3 312.576 124.425 312.576 121.425V108.075L316.026 107.875ZM331.396 125.2C330.421 125.6 328.071 126.3 325.696 126.3C321.471 126.3 320.071 124.15 320.071 120.95V113.225H323.496V120.95C323.496 122.525 324.196 123.45 325.771 123.45C326.596 123.45 327.321 123.3 327.946 123V113.225H331.396V125.2ZM341.748 126.075C341.148 126.225 340.348 126.3 339.573 126.3C336.598 126.3 335.073 124.675 335.073 121.375V115.975H333.373V113.225H335.073V110.45L338.523 110.275V113.225H341.298V115.975H338.523V121.325C338.523 122.775 339.123 123.45 340.248 123.45C340.773 123.45 341.248 123.375 341.573 123.3L341.748 126.075ZM347.328 113.225V126H343.878V113.225H347.328ZM345.603 111.525C344.328 111.525 343.603 110.75 343.603 109.6C343.603 108.45 344.328 107.675 345.603 107.675C346.853 107.675 347.578 108.45 347.578 109.6C347.578 110.75 346.853 111.525 345.603 111.525ZM362.44 119.6C362.44 123.625 360.09 126.3 356.215 126.3C352.365 126.3 349.965 123.625 349.965 119.6C349.965 115.6 352.365 112.925 356.215 112.925C360.09 112.925 362.44 115.6 362.44 119.6ZM353.49 119.6C353.49 121.975 354.465 123.45 356.215 123.45C357.99 123.45 358.915 121.975 358.915 119.6C358.915 117.25 357.99 115.775 356.215 115.775C354.465 115.775 353.49 117.25 353.49 119.6ZM368.47 126H365.045V114.025C366.62 113.35 368.77 112.925 370.695 112.925C374.345 112.925 376.445 114.725 376.445 118.05V126H372.995V118.3C372.995 116.575 372.195 115.775 370.67 115.775C369.87 115.775 369.12 115.925 368.47 116.225V126ZM387.77 113.65L387.395 116.45C386.245 116.1 385.12 115.775 383.92 115.775C382.87 115.775 382.17 116.075 382.17 116.8C382.17 117.55 382.745 117.775 384.245 118.2C387.145 119 388.495 119.975 388.495 122.275C388.495 124.975 386.295 126.3 383.245 126.3C381.645 126.3 379.87 125.975 378.72 125.475L379.195 122.65C380.295 123.075 381.695 123.45 383.17 123.45C384.32 123.45 385.12 123.05 385.12 122.35C385.12 121.525 384.495 121.3 382.445 120.725C380.145 120.125 378.77 119.05 378.77 116.875C378.77 114.325 380.595 112.925 383.645 112.925C385.07 112.925 386.695 113.225 387.77 113.65Z" fill="#6E06C1"/>
<path d="M67.725 156.075C67.125 156.225 66.325 156.3 65.55 156.3C62.575 156.3 61.05 154.675 61.05 151.375V145.975H59.35V143.225H61.05V140.45L64.5 140.275V143.225H67.275V145.975H64.5V151.325C64.5 152.775 65.1 153.45 66.225 153.45C66.75 153.45 67.225 153.375 67.55 153.3L67.725 156.075ZM81.4582 149.6C81.4582 153.625 79.1082 156.3 75.2332 156.3C71.3832 156.3 68.9832 153.625 68.9832 149.6C68.9832 145.6 71.3832 142.925 75.2332 142.925C79.1082 142.925 81.4582 145.6 81.4582 149.6ZM72.5082 149.6C72.5082 151.975 73.4832 153.45 75.2332 153.45C77.0082 153.45 77.9332 151.975 77.9332 149.6C77.9332 147.25 77.0082 145.775 75.2332 145.775C73.4832 145.775 72.5082 147.25 72.5082 149.6ZM93.4707 156H90.0207V138.05L93.4707 137.875V143.425C94.1457 143.1 94.9457 142.925 96.0457 142.925C99.2707 142.925 101.421 144.725 101.421 148.05V156H97.9707V148.325C97.9707 146.6 97.0957 145.8 95.4957 145.8C94.7957 145.8 94.0457 146 93.4707 146.275V156ZM114.495 152.675L115.045 155.45C113.945 155.95 112.32 156.3 110.67 156.3C106.645 156.3 103.895 153.75 103.895 149.6C103.895 145.625 106.42 142.925 110.095 142.925C113.37 142.925 115.52 145.25 115.52 148.6C115.52 149.35 115.47 150 115.42 150.5H107.52C107.845 152.5 109.02 153.4 111.02 153.4C112.245 153.4 113.42 153.125 114.495 152.675ZM110.095 145.675C108.645 145.675 107.695 146.7 107.47 148.4H112.22V148.1C112.22 146.7 111.47 145.675 110.095 145.675ZM121.471 137.875V151.375C121.471 152.725 121.821 153.45 122.821 153.45C123.071 153.45 123.321 153.425 123.546 153.375L123.796 156.1C123.321 156.2 122.546 156.3 122.046 156.3C119.171 156.3 118.021 154.425 118.021 151.425V138.075L121.471 137.875ZM137.586 149.425C137.586 153.525 135.261 156.25 131.361 156.25C130.486 156.25 129.886 156.15 129.261 155.925V160.675H125.836V144C127.261 143.35 129.261 142.925 131.036 142.925C135.136 142.925 137.586 145.425 137.586 149.425ZM129.261 153.1C129.736 153.3 130.136 153.45 130.861 153.45C133.061 153.45 134.086 152.1 134.086 149.525C134.086 147.275 133.136 145.775 130.861 145.775C130.236 145.775 129.786 145.9 129.261 146.1V153.1ZM157.198 155.2C157.198 158.725 154.773 160.75 150.873 160.75C148.973 160.75 147.848 160.525 146.498 159.975L147.223 157.25C148.273 157.675 149.423 157.875 150.673 157.875C152.598 157.875 153.773 157.075 153.773 155.55V154.975C152.998 155.275 152.198 155.425 151.423 155.425C147.723 155.425 145.448 153.25 145.448 149.475C145.448 145.45 148.173 142.925 152.198 142.925C154.173 142.925 156.073 143.425 157.198 143.925V155.2ZM148.973 149.175C148.973 151.25 150.048 152.55 151.973 152.55C152.673 152.55 153.248 152.375 153.773 152.125V146.05C153.298 145.9 152.748 145.775 152.198 145.775C150.148 145.775 148.973 147.125 148.973 149.175ZM160.529 144.025C161.879 143.35 163.979 142.925 165.779 142.925C166.679 142.925 167.529 143.025 168.029 143.15L167.529 145.975C167.104 145.825 166.579 145.775 166.054 145.775C165.129 145.775 164.504 145.95 163.979 146.2V156H160.529V144.025ZM181.434 149.6C181.434 153.625 179.084 156.3 175.209 156.3C171.359 156.3 168.959 153.625 168.959 149.6C168.959 145.6 171.359 142.925 175.209 142.925C179.084 142.925 181.434 145.6 181.434 149.6ZM172.484 149.6C172.484 151.975 173.459 153.45 175.209 153.45C176.984 153.45 177.909 151.975 177.909 149.6C177.909 147.25 176.984 145.775 175.209 145.775C173.459 145.775 172.484 147.25 172.484 149.6ZM195.239 155.2C194.264 155.6 191.914 156.3 189.539 156.3C185.314 156.3 183.914 154.15 183.914 150.95V143.225H187.339V150.95C187.339 152.525 188.039 153.45 189.614 153.45C190.439 153.45 191.164 153.3 191.789 153V143.225H195.239V155.2ZM201.941 156H198.516V144.025C200.091 143.35 202.241 142.925 204.166 142.925C207.816 142.925 209.916 144.725 209.916 148.05V156H206.466V148.3C206.466 146.575 205.666 145.775 204.141 145.775C203.341 145.775 202.591 145.925 201.941 146.225V156ZM224.142 155.275C222.917 155.85 221.017 156.3 219.167 156.3C214.917 156.3 212.367 153.8 212.367 149.825C212.367 145.65 215.067 142.925 219.167 142.925C219.692 142.925 220.242 143 220.717 143.1V138.075L224.142 137.9V155.275ZM215.892 149.675C215.892 152.15 217.142 153.45 219.142 153.45C219.792 153.45 220.342 153.325 220.717 153.125V146.025C220.267 145.875 219.792 145.775 219.367 145.775C217.117 145.775 215.892 147.1 215.892 149.675ZM240.479 156.075C239.879 156.225 239.079 156.3 238.304 156.3C235.329 156.3 233.804 154.675 233.804 151.375V145.975H232.104V143.225H233.804V140.45L237.254 140.275V143.225H240.029V145.975H237.254V151.325C237.254 152.775 237.854 153.45 238.979 153.45C239.504 153.45 239.979 153.375 240.304 153.3L240.479 156.075ZM246.059 156H242.609V138.05L246.059 137.875V143.425C246.734 143.1 247.534 142.925 248.634 142.925C251.859 142.925 254.009 144.725 254.009 148.05V156H250.559V148.325C250.559 146.6 249.684 145.8 248.084 145.8C247.384 145.8 246.634 146 246.059 146.275V156ZM268.958 149.6C268.958 153.625 266.608 156.3 262.733 156.3C258.883 156.3 256.483 153.625 256.483 149.6C256.483 145.6 258.883 142.925 262.733 142.925C266.608 142.925 268.958 145.6 268.958 149.6ZM260.008 149.6C260.008 151.975 260.983 153.45 262.733 153.45C264.508 153.45 265.433 151.975 265.433 149.6C265.433 147.25 264.508 145.775 262.733 145.775C260.983 145.775 260.008 147.25 260.008 149.6ZM279.738 143.65L279.363 146.45C278.213 146.1 277.088 145.775 275.888 145.775C274.838 145.775 274.138 146.075 274.138 146.8C274.138 147.55 274.713 147.775 276.213 148.2C279.113 149 280.463 149.975 280.463 152.275C280.463 154.975 278.263 156.3 275.213 156.3C273.613 156.3 271.838 155.975 270.688 155.475L271.163 152.65C272.263 153.075 273.663 153.45 275.138 153.45C276.288 153.45 277.088 153.05 277.088 152.35C277.088 151.525 276.463 151.3 274.413 150.725C272.113 150.125 270.738 149.05 270.738 146.875C270.738 144.325 272.563 142.925 275.613 142.925C277.038 142.925 278.663 143.225 279.738 143.65ZM292.474 152.675L293.024 155.45C291.924 155.95 290.299 156.3 288.649 156.3C284.624 156.3 281.874 153.75 281.874 149.6C281.874 145.625 284.399 142.925 288.074 142.925C291.349 142.925 293.499 145.25 293.499 148.6C293.499 149.35 293.449 150 293.399 150.5H285.499C285.824 152.5 286.999 153.4 288.999 153.4C290.224 153.4 291.399 153.125 292.474 152.675ZM288.074 145.675C286.624 145.675 285.674 146.7 285.449 148.4H290.199V148.1C290.199 146.7 289.449 145.675 288.074 145.675ZM307.682 142.925C309.107 142.925 310.532 143.25 311.457 143.675L310.807 146.4C309.857 146 308.832 145.775 307.982 145.775C305.957 145.775 304.857 147.2 304.857 149.55C304.857 152.125 306.007 153.45 308.157 153.45C308.982 153.45 309.982 153.225 310.932 152.8L311.482 155.575C310.632 156 309.332 156.3 307.882 156.3C303.732 156.3 301.332 153.725 301.332 149.65C301.332 145.6 303.707 142.925 307.682 142.925ZM325.306 149.6C325.306 153.625 322.956 156.3 319.081 156.3C315.231 156.3 312.831 153.625 312.831 149.6C312.831 145.6 315.231 142.925 319.081 142.925C322.956 142.925 325.306 145.6 325.306 149.6ZM316.356 149.6C316.356 151.975 317.331 153.45 319.081 153.45C320.856 153.45 321.781 151.975 321.781 149.6C321.781 147.25 320.856 145.775 319.081 145.775C317.331 145.775 316.356 147.25 316.356 149.6ZM336.086 143.65L335.711 146.45C334.561 146.1 333.436 145.775 332.236 145.775C331.186 145.775 330.486 146.075 330.486 146.8C330.486 147.55 331.061 147.775 332.561 148.2C335.461 149 336.811 149.975 336.811 152.275C336.811 154.975 334.611 156.3 331.561 156.3C329.961 156.3 328.186 155.975 327.036 155.475L327.511 152.65C328.611 153.075 330.011 153.45 331.486 153.45C332.636 153.45 333.436 153.05 333.436 152.35C333.436 151.525 332.811 151.3 330.761 150.725C328.461 150.125 327.086 149.05 327.086 146.875C327.086 144.325 328.911 142.925 331.961 142.925C333.386 142.925 335.011 143.225 336.086 143.65ZM345.996 156.075C345.396 156.225 344.596 156.3 343.821 156.3C340.846 156.3 339.321 154.675 339.321 151.375V145.975H337.621V143.225H339.321V140.45L342.771 140.275V143.225H345.546V145.975H342.771V151.325C342.771 152.775 343.371 153.45 344.496 153.45C345.021 153.45 345.496 153.375 345.821 153.3L345.996 156.075ZM356.276 143.65L355.901 146.45C354.751 146.1 353.626 145.775 352.426 145.775C351.376 145.775 350.676 146.075 350.676 146.8C350.676 147.55 351.251 147.775 352.751 148.2C355.651 149 357.001 149.975 357.001 152.275C357.001 154.975 354.801 156.3 351.751 156.3C350.151 156.3 348.376 155.975 347.226 155.475L347.701 152.65C348.801 153.075 350.201 153.45 351.676 153.45C352.826 153.45 353.626 153.05 353.626 152.35C353.626 151.525 353.001 151.3 350.951 150.725C348.651 150.125 347.276 149.05 347.276 146.875C347.276 144.325 349.101 142.925 352.151 142.925C353.576 142.925 355.201 143.225 356.276 143.65ZM360.687 156.275C359.387 156.275 358.687 155.525 358.687 154.325C358.687 153.175 359.387 152.425 360.687 152.425C361.962 152.425 362.662 153.175 362.662 154.325C362.662 155.525 361.962 156.275 360.687 156.275ZM365.958 138H369.258C369.233 140.55 367.758 143.1 366.533 144.675H364.683C365.508 142.4 365.908 140.075 365.958 138ZM371.033 138H374.333C374.308 140.55 372.833 143.1 371.608 144.675H369.758C370.608 142.4 371.008 140.075 371.033 138Z" fill="#6E06C1"/>
<path d="M59.366 199.69V198.592H76.034V199.69H59.366ZM86.006 194.65C84.71 197.584 83.09 199.906 81.182 202.174H86.456V204.874H77.33V202.444C79.184 200.32 81.29 197.728 82.676 194.974H77.528V192.274H86.006V194.65ZM96.7948 200.23C96.7948 203.164 94.9948 205.09 92.1328 205.09C89.2708 205.09 87.4528 203.164 87.4528 200.23C87.4528 197.314 89.2708 195.388 92.1328 195.388C94.9948 195.388 96.7948 197.314 96.7948 200.23ZM90.5668 200.23C90.5668 201.706 91.1608 202.57 92.1328 202.57C93.1048 202.57 93.6808 201.706 93.6808 200.23C93.6808 198.772 93.1048 197.908 92.1328 197.908C91.1608 197.908 90.5668 198.772 90.5668 200.23ZM105.581 202.048L106.049 204.478C105.293 204.82 104.069 205.09 102.845 205.09C99.9107 205.09 97.8767 203.164 97.8767 200.23C97.8767 197.314 99.8027 195.388 102.485 195.388C104.807 195.388 106.499 197.044 106.499 199.564C106.499 200.158 106.463 200.698 106.427 201.058H101.117C101.369 202.084 102.035 202.534 103.187 202.534C104.033 202.534 104.843 202.336 105.581 202.048ZM102.485 197.818C101.729 197.818 101.207 198.322 101.045 199.258H103.583V199.114C103.583 198.268 103.115 197.818 102.485 197.818ZM108.408 203.218H109.632C109.578 204.766 109.02 206.404 108.444 207.52H107.652C108.102 206.08 108.318 204.622 108.408 203.218ZM119.171 204.874V199.564C117.263 197.026 115.913 194.866 114.851 192.274H116.219C117.119 194.47 118.163 196.198 119.837 198.484C121.493 196.216 122.519 194.47 123.419 192.274H124.787C123.689 194.866 122.375 197.044 120.467 199.528V204.874H119.171ZM133.201 200.338C133.201 203.164 131.725 205.09 129.097 205.09C126.505 205.09 125.011 203.164 125.011 200.338C125.011 197.512 126.505 195.586 129.097 195.586C131.725 195.586 133.201 197.512 133.201 200.338ZM126.307 200.338C126.307 202.534 127.225 203.992 129.097 203.992C131.023 203.992 131.905 202.534 131.905 200.338C131.905 198.142 131.023 196.684 129.097 196.684C127.225 196.684 126.307 198.142 126.307 200.338ZM143 204.172C142.01 204.676 140.678 205.09 139.112 205.09C136.682 205.09 135.71 203.794 135.71 201.85V195.802H136.97V201.832C136.97 203.11 137.582 203.992 139.13 203.992C140.084 203.992 140.93 203.812 141.722 203.38V195.802H143V204.172ZM146.243 196.504C147.197 195.964 148.565 195.586 150.023 195.586C150.419 195.586 150.725 195.622 151.031 195.676L150.851 196.774C150.617 196.702 150.311 196.684 150.095 196.684C148.997 196.684 148.133 196.936 147.503 197.296V204.874H146.243V196.504ZM166.726 204.298C165.88 204.694 164.512 205.09 163.18 205.09C159.112 205.09 156.97 202.48 156.97 198.628C156.97 194.92 159.04 192.058 162.928 192.058C164.116 192.058 165.43 192.328 166.402 192.796L166.096 193.894C165.106 193.462 164.098 193.228 162.946 193.228C159.796 193.228 158.32 195.64 158.32 198.628C158.32 201.76 159.958 203.92 163.216 203.92C164.026 203.92 164.836 203.794 165.52 203.578V199.42H162.784V198.304H166.726V204.298ZM177.199 200.338C177.199 203.164 175.723 205.09 173.095 205.09C170.503 205.09 169.009 203.164 169.009 200.338C169.009 197.512 170.503 195.586 173.095 195.586C175.723 195.586 177.199 197.512 177.199 200.338ZM170.305 200.338C170.305 202.534 171.223 203.992 173.095 203.992C175.021 203.992 175.903 202.534 175.903 200.338C175.903 198.142 175.021 196.684 173.095 196.684C171.223 196.684 170.305 198.142 170.305 200.338ZM187.412 200.338C187.412 203.164 185.936 205.09 183.308 205.09C180.716 205.09 179.222 203.164 179.222 200.338C179.222 197.512 180.716 195.586 183.308 195.586C185.936 195.586 187.412 197.512 187.412 200.338ZM180.518 200.338C180.518 202.534 181.436 203.992 183.308 203.992C185.234 203.992 186.116 202.534 186.116 200.338C186.116 198.142 185.234 196.684 183.308 196.684C181.436 196.684 180.518 198.142 180.518 200.338ZM197.085 204.316C196.329 204.784 195.249 205.09 193.953 205.09C191.217 205.09 189.435 203.38 189.435 200.482C189.435 197.512 191.127 195.586 194.133 195.586C194.745 195.586 195.339 195.712 195.825 195.892V191.932L197.085 191.86V204.316ZM190.731 200.446C190.731 202.678 192.009 203.992 193.935 203.992C194.691 203.992 195.429 203.83 195.825 203.56V197.044C195.339 196.828 194.745 196.684 194.187 196.684C191.919 196.684 190.731 198.07 190.731 200.446ZM212.37 203.74V204.874H205.026V192.274H212.37V193.408H206.322V197.836H211.506V198.97H206.322V203.74H212.37ZM216.196 204.874H214.936V196.504C216.034 195.946 217.348 195.586 218.752 195.586C221.182 195.586 222.352 196.846 222.352 198.898V204.874H221.092V198.97C221.092 197.584 220.372 196.684 218.752 196.684C217.852 196.684 216.97 196.882 216.196 197.296V204.874ZM232.324 203.398L232.558 204.46C231.676 204.874 230.65 205.09 229.516 205.09C226.69 205.09 224.854 203.416 224.854 200.32C224.854 197.566 226.42 195.586 229.012 195.586C231.406 195.586 232.684 197.332 232.684 199.528C232.684 199.924 232.666 200.266 232.63 200.59H226.15C226.258 202.894 227.554 203.992 229.606 203.992C230.524 203.992 231.478 203.758 232.324 203.398ZM229.012 196.666C227.32 196.666 226.33 197.89 226.168 199.69H231.424C231.442 199.564 231.442 199.492 231.442 199.348C231.442 197.98 230.74 196.666 229.012 196.666ZM235.329 196.504C236.283 195.964 237.651 195.586 239.109 195.586C239.505 195.586 239.811 195.622 240.117 195.676L239.937 196.774C239.703 196.702 239.397 196.684 239.181 196.684C238.083 196.684 237.219 196.936 236.589 197.296V204.874H235.329V196.504ZM248.886 204.91C248.886 207.16 247.428 208.312 245.07 208.312C243.828 208.312 243.054 208.15 242.172 207.826L242.46 206.764C243.288 207.07 244.008 207.214 245.016 207.214C246.78 207.214 247.626 206.35 247.626 205V203.938C247.068 204.28 246.348 204.514 245.394 204.514C242.892 204.514 241.29 202.966 241.29 200.194C241.29 197.35 243.018 195.586 245.736 195.586C246.996 195.586 248.148 195.91 248.886 196.306V204.91ZM242.586 200.122C242.586 202.192 243.684 203.416 245.538 203.416C246.42 203.416 247.086 203.182 247.626 202.804V197.062C247.158 196.864 246.456 196.684 245.736 196.684C243.81 196.684 242.586 197.962 242.586 200.122ZM255.931 204.604C254.689 206.782 253.267 207.79 251.611 208.186L251.359 207.088C252.655 206.782 253.771 206.008 254.581 204.658C252.709 201.85 251.629 199.204 251.179 195.802H252.439C252.853 198.88 253.843 201.202 255.265 203.632C256.579 201.13 257.425 198.88 257.839 195.802H259.099C258.649 199.096 257.497 201.832 255.931 204.604ZM275.007 204.298C274.161 204.694 272.793 205.09 271.461 205.09C267.393 205.09 265.251 202.48 265.251 198.628C265.251 194.92 267.321 192.058 271.209 192.058C272.397 192.058 273.711 192.328 274.683 192.796L274.377 193.894C273.387 193.462 272.379 193.228 271.227 193.228C268.077 193.228 266.601 195.64 266.601 198.628C266.601 201.76 268.239 203.92 271.497 203.92C272.307 203.92 273.117 203.794 273.801 203.578V199.42H271.065V198.304H275.007V204.298ZM285.066 204.172C284.076 204.676 282.744 205.09 281.178 205.09C278.748 205.09 277.776 203.794 277.776 201.85V195.802H279.036V201.832C279.036 203.11 279.648 203.992 281.196 203.992C282.15 203.992 282.996 203.812 283.788 203.38V195.802H285.066V204.172ZM289.569 195.802V204.874H288.309V195.802H289.569ZM288.939 193.912C288.399 193.912 288.093 193.534 288.093 193.048C288.093 192.58 288.399 192.22 288.939 192.22C289.479 192.22 289.785 192.58 289.785 193.048C289.785 193.534 289.479 193.912 288.939 193.912ZM299.881 204.316C299.125 204.784 298.045 205.09 296.749 205.09C294.013 205.09 292.231 203.38 292.231 200.482C292.231 197.512 293.923 195.586 296.929 195.586C297.541 195.586 298.135 195.712 298.621 195.892V191.932L299.881 191.86V204.316ZM293.527 200.446C293.527 202.678 294.805 203.992 296.731 203.992C297.487 203.992 298.225 203.83 298.621 203.56V197.044C298.135 196.828 297.541 196.684 296.983 196.684C294.715 196.684 293.527 198.07 293.527 200.446ZM310.02 203.398L310.254 204.46C309.372 204.874 308.346 205.09 307.212 205.09C304.386 205.09 302.55 203.416 302.55 200.32C302.55 197.566 304.116 195.586 306.708 195.586C309.102 195.586 310.38 197.332 310.38 199.528C310.38 199.924 310.362 200.266 310.326 200.59H303.846C303.954 202.894 305.25 203.992 307.302 203.992C308.22 203.992 309.174 203.758 310.02 203.398ZM306.708 196.666C305.016 196.666 304.026 197.89 303.864 199.69H309.12C309.138 199.564 309.138 199.492 309.138 199.348C309.138 197.98 308.436 196.666 306.708 196.666Z" fill="#680DC5"/>
</g>
<defs>
<clipPath id="clip0_59_339">
<rect width="451.873" height="264.416" fill="white"/>
</clipPath>
</defs>
</svg>
