<svg width="452" height="265" viewBox="0 0 452 265" fill="none" xmlns="http://www.w3.org/2000/svg">
<path d="M410.721 47.645L418.3 0L366.222 37.786L77.462 26.562C31.756 24.785 -3.72195 58.658 0.313049 98.7L10.667 201.4C14.613 240.548 57.439 269.909 101.567 263.545L380.21 223.357C421.259 217.437 451.872 187.819 451.872 152.965V108.3C451.872 82.37 435.525 59.858 410.721 47.648" fill="white"/>
<path d="M382.591 88.8278C380.145 93.1077 377.263 95.0293 374.205 95.5243L373.565 92.1178C375.283 91.8558 377.35 90.7494 378.252 89.2354C375.079 84.8972 373.448 80.9084 373.012 75.231H377.059C377.263 80.2097 378.689 83.4123 380.349 86.1783C381.834 83.0047 382.591 80.2097 382.824 75.231H386.812C386.434 80.4426 384.716 85.0719 382.591 88.8278Z" fill="#6E06C1"/>
<path d="M371.201 82.4513C371.201 87.2262 368.493 90.3998 363.951 90.3998C362.932 90.3998 362.233 90.2833 361.506 90.0213V95.5532H357.517V76.1333C359.176 75.3763 361.506 74.8813 363.573 74.8813C368.348 74.8813 371.201 77.7929 371.201 82.4513ZM361.506 86.7313C362.059 86.9642 362.525 87.1389 363.369 87.1389C365.931 87.1389 367.125 85.5666 367.125 82.5678C367.125 79.9474 366.018 78.2005 363.369 78.2005C362.641 78.2005 362.117 78.3461 361.506 78.579V86.7313Z" fill="#6E06C1"/>
<path d="M354.454 82.4513C354.454 87.2262 351.746 90.3998 347.204 90.3998C346.185 90.3998 345.486 90.2833 344.759 90.0213V95.5532H340.77V76.1333C342.429 75.3763 344.759 74.8813 346.826 74.8813C351.601 74.8813 354.454 77.7929 354.454 82.4513ZM344.759 86.7313C345.312 86.9642 345.778 87.1389 346.622 87.1389C349.184 87.1389 350.378 85.5666 350.378 82.5678C350.378 79.9474 349.271 78.2005 346.622 78.2005C345.894 78.2005 345.37 78.3461 344.759 78.579V86.7313Z" fill="#6E06C1"/>
<path d="M331.173 87.5756C332.047 87.5756 332.775 87.4009 333.211 87.168V84.0526C332.542 83.9071 331.843 83.8197 331.144 83.8197C329.805 83.8197 328.757 84.3438 328.757 85.7122C328.757 86.9351 329.63 87.5756 331.173 87.5756ZM337.113 89.1769C335.919 89.7884 333.677 90.458 330.766 90.458C326.777 90.458 324.768 88.5073 324.768 85.8869C324.768 83.0045 327.126 81.3158 330.62 81.2867C331.435 81.2867 332.483 81.4032 333.211 81.5196V80.8209C333.211 79.0448 332.192 78.2005 330.242 78.2005C328.961 78.2005 327.592 78.4043 326.398 78.8992L325.671 75.7548C326.922 75.2307 328.931 74.8813 330.707 74.8813C334.987 74.8813 337.113 77.1523 337.113 81.0829V89.1769Z" fill="#6E06C1"/>
<path d="M312.773 90.1085H308.755V69.2038L312.773 69V75.4636C313.559 75.0851 314.491 74.8813 315.772 74.8813C319.528 74.8813 322.032 76.9776 322.032 80.8499V90.1085H318.014V81.1702C318.014 79.1612 316.995 78.2295 315.131 78.2295C314.316 78.2295 313.443 78.4625 312.773 78.7827V90.1085Z" fill="#6E06C1"/>
<path d="M295.103 88.8278C292.657 93.1077 289.775 95.0293 286.718 95.5243L286.077 92.1178C287.795 91.8558 289.862 90.7494 290.765 89.2354C287.591 84.8972 285.961 80.9084 285.524 75.231H289.571C289.775 80.2097 291.201 83.4123 292.861 86.1783C294.346 83.0047 295.103 80.2097 295.336 75.231H299.324C298.946 80.4426 297.228 85.0719 295.103 88.8278Z" fill="#6E06C1"/>
<path d="M272.543 75.231H283.636V77.9387C281.831 81.2869 279.938 83.9364 277.172 86.9062H284.073V90.1088H272.223V87.4011C275.018 84.5478 277.813 81.1414 279.298 78.4336H272.543V75.231Z" fill="#6E06C1"/>
<path d="M270.492 82.6551C270.492 87.3427 267.756 90.458 263.243 90.458C258.759 90.458 255.964 87.3427 255.964 82.6551C255.964 77.9967 258.759 74.8813 263.243 74.8813C267.756 74.8813 270.492 77.9967 270.492 82.6551ZM260.069 82.6551C260.069 85.4211 261.205 87.1389 263.243 87.1389C265.31 87.1389 266.387 85.4211 266.387 82.6551C266.387 79.9183 265.31 78.2005 263.243 78.2005C261.205 78.2005 260.069 79.9183 260.069 82.6551Z" fill="#6E06C1"/>
<path d="M249.967 74.8813C251.627 74.8813 253.286 75.2598 254.364 75.7548L253.607 78.9284C252.5 78.4625 251.307 78.2005 250.317 78.2005C247.958 78.2005 246.677 79.8601 246.677 82.5969C246.677 85.5958 248.017 87.1389 250.52 87.1389C251.481 87.1389 252.646 86.8768 253.752 86.3819L254.393 89.6137C253.403 90.1086 251.889 90.458 250.2 90.458C245.367 90.458 242.572 87.4591 242.572 82.7133C242.572 77.9967 245.338 74.8813 249.967 74.8813Z" fill="#6E06C1"/>
<path d="M226.882 87.5756C227.755 87.5756 228.483 87.4009 228.92 87.168V84.0526C228.25 83.9071 227.551 83.8197 226.852 83.8197C225.513 83.8197 224.465 84.3438 224.465 85.7122C224.465 86.9351 225.338 87.5756 226.882 87.5756ZM232.821 89.1769C231.627 89.7884 229.385 90.458 226.474 90.458C222.485 90.458 220.476 88.5073 220.476 85.8869C220.476 83.0045 222.835 81.3158 226.328 81.2867C227.144 81.2867 228.192 81.4032 228.92 81.5196V80.8209C228.92 79.0448 227.901 78.2005 225.95 78.2005C224.669 78.2005 223.3 78.4043 222.107 78.8992L221.379 75.7548C222.631 75.2307 224.64 74.8813 226.416 74.8813C230.696 74.8813 232.821 77.1523 232.821 81.0829V89.1769Z" fill="#6E06C1"/>
<path d="M210.306 86.2363L210.946 89.4681C209.665 90.0504 207.773 90.458 205.851 90.458C201.164 90.458 197.961 87.4882 197.961 82.6551C197.961 78.0258 200.901 74.8813 205.181 74.8813C208.995 74.8813 211.499 77.5891 211.499 81.4905C211.499 82.364 211.441 83.121 211.383 83.7033H202.183C202.561 86.0325 203.929 87.0806 206.259 87.0806C207.685 87.0806 209.054 86.7604 210.306 86.2363ZM205.181 78.084C203.493 78.084 202.386 79.2777 202.124 81.2576H207.656V80.9082C207.656 79.2777 206.783 78.084 205.181 78.084Z" fill="#6E06C1"/>
<path d="M186.22 75.231C186.54 80.2097 187.617 83.587 189.277 86.8771C190.994 83.587 192.101 80.2097 192.363 75.231H196.381C195.798 81.0831 194.546 84.839 191.518 90.1088H187.064C183.919 84.839 182.609 81.0831 182.172 75.231H186.22Z" fill="#6E06C1"/>
<path d="M172.334 76.1624C173.907 75.3763 176.352 74.8813 178.449 74.8813C179.497 74.8813 180.487 74.9978 181.069 75.1434L180.487 78.4334C179.992 78.2587 179.38 78.2005 178.769 78.2005C177.692 78.2005 176.964 78.4043 176.352 78.6954V90.1086H172.334V76.1624Z" fill="#6E06C1"/>
<path d="M168.083 86.2363L168.723 89.4681C167.442 90.0504 165.55 90.458 163.628 90.458C158.941 90.458 155.738 87.4882 155.738 82.6551C155.738 78.0258 158.679 74.8813 162.959 74.8813C166.773 74.8813 169.277 77.5891 169.277 81.4905C169.277 82.364 169.218 83.121 169.16 83.7033H159.96C160.338 86.0325 161.707 87.0806 164.036 87.0806C165.463 87.0806 166.831 86.7604 168.083 86.2363ZM162.959 78.084C161.27 78.084 160.164 79.2777 159.902 81.2576H165.433V80.9082C165.433 79.2777 164.56 78.084 162.959 78.084Z" fill="#6E06C1"/>
<path d="M153.251 75.7257L152.814 78.9866C151.475 78.579 150.165 78.2005 148.767 78.2005C147.544 78.2005 146.729 78.5499 146.729 79.3942C146.729 80.2677 147.399 80.5297 149.146 81.0247C152.523 81.9564 154.095 83.0918 154.095 85.7704C154.095 88.9149 151.533 90.458 147.981 90.458C146.118 90.458 144.05 90.0795 142.711 89.4972L143.264 86.2072C144.545 86.7021 146.176 87.1389 147.894 87.1389C149.233 87.1389 150.165 86.673 150.165 85.8578C150.165 84.897 149.437 84.635 147.049 83.9653C144.371 83.2665 142.769 82.0146 142.769 79.4816C142.769 76.5118 144.895 74.8813 148.447 74.8813C150.106 74.8813 151.999 75.2307 153.251 75.7257Z" fill="#6E06C1"/>
<path d="M139.508 86.2363L140.148 89.4681C138.867 90.0504 136.975 90.458 135.053 90.458C130.366 90.458 127.163 87.4882 127.163 82.6551C127.163 78.0258 130.104 74.8813 134.384 74.8813C138.198 74.8813 140.702 77.5891 140.702 81.4905C140.702 82.364 140.643 83.121 140.585 83.7033H131.385C131.763 86.0325 133.132 87.0806 135.461 87.0806C136.888 87.0806 138.256 86.7604 139.508 86.2363ZM134.384 78.084C132.695 78.084 131.589 79.2777 131.327 81.2576H136.858V80.9082C136.858 79.2777 135.985 78.084 134.384 78.084Z" fill="#6E06C1"/>
<path d="M124.101 89.2641C122.674 89.9338 120.462 90.4579 118.307 90.4579C113.357 90.4579 110.388 87.5463 110.388 82.917C110.388 78.0548 113.532 74.8812 118.307 74.8812C118.918 74.8812 119.559 74.9686 120.112 75.085V69.2329L124.101 69.0291V89.2641ZM114.493 82.7423C114.493 85.6247 115.949 87.1387 118.278 87.1387C119.035 87.1387 119.675 86.9932 120.112 86.7602V78.4915C119.588 78.3168 119.035 78.2004 118.54 78.2004C115.92 78.2004 114.493 79.7435 114.493 82.7423Z" fill="#6E06C1"/>
<path d="M100.477 89.1772C99.3412 89.643 96.6044 90.4582 93.8384 90.4582C88.9179 90.4582 87.2875 87.9543 87.2875 84.2276V75.231H91.2763V84.2276C91.2763 86.0618 92.0915 87.1391 93.9257 87.1391C94.8866 87.1391 95.7309 86.9644 96.4588 86.615V75.231H100.477V89.1772Z" fill="#6E06C1"/>
<path d="M84.3994 82.6551C84.3994 87.3427 81.6625 90.458 77.1497 90.458C72.6659 90.458 69.8708 87.3427 69.8708 82.6551C69.8708 77.9967 72.6659 74.8813 77.1497 74.8813C81.6625 74.8813 84.3994 77.9967 84.3994 82.6551ZM73.9761 82.6551C73.9761 85.4211 75.1116 87.1389 77.1497 87.1389C79.2168 87.1389 80.2941 85.4211 80.2941 82.6551C80.2941 79.9183 79.2168 78.2005 77.1497 78.2005C75.1116 78.2005 73.9761 79.9183 73.9761 82.6551Z" fill="#6E06C1"/>
<path d="M59.8277 90.1087V81.9564C56.9453 77.8221 54.5288 73.8915 53.073 69.728H57.3529C58.4302 72.5813 59.653 75.0852 61.924 78.5791C64.195 75.1143 65.3887 72.5813 66.466 69.728H70.746C69.232 73.9206 66.8154 77.9094 63.9912 81.9564V90.1087H59.8277Z" fill="#6E06C1"/>
<path d="M50.5689 76.9195H46.7257C46.7548 73.9498 48.4726 70.98 49.8993 69.1458H52.0538C51.093 71.7952 50.598 74.503 50.5689 76.9195ZM44.6585 76.9195H40.8153C40.8444 73.9498 42.5331 70.98 43.9598 69.1458H46.1434C45.1535 71.7952 44.6876 74.503 44.6585 76.9195Z" fill="#6E06C1"/>
<path d="M419.326 110.664L418.889 113.925C417.549 113.517 416.239 113.139 414.842 113.139C413.619 113.139 412.804 113.488 412.804 114.332C412.804 115.206 413.473 115.468 415.22 115.963C418.598 116.895 420.17 118.03 420.17 120.709C420.17 123.853 417.608 125.396 414.056 125.396C412.192 125.396 410.125 125.018 408.786 124.435L409.339 121.145C410.62 121.64 412.25 122.077 413.968 122.077C415.308 122.077 416.239 121.611 416.239 120.796C416.239 119.835 415.511 119.573 413.124 118.904C410.445 118.205 408.844 116.953 408.844 114.42C408.844 111.45 410.969 109.82 414.521 109.82C416.181 109.82 418.074 110.169 419.326 110.664Z" fill="#6E06C1"/>
<path d="M396.848 125.047H392.859V111.101C394.693 110.315 397.197 109.82 399.439 109.82C403.69 109.82 406.135 111.916 406.135 115.788V125.047H402.117V116.079C402.117 114.07 401.186 113.139 399.41 113.139C398.478 113.139 397.605 113.313 396.848 113.663V125.047Z" fill="#6E06C1"/>
<path d="M389.825 117.593C389.825 122.281 387.088 125.396 382.575 125.396C378.092 125.396 375.297 122.281 375.297 117.593C375.297 112.935 378.092 109.82 382.575 109.82C387.088 109.82 389.825 112.935 389.825 117.593ZM379.402 117.593C379.402 120.359 380.537 122.077 382.575 122.077C384.643 122.077 385.72 120.359 385.72 117.593C385.72 114.857 384.643 113.139 382.575 113.139C380.537 113.139 379.402 114.857 379.402 117.593Z" fill="#6E06C1"/>
<path d="M372.226 110.169V125.047H368.208V110.169H372.226ZM370.217 108.189C368.732 108.189 367.888 107.287 367.888 105.947C367.888 104.608 368.732 103.706 370.217 103.706C371.673 103.706 372.517 104.608 372.517 105.947C372.517 107.287 371.673 108.189 370.217 108.189Z" fill="#6E06C1"/>
<path d="M365.728 125.134C365.029 125.309 364.097 125.396 363.195 125.396C359.73 125.396 357.954 123.504 357.954 119.661V113.372H355.974V110.169H357.954V106.937L361.972 106.733V110.169H365.204V113.372H361.972V119.602C361.972 121.291 362.671 122.077 363.981 122.077C364.592 122.077 365.146 121.99 365.524 121.902L365.728 125.134Z" fill="#6E06C1"/>
<path d="M353.671 124.115C352.536 124.581 349.799 125.396 347.033 125.396C342.113 125.396 340.482 122.893 340.482 119.166V110.169H344.471V119.166C344.471 121 345.286 122.077 347.12 122.077C348.081 122.077 348.925 121.903 349.653 121.553V110.169H353.671V124.115Z" fill="#6E06C1"/>
<path d="M335.772 103.938V119.66C335.772 121.233 336.179 122.077 337.344 122.077C337.635 122.077 337.926 122.048 338.188 121.99L338.48 125.163C337.926 125.28 337.024 125.396 336.441 125.396C333.093 125.396 331.754 123.213 331.754 119.719V104.171L335.772 103.938Z" fill="#6E06C1"/>
<path d="M328.837 117.593C328.837 122.281 326.1 125.396 321.587 125.396C317.103 125.396 314.308 122.281 314.308 117.593C314.308 112.935 317.103 109.82 321.587 109.82C326.1 109.82 328.837 112.935 328.837 117.593ZM318.413 117.593C318.413 120.359 319.549 122.077 321.587 122.077C323.654 122.077 324.731 120.359 324.731 117.593C324.731 114.857 323.654 113.139 321.587 113.139C319.549 113.139 318.413 114.857 318.413 117.593Z" fill="#6E06C1"/>
<path d="M311.821 110.664L311.384 113.925C310.045 113.517 308.735 113.139 307.337 113.139C306.114 113.139 305.299 113.488 305.299 114.332C305.299 115.206 305.969 115.468 307.716 115.963C311.093 116.895 312.665 118.03 312.665 120.709C312.665 123.853 310.103 125.396 306.551 125.396C304.688 125.396 302.62 125.018 301.281 124.435L301.834 121.145C303.115 121.64 304.746 122.077 306.464 122.077C307.803 122.077 308.735 121.611 308.735 120.796C308.735 119.835 308.007 119.573 305.619 118.904C302.941 118.205 301.339 116.953 301.339 114.42C301.339 111.45 303.465 109.82 307.017 109.82C308.676 109.82 310.569 110.169 311.821 110.664Z" fill="#6E06C1"/>
<path d="M291.169 121.175L291.809 124.406C290.528 124.989 288.636 125.396 286.714 125.396C282.027 125.396 278.824 122.426 278.824 117.593C278.824 112.964 281.764 109.82 286.044 109.82C289.859 109.82 292.362 112.527 292.362 116.429C292.362 117.302 292.304 118.059 292.246 118.641H283.046C283.424 120.971 284.792 122.019 287.122 122.019C288.548 122.019 289.917 121.699 291.169 121.175ZM286.044 113.022C284.356 113.022 283.249 114.216 282.987 116.196H288.519V115.846C288.519 114.216 287.646 113.022 286.044 113.022Z" fill="#6E06C1"/>
<path d="M267.083 110.169C267.403 115.148 268.48 118.525 270.14 121.815C271.857 118.525 272.964 115.148 273.226 110.169H277.244C276.661 116.021 275.41 119.777 272.382 125.047H267.927C264.782 119.777 263.472 116.021 263.036 110.169H267.083Z" fill="#6E06C1"/>
<path d="M254.888 122.514C255.761 122.514 256.489 122.339 256.926 122.106V118.991C256.256 118.845 255.558 118.758 254.859 118.758C253.52 118.758 252.471 119.282 252.471 120.65C252.471 121.873 253.345 122.514 254.888 122.514ZM260.828 124.115C259.634 124.727 257.392 125.396 254.48 125.396C250.492 125.396 248.483 123.446 248.483 120.825C248.483 117.943 250.841 116.254 254.335 116.225C255.15 116.225 256.198 116.341 256.926 116.458V115.759C256.926 113.983 255.907 113.139 253.956 113.139C252.675 113.139 251.307 113.343 250.113 113.837L249.385 110.693C250.637 110.169 252.646 109.82 254.422 109.82C258.702 109.82 260.828 112.091 260.828 116.021V124.115Z" fill="#6E06C1"/>
<path d="M236.488 125.047H232.47V104.142L236.488 103.938V110.402C237.274 110.023 238.205 109.82 239.486 109.82C243.242 109.82 245.746 111.916 245.746 115.788V125.047H241.728V116.108C241.728 114.099 240.709 113.168 238.846 113.168C238.031 113.168 237.157 113.401 236.488 113.721V125.047Z" fill="#6E06C1"/>
<path d="M221.309 121.175L221.95 124.406C220.669 124.989 218.776 125.396 216.855 125.396C212.167 125.396 208.964 122.426 208.964 117.593C208.964 112.964 211.905 109.82 216.185 109.82C219.999 109.82 222.503 112.527 222.503 116.429C222.503 117.302 222.445 118.059 222.386 118.641H213.186C213.565 120.971 214.933 122.019 217.262 122.019C218.689 122.019 220.057 121.699 221.309 121.175ZM216.185 113.022C214.496 113.022 213.39 114.216 213.128 116.196H218.66V115.846C218.66 114.216 217.786 113.022 216.185 113.022Z" fill="#6E06C1"/>
<path d="M198.02 110.169C198.34 115.148 199.272 118.642 200.64 121.932C202.242 118.642 203.203 115.148 203.406 110.169H207.395C206.842 116.021 205.765 119.777 202.824 125.047H198.806C197.758 123.009 196.914 121.204 196.244 119.428C195.662 121.262 194.876 123.213 193.886 125.047H190.013C186.782 119.777 185.908 116.021 185.442 110.169H189.402C189.693 115.148 190.654 118.642 192.168 121.932C193.478 119.428 194.352 116.08 194.643 113.43C194.497 112.411 194.381 111.334 194.293 110.169H198.02Z" fill="#6E06C1"/>
<path d="M175.82 124.202C174.394 124.872 172.181 125.396 170.026 125.396C165.077 125.396 162.107 122.485 162.107 117.855C162.107 112.993 165.252 109.819 170.026 109.819C170.638 109.819 171.278 109.907 171.832 110.023V104.171L175.82 103.967V124.202ZM166.212 117.681C166.212 120.563 167.668 122.077 169.997 122.077C170.754 122.077 171.395 121.931 171.832 121.698V113.43C171.307 113.255 170.754 113.139 170.259 113.139C167.639 113.139 166.212 114.682 166.212 117.681Z" fill="#6E06C1"/>
<path d="M149.965 125.047H145.976V111.101C147.811 110.315 150.314 109.82 152.556 109.82C156.807 109.82 159.253 111.916 159.253 115.788V125.047H155.235V116.079C155.235 114.07 154.303 113.139 152.527 113.139C151.596 113.139 150.722 113.313 149.965 113.663V125.047Z" fill="#6E06C1"/>
<path d="M136.38 122.514C137.253 122.514 137.981 122.339 138.418 122.106V118.991C137.748 118.845 137.049 118.758 136.351 118.758C135.011 118.758 133.963 119.282 133.963 120.65C133.963 121.873 134.837 122.514 136.38 122.514ZM142.319 124.115C141.126 124.727 138.884 125.396 135.972 125.396C131.983 125.396 129.974 123.446 129.974 120.825C129.974 117.943 132.333 116.254 135.827 116.225C136.642 116.225 137.69 116.341 138.418 116.458V115.759C138.418 113.983 137.399 113.139 135.448 113.139C134.167 113.139 132.799 113.343 131.605 113.837L130.877 110.693C132.129 110.169 134.138 109.82 135.914 109.82C140.194 109.82 142.319 112.091 142.319 116.021V124.115Z" fill="#6E06C1"/>
<path d="M116.694 121.116H120.537C120.508 124.232 119.081 127.434 117.8 129.356H115.646C116.286 126.532 116.607 123.649 116.694 121.116Z" fill="#6E06C1"/>
<path d="M112.326 121.175L112.967 124.406C111.686 124.989 109.793 125.396 107.871 125.396C103.184 125.396 99.9812 122.426 99.9812 117.593C99.9812 112.964 102.922 109.82 107.202 109.82C111.016 109.82 113.52 112.527 113.52 116.429C113.52 117.302 113.462 118.059 113.403 118.641H104.203C104.581 120.971 105.95 122.019 108.279 122.019C109.706 122.019 111.074 121.699 112.326 121.175ZM107.202 113.022C105.513 113.022 104.407 114.216 104.145 116.196H109.677V115.846C109.677 114.216 108.803 113.022 107.202 113.022Z" fill="#6E06C1"/>
<path d="M97.1002 125.047H93.1114V116.079C93.1114 114.129 92.3253 113.139 90.4911 113.139C89.5011 113.139 88.5112 113.43 87.7834 113.837C88.0163 114.624 88.1327 115.555 88.1327 116.574V125.047H84.2313V116.079C84.2313 114.129 83.4743 113.139 81.6109 113.139C80.7957 113.139 80.0096 113.313 79.2526 113.663V125.047H75.2638V111.101C77.1272 110.285 79.5437 109.82 81.8147 109.82C83.5034 109.82 84.9009 110.227 85.92 111.013C87.1428 110.402 88.8897 109.82 90.6658 109.82C94.8001 109.82 97.1002 111.974 97.1002 115.788V125.047Z" fill="#6E06C1"/>
<path d="M72.23 117.593C72.23 122.281 69.4932 125.396 64.9803 125.396C60.4966 125.396 57.7015 122.281 57.7015 117.593C57.7015 112.935 60.4966 109.82 64.9803 109.82C69.4932 109.82 72.23 112.935 72.23 117.593ZM61.8068 117.593C61.8068 120.359 62.9423 122.077 64.9803 122.077C67.0475 122.077 68.1248 120.359 68.1248 117.593C68.1248 114.857 67.0475 113.139 64.9803 113.139C62.9423 113.139 61.8068 114.857 61.8068 117.593Z" fill="#6E06C1"/>
<path d="M45.5611 125.047H41.5432V104.142L45.5611 103.938V110.402C46.3472 110.023 47.2789 109.82 48.56 109.82C52.3159 109.82 54.8198 111.916 54.8198 115.788V125.047H50.8019V116.108C50.8019 114.099 49.7828 113.168 47.9195 113.168C47.1042 113.168 46.2308 113.401 45.5611 113.721V125.047Z" fill="#6E06C1"/>
<path d="M383.63 139.022H387.473C387.444 141.992 385.726 144.962 384.299 146.796H382.145C383.106 144.146 383.572 141.439 383.63 139.022ZM389.54 139.022H393.383C393.354 141.992 391.636 144.962 390.21 146.796H388.055C389.045 144.146 389.511 141.439 389.54 139.022Z" fill="#6E06C1"/>
<path d="M377.491 160.306C375.977 160.306 375.162 159.432 375.162 158.035C375.162 156.695 375.977 155.822 377.491 155.822C378.976 155.822 379.791 156.695 379.791 158.035C379.791 159.432 378.976 160.306 377.491 160.306Z" fill="#6E06C1"/>
<path d="M372.354 145.602L371.918 148.863C370.578 148.456 369.268 148.077 367.871 148.077C366.648 148.077 365.833 148.427 365.833 149.271C365.833 150.144 366.502 150.406 368.249 150.901C371.627 151.833 373.199 152.969 373.199 155.647C373.199 158.792 370.637 160.335 367.085 160.335C365.221 160.335 363.154 159.956 361.815 159.374L362.368 156.084C363.649 156.579 365.279 157.016 366.997 157.016C368.337 157.016 369.268 156.55 369.268 155.735C369.268 154.774 368.54 154.512 366.153 153.842C363.474 153.143 361.873 151.891 361.873 149.358C361.873 146.389 363.998 144.758 367.55 144.758C369.21 144.758 371.102 145.107 372.354 145.602Z" fill="#6E06C1"/>
<path d="M360.383 160.072C359.684 160.247 358.752 160.334 357.849 160.334C354.385 160.334 352.609 158.442 352.609 154.599V148.31H350.629V145.107H352.609V141.875L356.627 141.672V145.107H359.858V148.31H356.627V154.541C356.627 156.229 357.325 157.015 358.636 157.015C359.247 157.015 359.8 156.928 360.179 156.841L360.383 160.072Z" fill="#6E06C1"/>
<path d="M348.841 145.602L348.404 148.863C347.064 148.456 345.754 148.077 344.357 148.077C343.134 148.077 342.319 148.427 342.319 149.271C342.319 150.144 342.988 150.406 344.735 150.901C348.113 151.833 349.685 152.969 349.685 155.647C349.685 158.792 347.123 160.335 343.571 160.335C341.707 160.335 339.64 159.956 338.301 159.374L338.854 156.084C340.135 156.579 341.766 157.016 343.483 157.016C344.823 157.016 345.754 156.55 345.754 155.735C345.754 154.774 345.026 154.512 342.639 153.842C339.96 153.143 338.359 151.891 338.359 149.358C338.359 146.389 340.484 144.758 344.037 144.758C345.696 144.758 347.589 145.107 348.841 145.602Z" fill="#6E06C1"/>
<path d="M336.286 152.532C336.286 157.219 333.549 160.335 329.036 160.335C324.553 160.335 321.757 157.219 321.757 152.532C321.757 147.873 324.553 144.758 329.036 144.758C333.549 144.758 336.286 147.873 336.286 152.532ZM325.863 152.532C325.863 155.298 326.998 157.016 329.036 157.016C331.103 157.016 332.181 155.298 332.181 152.532C332.181 149.795 331.103 148.077 329.036 148.077C326.998 148.077 325.863 149.795 325.863 152.532Z" fill="#6E06C1"/>
<path d="M315.761 144.758C317.42 144.758 319.08 145.137 320.157 145.632L319.4 148.805C318.294 148.339 317.1 148.077 316.11 148.077C313.752 148.077 312.471 149.737 312.471 152.474C312.471 155.472 313.81 157.016 316.314 157.016C317.275 157.016 318.439 156.754 319.546 156.259L320.186 159.49C319.196 159.985 317.682 160.335 315.994 160.335C311.161 160.335 308.366 157.336 308.366 152.59C308.366 147.873 311.132 144.758 315.761 144.758Z" fill="#6E06C1"/>
<path d="M291.269 146.039C292.841 145.253 295.287 144.758 297.383 144.758C298.431 144.758 299.421 144.875 300.003 145.02L299.421 148.31C298.926 148.135 298.315 148.077 297.703 148.077C296.626 148.077 295.898 148.281 295.287 148.572V159.985H291.269V146.039Z" fill="#6E06C1"/>
<path d="M287.423 159.054C286.287 159.519 283.55 160.335 280.784 160.335C275.864 160.335 274.234 157.831 274.234 154.104V145.107H278.222V154.104C278.222 155.938 279.038 157.016 280.872 157.016C281.833 157.016 282.677 156.841 283.405 156.491V145.107H287.423V159.054Z" fill="#6E06C1"/>
<path d="M271.345 152.532C271.345 157.219 268.609 160.335 264.096 160.335C259.612 160.335 256.817 157.219 256.817 152.532C256.817 147.873 259.612 144.758 264.096 144.758C268.609 144.758 271.345 147.873 271.345 152.532ZM260.922 152.532C260.922 155.298 262.058 157.016 264.096 157.016C266.163 157.016 267.24 155.298 267.24 152.532C267.24 149.795 266.163 148.077 264.096 148.077C262.058 148.077 260.922 149.795 260.922 152.532Z" fill="#6E06C1"/>
<path d="M251.032 158.704C248.586 162.984 245.704 164.906 242.647 165.401L242.006 161.994C243.724 161.732 245.791 160.626 246.694 159.112C243.52 154.774 241.89 150.785 241.453 145.107H245.5C245.704 150.086 247.13 153.289 248.79 156.055C250.275 152.881 251.032 150.086 251.265 145.107H255.254C254.875 150.319 253.157 154.948 251.032 158.704Z" fill="#6E06C1"/>
<path d="M231.918 159.141C230.492 159.81 228.279 160.334 226.124 160.334C221.175 160.334 218.205 157.423 218.205 152.793C218.205 147.931 221.35 144.758 226.124 144.758C226.736 144.758 227.376 144.845 227.93 144.961V139.109L231.918 138.906V159.141ZM222.31 152.619C222.31 155.501 223.766 157.015 226.095 157.015C226.852 157.015 227.493 156.87 227.93 156.637V148.368C227.406 148.193 226.852 148.077 226.357 148.077C223.737 148.077 222.31 149.62 222.31 152.619Z" fill="#6E06C1"/>
<path d="M206.063 159.985H202.074V146.039C203.909 145.253 206.413 144.758 208.654 144.758C212.905 144.758 215.351 146.854 215.351 150.727V159.985H211.333V151.018C211.333 149.009 210.401 148.077 208.625 148.077C207.694 148.077 206.82 148.252 206.063 148.601V159.985Z" fill="#6E06C1"/>
<path d="M198.257 159.054C197.122 159.519 194.385 160.335 191.619 160.335C186.699 160.335 185.068 157.831 185.068 154.104V145.107H189.057V154.104C189.057 155.938 189.872 157.016 191.706 157.016C192.667 157.016 193.512 156.841 194.239 156.491V145.107H198.257V159.054Z" fill="#6E06C1"/>
<path d="M182.18 152.532C182.18 157.219 179.443 160.335 174.93 160.335C170.446 160.335 167.651 157.219 167.651 152.532C167.651 147.873 170.446 144.758 174.93 144.758C179.443 144.758 182.18 147.873 182.18 152.532ZM171.757 152.532C171.757 155.298 172.892 157.016 174.93 157.016C176.997 157.016 178.075 155.298 178.075 152.532C178.075 149.795 176.997 148.077 174.93 148.077C172.892 148.077 171.757 149.795 171.757 152.532Z" fill="#6E06C1"/>
<path d="M157.833 146.039C159.406 145.253 161.851 144.758 163.948 144.758C164.996 144.758 165.986 144.875 166.568 145.02L165.986 148.31C165.491 148.135 164.879 148.077 164.268 148.077C163.191 148.077 162.463 148.281 161.851 148.572V159.985H157.833V146.039Z" fill="#6E06C1"/>
<path d="M153.955 159.054C153.955 163.159 151.131 165.517 146.589 165.517C144.376 165.517 143.066 165.255 141.493 164.615L142.338 161.441C143.561 161.936 144.9 162.169 146.356 162.169C148.598 162.169 149.966 161.237 149.966 159.461V158.792C149.063 159.141 148.132 159.316 147.229 159.316C142.92 159.316 140.271 156.783 140.271 152.386C140.271 147.699 143.444 144.758 148.132 144.758C150.432 144.758 152.645 145.34 153.955 145.923V159.054ZM144.376 152.037C144.376 154.453 145.628 155.967 147.87 155.967C148.685 155.967 149.355 155.764 149.966 155.472V148.397C149.413 148.223 148.772 148.077 148.132 148.077C145.744 148.077 144.376 149.649 144.376 152.037Z" fill="#6E06C1"/>
<path d="M131.114 152.328C131.114 157.103 128.406 160.276 123.864 160.276C122.845 160.276 122.146 160.16 121.419 159.898V165.43H117.43V146.01C119.089 145.253 121.419 144.758 123.486 144.758C128.261 144.758 131.114 147.67 131.114 152.328ZM121.419 156.608C121.972 156.841 122.438 157.016 123.282 157.016C125.844 157.016 127.038 155.443 127.038 152.444C127.038 149.824 125.931 148.077 123.282 148.077C122.554 148.077 122.03 148.223 121.419 148.456V156.608Z" fill="#6E06C1"/>
<path d="M112.347 138.877V154.599C112.347 156.171 112.754 157.016 113.919 157.016C114.21 157.016 114.501 156.986 114.763 156.928L115.054 160.102C114.501 160.218 113.598 160.335 113.016 160.335C109.668 160.335 108.329 158.151 108.329 154.657V139.11L112.347 138.877Z" fill="#6E06C1"/>
<path d="M104.223 156.113L104.863 159.345C103.582 159.927 101.69 160.335 99.7682 160.335C95.0806 160.335 91.8779 157.365 91.8779 152.532C91.8779 147.903 94.8186 144.758 99.0985 144.758C102.913 144.758 105.417 147.466 105.417 151.367C105.417 152.241 105.358 152.998 105.3 153.58H96.0996C96.4781 155.909 97.8466 156.957 100.176 156.957C101.602 156.957 102.971 156.637 104.223 156.113ZM99.0985 147.961C97.4098 147.961 96.3034 149.154 96.0414 151.134H101.573V150.785C101.573 149.154 100.7 147.961 99.0985 147.961Z" fill="#6E06C1"/>
<path d="M79.7374 159.985H75.7195V139.081L79.7374 138.877V145.34C80.5235 144.962 81.4552 144.758 82.7363 144.758C86.4921 144.758 88.996 146.854 88.996 150.727V159.985H84.9781V151.047C84.9781 149.038 83.9591 148.106 82.0957 148.106C81.2805 148.106 80.407 148.339 79.7374 148.659V159.985Z" fill="#6E06C1"/>
<path d="M65.7474 152.532C65.7474 157.219 63.0105 160.335 58.4977 160.335C54.0139 160.335 51.2189 157.219 51.2189 152.532C51.2189 147.873 54.0139 144.758 58.4977 144.758C63.0105 144.758 65.7474 147.873 65.7474 152.532ZM55.3241 152.532C55.3241 155.298 56.4596 157.016 58.4977 157.016C60.5649 157.016 61.6421 155.298 61.6421 152.532C61.6421 149.795 60.5649 148.077 58.4977 148.077C56.4596 148.077 55.3241 149.795 55.3241 152.532Z" fill="#6E06C1"/>
<path d="M49.7536 160.072C49.0548 160.247 48.1232 160.334 47.2206 160.334C43.7559 160.334 41.9798 158.442 41.9798 154.599V148.31H40V145.107H41.9798V141.875L45.9977 141.672V145.107H49.2295V148.31H45.9977V154.541C45.9977 156.229 46.6965 157.015 48.0067 157.015C48.6181 157.015 49.1713 156.928 49.5498 156.841L49.7536 160.072Z" fill="#6E06C1"/>
<path d="M365.696 201.946L365.999 203.322C364.856 203.858 363.527 204.138 362.058 204.138C358.398 204.138 356.019 201.97 356.019 197.959C356.019 194.392 358.048 191.827 361.405 191.827C364.507 191.827 366.162 194.088 366.162 196.933C366.162 197.446 366.139 197.889 366.092 198.309H357.698C357.838 201.293 359.517 202.716 362.175 202.716C363.364 202.716 364.6 202.413 365.696 201.946ZM361.405 193.226C359.214 193.226 357.931 194.811 357.721 197.143H364.53C364.553 196.98 364.553 196.886 364.553 196.7C364.553 194.928 363.644 193.226 361.405 193.226Z" fill="#680DC5"/>
<path d="M352.563 203.135C351.583 203.742 350.184 204.138 348.505 204.138C344.961 204.138 342.653 201.923 342.653 198.169C342.653 194.322 344.845 191.827 348.739 191.827C349.531 191.827 350.301 191.99 350.93 192.223V187.093L352.563 187V203.135ZM344.332 198.122C344.332 201.014 345.987 202.716 348.482 202.716C349.461 202.716 350.417 202.506 350.93 202.156V193.715C350.301 193.436 349.531 193.249 348.809 193.249C345.871 193.249 344.332 195.044 344.332 198.122Z" fill="#680DC5"/>
<path d="M339.204 192.107V203.859H337.572V192.107H339.204ZM338.388 189.659C337.688 189.659 337.292 189.169 337.292 188.539C337.292 187.933 337.688 187.467 338.388 187.467C339.088 187.467 339.484 187.933 339.484 188.539C339.484 189.169 339.088 189.659 338.388 189.659Z" fill="#680DC5"/>
<path d="M333.371 202.949C332.088 203.602 330.363 204.138 328.334 204.138C325.186 204.138 323.927 202.459 323.927 199.941V192.106H325.559V199.918C325.559 201.573 326.352 202.716 328.357 202.716C329.593 202.716 330.689 202.483 331.715 201.923V192.106H333.371V202.949Z" fill="#680DC5"/>
<path d="M320.341 203.112C319.245 203.625 317.472 204.138 315.747 204.138C310.477 204.138 307.703 200.757 307.703 195.768C307.703 190.964 310.384 187.257 315.421 187.257C316.96 187.257 318.662 187.607 319.921 188.213L319.524 189.635C318.242 189.076 316.936 188.772 315.444 188.772C311.363 188.772 309.451 191.897 309.451 195.768C309.451 199.825 311.573 202.623 315.794 202.623C316.843 202.623 317.892 202.46 318.778 202.18V196.794H315.234V195.348H320.341V203.112Z" fill="#680DC5"/>
<path d="M295.63 203.509C294.021 206.33 292.179 207.636 290.034 208.149L289.707 206.726C291.386 206.33 292.832 205.327 293.881 203.578C291.456 199.941 290.057 196.513 289.474 192.106H291.106C291.643 196.094 292.925 199.102 294.767 202.249C296.469 199.008 297.565 196.094 298.101 192.106H299.734C299.151 196.373 297.658 199.918 295.63 203.509Z" fill="#680DC5"/>
<path d="M286.503 203.905C286.503 206.82 284.615 208.312 281.56 208.312C279.951 208.312 278.949 208.102 277.806 207.682L278.179 206.307C279.252 206.703 280.184 206.89 281.49 206.89C283.775 206.89 284.871 205.77 284.871 204.022V202.646C284.148 203.089 283.216 203.392 281.98 203.392C278.739 203.392 276.664 201.387 276.664 197.796C276.664 194.112 278.902 191.827 282.423 191.827C284.055 191.827 285.547 192.246 286.503 192.759V203.905ZM278.342 197.703C278.342 200.384 279.765 201.97 282.166 201.97C283.309 201.97 284.172 201.666 284.871 201.177V193.739C284.265 193.482 283.356 193.249 282.423 193.249C279.928 193.249 278.342 194.905 278.342 197.703Z" fill="#680DC5"/>
<path d="M268.941 193.016C270.177 192.316 271.949 191.827 273.838 191.827C274.351 191.827 274.747 191.873 275.144 191.943L274.91 193.366C274.607 193.272 274.211 193.249 273.931 193.249C272.509 193.249 271.389 193.575 270.573 194.042V203.858H268.941V193.016Z" fill="#680DC5"/>
<path d="M265.05 201.946L265.353 203.322C264.21 203.858 262.881 204.138 261.412 204.138C257.751 204.138 255.373 201.97 255.373 197.959C255.373 194.392 257.402 191.827 260.759 191.827C263.86 191.827 265.516 194.088 265.516 196.933C265.516 197.446 265.493 197.889 265.446 198.309H257.052C257.192 201.293 258.871 202.716 261.529 202.716C262.718 202.716 263.954 202.413 265.05 201.946ZM260.759 193.226C258.567 193.226 257.285 194.811 257.075 197.143H263.884C263.907 196.98 263.907 196.886 263.907 196.7C263.907 194.928 262.998 193.226 260.759 193.226Z" fill="#680DC5"/>
<path d="M244.157 203.858H242.525V193.016C243.947 192.293 245.65 191.827 247.468 191.827C250.616 191.827 252.132 193.459 252.132 196.117V203.858H250.499V196.21C250.499 194.415 249.567 193.249 247.468 193.249C246.302 193.249 245.16 193.505 244.157 194.042V203.858Z" fill="#680DC5"/>
<path d="M239.201 202.389V203.858H229.688V187.536H239.201V189.005H231.366V194.741H238.082V196.21H231.366V202.389H239.201Z" fill="#680DC5"/>
<path d="M219.4 203.135C218.421 203.742 217.022 204.138 215.343 204.138C211.799 204.138 209.49 201.923 209.49 198.169C209.49 194.322 211.682 191.827 215.576 191.827C216.369 191.827 217.138 191.99 217.768 192.223V187.093L219.4 187V203.135ZM211.169 198.122C211.169 201.014 212.825 202.716 215.32 202.716C216.299 202.716 217.255 202.506 217.768 202.156V193.715C217.138 193.436 216.369 193.249 215.646 193.249C212.708 193.249 211.169 195.044 211.169 198.122Z" fill="#680DC5"/>
<path d="M206.87 197.982C206.87 201.643 204.958 204.138 201.553 204.138C198.196 204.138 196.26 201.643 196.26 197.982C196.26 194.322 198.196 191.827 201.553 191.827C204.958 191.827 206.87 194.322 206.87 197.982ZM197.939 197.982C197.939 200.827 199.129 202.716 201.553 202.716C204.048 202.716 205.191 200.827 205.191 197.982C205.191 195.138 204.048 193.249 201.553 193.249C199.129 193.249 197.939 195.138 197.939 197.982Z" fill="#680DC5"/>
<path d="M193.64 197.982C193.64 201.643 191.728 204.138 188.324 204.138C184.966 204.138 183.031 201.643 183.031 197.982C183.031 194.322 184.966 191.827 188.324 191.827C191.728 191.827 193.64 194.322 193.64 197.982ZM184.71 197.982C184.71 200.827 185.899 202.716 188.324 202.716C190.819 202.716 191.961 200.827 191.961 197.982C191.961 195.138 190.819 193.249 188.324 193.249C185.899 193.249 184.71 195.138 184.71 197.982Z" fill="#680DC5"/>
<path d="M180.073 203.112C178.978 203.625 177.205 204.138 175.48 204.138C170.21 204.138 167.436 200.757 167.436 195.768C167.436 190.964 170.117 187.257 175.154 187.257C176.692 187.257 178.395 187.607 179.654 188.213L179.257 189.635C177.975 189.076 176.669 188.772 175.177 188.772C171.096 188.772 169.184 191.897 169.184 195.768C169.184 199.825 171.306 202.623 175.527 202.623C176.576 202.623 177.625 202.46 178.511 202.18V196.794H174.967V195.348H180.073V203.112Z" fill="#680DC5"/>
<path d="M153.54 193.016C154.775 192.316 156.548 191.827 158.436 191.827C158.949 191.827 159.346 191.873 159.742 191.943L159.509 193.366C159.206 193.272 158.809 193.249 158.53 193.249C157.107 193.249 155.988 193.575 155.172 194.042V203.858H153.54V193.016Z" fill="#680DC5"/>
<path d="M149.339 202.949C148.056 203.602 146.331 204.138 144.302 204.138C141.154 204.138 139.895 202.459 139.895 199.941V192.106H141.527V199.918C141.527 201.573 142.32 202.716 144.325 202.716C145.561 202.716 146.657 202.483 147.683 201.923V192.106H149.339V202.949Z" fill="#680DC5"/>
<path d="M136.645 197.982C136.645 201.643 134.733 204.138 131.329 204.138C127.971 204.138 126.036 201.643 126.036 197.982C126.036 194.322 127.971 191.827 131.329 191.827C134.733 191.827 136.645 194.322 136.645 197.982ZM127.715 197.982C127.715 200.827 128.904 202.716 131.329 202.716C133.824 202.716 134.966 200.827 134.966 197.982C134.966 195.138 133.824 193.249 131.329 193.249C128.904 193.249 127.715 195.138 127.715 197.982Z" fill="#680DC5"/>
<path d="M118.471 203.858V196.98C115.999 193.692 114.251 190.894 112.875 187.536H114.647C115.813 190.381 117.165 192.619 119.334 195.581C121.479 192.643 122.808 190.381 123.974 187.536H125.746C124.324 190.894 122.621 193.715 120.15 196.933V203.858H118.471Z" fill="#680DC5"/>
<path d="M104.529 201.713H106.114C106.044 203.718 105.321 205.84 104.575 207.286H103.549C104.132 205.42 104.412 203.532 104.529 201.713Z" fill="#680DC5"/>
<path d="M100.866 200.198L101.473 203.346C100.493 203.789 98.9077 204.139 97.3221 204.139C93.5214 204.139 90.8866 201.644 90.8866 197.843C90.8866 194.066 93.3815 191.571 96.8558 191.571C99.8637 191.571 102.055 193.716 102.055 196.98C102.055 197.75 102.009 198.449 101.962 198.916H95.0837C95.4101 200.245 96.2728 200.828 97.7651 200.828C98.861 200.828 99.9103 200.571 100.866 200.198ZM96.8558 194.719C95.8765 194.719 95.2003 195.371 94.9904 196.584H98.2781V196.397C98.2781 195.302 97.6719 194.719 96.8558 194.719Z" fill="#680DC5"/>
<path d="M89.4852 197.843C89.4852 201.644 87.1535 204.139 83.4461 204.139C79.7387 204.139 77.3837 201.644 77.3837 197.843C77.3837 194.066 79.7387 191.571 83.4461 191.571C87.1535 191.571 89.4852 194.066 89.4852 197.843ZM81.4175 197.843C81.4175 199.755 82.187 200.874 83.4461 200.874C84.7052 200.874 85.4514 199.755 85.4514 197.843C85.4514 195.954 84.7052 194.835 83.4461 194.835C82.187 194.835 81.4175 195.954 81.4175 197.843Z" fill="#680DC5"/>
<path d="M75.5094 190.614C73.8305 194.415 71.732 197.423 69.2604 200.361H76.0923V203.858H64.2705V200.71C66.6722 197.959 69.4003 194.601 71.1957 191.034H64.527V187.536H75.5094V190.614Z" fill="#680DC5"/>
<path d="M41 197.143V195.721H62.5916V197.143H41Z" fill="#680DC5"/>
</svg>
