<svg width="452" height="265" viewBox="0 0 452 265" fill="none" xmlns="http://www.w3.org/2000/svg">
<g clip-path="url(#clip0_18_333)">
<path d="M410.721 216.771L418.298 264.416L366.222 226.63L77.462 237.854C31.756 239.631 -3.72195 205.754 0.313049 165.721L10.667 63.0148C14.613 23.8668 57.439 -5.49524 101.57 0.869763L380.21 41.0588C421.259 46.9788 451.872 76.5968 451.872 111.451V156.119C451.872 182.049 435.525 204.561 410.721 216.771Z" fill="white"/>
<path d="M377.475 80.7052C375.045 84.9588 372.18 86.8685 369.142 87.3604L368.505 83.975C370.213 83.7145 372.267 82.615 373.164 81.1103C370.01 76.799 368.39 72.8348 367.956 67.1924H371.978C372.18 72.1404 373.598 75.3233 375.247 78.0721C376.723 74.9182 377.475 72.1404 377.707 67.1924H381.671C381.295 72.3718 379.588 76.9726 377.475 80.7052Z" fill="#6E06C1"/>
<path d="M366.156 74.3679C366.156 79.1134 363.465 82.2673 358.951 82.2673C357.938 82.2673 357.244 82.1516 356.52 81.8912V87.3889H352.556V68.089C354.206 67.3366 356.52 66.8447 358.575 66.8447C363.32 66.8447 366.156 69.7383 366.156 74.3679ZM356.52 78.6215C357.07 78.8529 357.533 79.0266 358.372 79.0266C360.919 79.0266 362.105 77.464 362.105 74.4837C362.105 71.8795 361.005 70.1434 358.372 70.1434C357.649 70.1434 357.128 70.288 356.52 70.5195V78.6215Z" fill="#6E06C1"/>
<path d="M349.513 74.3679C349.513 79.1134 346.822 82.2673 342.308 82.2673C341.295 82.2673 340.6 82.1516 339.877 81.8912V87.3889H335.913V68.089C337.562 67.3366 339.877 66.8447 341.931 66.8447C346.677 66.8447 349.513 69.7383 349.513 74.3679ZM339.877 78.6215C340.427 78.8529 340.89 79.0266 341.729 79.0266C344.275 79.0266 345.462 77.464 345.462 74.4837C345.462 71.8795 344.362 70.1434 341.729 70.1434C341.005 70.1434 340.485 70.288 339.877 70.5195V78.6215Z" fill="#6E06C1"/>
<path d="M326.376 79.4606C327.244 79.4606 327.967 79.287 328.401 79.0555V75.9594C327.736 75.8147 327.041 75.7279 326.347 75.7279C325.016 75.7279 323.974 76.2488 323.974 77.6087C323.974 78.824 324.842 79.4606 326.376 79.4606ZM332.278 81.052C331.092 81.6597 328.864 82.3252 325.97 82.3252C322.006 82.3252 320.01 80.3865 320.01 77.7823C320.01 74.9177 322.354 73.2395 325.826 73.2105C326.636 73.2105 327.678 73.3263 328.401 73.442V72.7476C328.401 70.9825 327.388 70.1434 325.45 70.1434C324.176 70.1434 322.817 70.3459 321.63 70.8378L320.907 67.7128C322.151 67.192 324.148 66.8447 325.913 66.8447C330.166 66.8447 332.278 69.1017 332.278 73.008V81.052Z" fill="#6E06C1"/>
<path d="M308.089 81.9782H304.096V61.2025L308.089 61V67.4237C308.87 67.0475 309.796 66.845 311.069 66.845C314.802 66.845 317.29 68.9283 317.29 72.7767V81.9782H313.297V73.095C313.297 71.0985 312.284 70.1725 310.433 70.1725C309.622 70.1725 308.754 70.404 308.089 70.7223V81.9782Z" fill="#6E06C1"/>
<path d="M290.528 80.7052C288.097 84.9588 285.232 86.8685 282.194 87.3604L281.558 83.975C283.265 83.7145 285.319 82.615 286.216 81.1103C283.062 76.799 281.442 72.8348 281.008 67.1924H285.03C285.232 72.1404 286.65 75.3233 288.3 78.0721C289.775 74.9182 290.528 72.1404 290.759 67.1924H294.723C294.347 72.3718 292.64 76.9726 290.528 80.7052Z" fill="#6E06C1"/>
<path d="M268.107 67.1924H279.132V69.8834C277.338 73.211 275.457 75.8441 272.708 78.7955H279.566V81.9784H267.789V79.2874C270.567 76.4517 273.345 73.0663 274.82 70.3753H268.107V67.1924Z" fill="#6E06C1"/>
<path d="M266.069 74.5705C266.069 79.2291 263.349 82.3252 258.864 82.3252C254.408 82.3252 251.63 79.2291 251.63 74.5705C251.63 69.9408 254.408 66.8447 258.864 66.8447C263.349 66.8447 266.069 69.9408 266.069 74.5705ZM255.71 74.5705C255.71 77.3194 256.839 79.0266 258.864 79.0266C260.919 79.0266 261.989 77.3194 261.989 74.5705C261.989 71.8506 260.919 70.1434 258.864 70.1434C256.839 70.1434 255.71 71.8506 255.71 74.5705Z" fill="#6E06C1"/>
<path d="M245.671 66.8447C247.32 66.8447 248.97 67.2209 250.04 67.7128L249.288 70.8668C248.188 70.4038 247.002 70.1434 246.018 70.1434C243.674 70.1434 242.401 71.7927 242.401 74.5126C242.401 77.493 243.732 79.0266 246.221 79.0266C247.176 79.0266 248.333 78.7661 249.433 78.2742L250.069 81.4861C249.085 81.978 247.581 82.3252 245.902 82.3252C241.099 82.3252 238.321 79.3449 238.321 74.6284C238.321 69.9408 241.07 66.8447 245.671 66.8447Z" fill="#6E06C1"/>
<path d="M222.728 79.4606C223.596 79.4606 224.319 79.287 224.753 79.0555V75.9594C224.088 75.8147 223.393 75.7279 222.699 75.7279C221.368 75.7279 220.326 76.2488 220.326 77.6087C220.326 78.824 221.194 79.4606 222.728 79.4606ZM228.631 81.052C227.444 81.6597 225.216 82.3252 222.323 82.3252C218.358 82.3252 216.362 80.3865 216.362 77.7823C216.362 74.9177 218.706 73.2395 222.178 73.2105C222.988 73.2105 224.03 73.3263 224.753 73.442V72.7476C224.753 70.9825 223.74 70.1434 221.802 70.1434C220.529 70.1434 219.169 70.3459 217.982 70.8378L217.259 67.7128C218.503 67.192 220.5 66.8447 222.265 66.8447C226.518 66.8447 228.631 69.1017 228.631 73.008V81.052Z" fill="#6E06C1"/>
<path d="M206.254 78.1296L206.891 81.3414C205.618 81.9201 203.737 82.3252 201.827 82.3252C197.169 82.3252 193.986 79.3738 193.986 74.5705C193.986 69.9698 196.908 66.8447 201.162 66.8447C204.952 66.8447 207.441 69.5357 207.441 73.4131C207.441 74.2811 207.383 75.0335 207.325 75.6122H198.181C198.557 77.927 199.917 78.9687 202.232 78.9687C203.65 78.9687 205.01 78.6504 206.254 78.1296ZM201.162 70.0276C199.483 70.0276 198.384 71.214 198.123 73.1816H203.621V72.8344C203.621 71.214 202.753 70.0276 201.162 70.0276Z" fill="#6E06C1"/>
<path d="M182.317 67.1924C182.635 72.1404 183.706 75.4969 185.355 78.7666C187.062 75.4969 188.162 72.1404 188.422 67.1924H192.415C191.836 73.0084 190.592 76.7411 187.583 81.9784H183.156C180.031 76.7411 178.729 73.0084 178.295 67.1924H182.317Z" fill="#6E06C1"/>
<path d="M168.517 68.1179C170.08 67.3366 172.51 66.8447 174.594 66.8447C175.635 66.8447 176.619 66.9605 177.198 67.1051L176.619 70.3749C176.127 70.2012 175.52 70.1434 174.912 70.1434C173.841 70.1434 173.118 70.3459 172.51 70.6353V81.978H168.517V68.1179Z" fill="#6E06C1"/>
<path d="M164.292 78.1296L164.929 81.3414C163.655 81.9201 161.775 82.3252 159.865 82.3252C155.206 82.3252 152.023 79.3738 152.023 74.5705C152.023 69.9698 154.946 66.8447 159.199 66.8447C162.99 66.8447 165.478 69.5357 165.478 73.4131C165.478 74.2811 165.421 75.0335 165.363 75.6122H156.219C156.595 77.927 157.955 78.9687 160.27 78.9687C161.688 78.9687 163.048 78.6504 164.292 78.1296ZM159.199 70.0276C157.521 70.0276 156.422 71.214 156.161 73.1816H161.659V72.8344C161.659 71.214 160.791 70.0276 159.199 70.0276Z" fill="#6E06C1"/>
<path d="M149.552 67.6839L149.118 70.9246C147.786 70.5195 146.484 70.1434 145.095 70.1434C143.88 70.1434 143.07 70.4906 143.07 71.3297C143.07 72.1978 143.736 72.4582 145.472 72.9501C148.828 73.876 150.391 75.0045 150.391 77.6666C150.391 80.7916 147.844 82.3252 144.314 82.3252C142.462 82.3252 140.408 81.949 139.077 81.3703L139.627 78.1006C140.9 78.5925 142.52 79.0266 144.227 79.0266C145.558 79.0266 146.484 78.5636 146.484 77.7534C146.484 76.7985 145.761 76.5381 143.388 75.8726C140.726 75.1781 139.135 73.9339 139.135 71.4165C139.135 68.4651 141.247 66.8447 144.777 66.8447C146.427 66.8447 148.307 67.192 149.552 67.6839Z" fill="#6E06C1"/>
<path d="M135.894 78.1296L136.53 81.3414C135.257 81.9201 133.376 82.3252 131.466 82.3252C126.808 82.3252 123.625 79.3738 123.625 74.5705C123.625 69.9698 126.547 66.8447 130.801 66.8447C134.591 66.8447 137.08 69.5357 137.08 73.4131C137.08 74.2811 137.022 75.0335 136.964 75.6122H127.821C128.197 77.927 129.557 78.9687 131.871 78.9687C133.289 78.9687 134.649 78.6504 135.894 78.1296ZM130.801 70.0276C129.123 70.0276 128.023 71.214 127.763 73.1816H133.26V72.8344C133.26 71.214 132.392 70.0276 130.801 70.0276Z" fill="#6E06C1"/>
<path d="M120.582 81.139C119.164 81.8045 116.965 82.3253 114.824 82.3253C109.905 82.3253 106.953 79.4318 106.953 74.831C106.953 69.9988 110.078 66.8448 114.824 66.8448C115.431 66.8448 116.068 66.9316 116.618 67.0474V61.2314L120.582 61.0288V81.139ZM111.033 74.6574C111.033 77.522 112.48 79.0267 114.795 79.0267C115.547 79.0267 116.184 78.882 116.618 78.6505V70.4328C116.097 70.2592 115.547 70.1435 115.055 70.1435C112.451 70.1435 111.033 71.6771 111.033 74.6574Z" fill="#6E06C1"/>
<path d="M97.1034 81.0525C95.9749 81.5154 93.255 82.3256 90.5061 82.3256C85.616 82.3256 83.9956 79.8372 83.9956 76.1334V67.1924H87.9598V76.1334C87.9598 77.9564 88.77 79.027 90.5929 79.027C91.5478 79.027 92.3869 78.8534 93.1103 78.5062V67.1924H97.1034V81.0525Z" fill="#6E06C1"/>
<path d="M81.1252 74.5705C81.1252 79.2291 78.4053 82.3252 73.9203 82.3252C69.4642 82.3252 66.6864 79.2291 66.6864 74.5705C66.6864 69.9408 69.4642 66.8447 73.9203 66.8447C78.4053 66.8447 81.1252 69.9408 81.1252 74.5705ZM70.7663 74.5705C70.7663 77.3194 71.8948 79.0266 73.9203 79.0266C75.9747 79.0266 77.0453 77.3194 77.0453 74.5705C77.0453 71.8506 75.9747 70.1434 73.9203 70.1434C71.8948 70.1434 70.7663 71.8506 70.7663 74.5705Z" fill="#6E06C1"/>
<path d="M56.7053 81.978V73.876C53.8407 69.7672 51.4391 65.8609 49.9923 61.7231H54.2458C55.3164 64.5588 56.5317 67.0473 58.7887 70.5195C61.0457 67.0762 62.232 64.5588 63.3026 61.7231H67.5561C66.0515 65.8899 63.6499 69.854 60.8431 73.876V81.978H56.7053Z" fill="#6E06C1"/>
<path d="M47.5037 68.8703H43.6842C43.7131 65.9189 45.4203 62.9675 46.8382 61.1445H48.9794C48.0245 63.7777 47.5326 66.4687 47.5037 68.8703ZM41.6298 68.8703H37.8103C37.8392 65.9189 39.5175 62.9675 40.9353 61.1445H43.1055C42.1217 63.7777 41.6587 66.4687 41.6298 68.8703Z" fill="#6E06C1"/>
<path d="M413.983 102.407L413.549 105.647C412.218 105.242 410.916 104.866 409.527 104.866C408.312 104.866 407.502 105.213 407.502 106.052C407.502 106.92 408.167 107.181 409.904 107.673C413.26 108.599 414.823 109.727 414.823 112.389C414.823 115.514 412.276 117.048 408.746 117.048C406.894 117.048 404.84 116.672 403.509 116.093L404.059 112.823C405.332 113.315 406.952 113.749 408.659 113.749C409.99 113.749 410.916 113.286 410.916 112.476C410.916 111.521 410.193 111.261 407.82 110.595C405.158 109.901 403.567 108.657 403.567 106.139C403.567 103.188 405.679 101.567 409.209 101.567C410.858 101.567 412.739 101.915 413.983 102.407Z" fill="#6E06C1"/>
<path d="M391.644 116.701H387.68V102.841C389.503 102.059 391.992 101.567 394.22 101.567C398.444 101.567 400.875 103.651 400.875 107.499V116.701H396.882V107.789C396.882 105.792 395.956 104.866 394.191 104.866C393.265 104.866 392.397 105.04 391.644 105.387V116.701Z" fill="#6E06C1"/>
<path d="M384.665 109.293C384.665 113.952 381.945 117.048 377.46 117.048C373.004 117.048 370.226 113.952 370.226 109.293C370.226 104.663 373.004 101.567 377.46 101.567C381.945 101.567 384.665 104.663 384.665 109.293ZM374.306 109.293C374.306 112.042 375.435 113.749 377.46 113.749C379.515 113.749 380.585 112.042 380.585 109.293C380.585 106.573 379.515 104.866 377.46 104.866C375.435 104.866 374.306 106.573 374.306 109.293Z" fill="#6E06C1"/>
<path d="M367.175 101.914V116.7H363.182V101.914H367.175ZM365.178 99.9468C363.703 99.9468 362.863 99.0498 362.863 97.7188C362.863 96.3877 363.703 95.4907 365.178 95.4907C366.625 95.4907 367.464 96.3877 367.464 97.7188C367.464 99.0498 366.625 99.9468 365.178 99.9468Z" fill="#6E06C1"/>
<path d="M360.717 116.787C360.022 116.961 359.096 117.048 358.199 117.048C354.756 117.048 352.991 115.167 352.991 111.347V105.097H351.023V101.914H352.991V98.7025L356.984 98.5V101.914H360.196V105.097H356.984V111.289C356.984 112.968 357.678 113.749 358.981 113.749C359.588 113.749 360.138 113.662 360.514 113.575L360.717 116.787Z" fill="#6E06C1"/>
<path d="M348.735 115.775C347.606 116.238 344.886 117.048 342.137 117.048C337.247 117.048 335.627 114.559 335.627 110.856V101.915H339.591V110.856C339.591 112.679 340.401 113.749 342.224 113.749C343.179 113.749 344.018 113.576 344.742 113.228V101.915H348.735V115.775Z" fill="#6E06C1"/>
<path d="M330.946 95.7222V111.347C330.946 112.91 331.351 113.749 332.508 113.749C332.797 113.749 333.087 113.72 333.347 113.662L333.637 116.816C333.087 116.932 332.19 117.048 331.611 117.048C328.284 117.048 326.953 114.877 326.953 111.405V95.9537L330.946 95.7222Z" fill="#6E06C1"/>
<path d="M324.053 109.293C324.053 113.952 321.333 117.048 316.848 117.048C312.392 117.048 309.614 113.952 309.614 109.293C309.614 104.663 312.392 101.567 316.848 101.567C321.333 101.567 324.053 104.663 324.053 109.293ZM313.694 109.293C313.694 112.042 314.823 113.749 316.848 113.749C318.903 113.749 319.973 112.042 319.973 109.293C319.973 106.573 318.903 104.866 316.848 104.866C314.823 104.866 313.694 106.573 313.694 109.293Z" fill="#6E06C1"/>
<path d="M307.143 102.407L306.709 105.647C305.378 105.242 304.075 104.866 302.687 104.866C301.471 104.866 300.661 105.213 300.661 106.052C300.661 106.92 301.327 107.181 303.063 107.673C306.419 108.599 307.982 109.727 307.982 112.389C307.982 115.514 305.435 117.048 301.905 117.048C300.053 117.048 297.999 116.672 296.668 116.093L297.218 112.823C298.491 113.315 300.111 113.749 301.818 113.749C303.15 113.749 304.075 113.286 304.075 112.476C304.075 111.521 303.352 111.261 300.979 110.595C298.317 109.901 296.726 108.657 296.726 106.139C296.726 103.188 298.838 101.567 302.368 101.567C304.018 101.567 305.898 101.915 307.143 102.407Z" fill="#6E06C1"/>
<path d="M286.618 112.852L287.255 116.064C285.981 116.643 284.101 117.048 282.191 117.048C277.532 117.048 274.349 114.096 274.349 109.293C274.349 104.692 277.272 101.567 281.525 101.567C285.316 101.567 287.804 104.258 287.804 108.136C287.804 109.004 287.747 109.756 287.689 110.335H278.545C278.921 112.65 280.281 113.691 282.596 113.691C284.014 113.691 285.374 113.373 286.618 112.852ZM281.525 104.75C279.847 104.75 278.748 105.937 278.487 107.904H283.985V107.557C283.985 105.937 283.117 104.75 281.525 104.75Z" fill="#6E06C1"/>
<path d="M262.68 101.915C262.999 106.863 264.069 110.219 265.719 113.489C267.426 110.219 268.525 106.863 268.786 101.915H272.779C272.2 107.731 270.956 111.463 267.947 116.701H263.52C260.395 111.463 259.092 107.731 258.658 101.915H262.68Z" fill="#6E06C1"/>
<path d="M250.561 114.183C251.429 114.183 252.153 114.01 252.587 113.778V110.682C251.921 110.537 251.227 110.451 250.532 110.451C249.201 110.451 248.159 110.971 248.159 112.331C248.159 113.547 249.028 114.183 250.561 114.183ZM256.464 115.775C255.278 116.382 253.05 117.048 250.156 117.048C246.192 117.048 244.195 115.109 244.195 112.505C244.195 109.64 246.539 107.962 250.011 107.933C250.822 107.933 251.863 108.049 252.587 108.165V107.47C252.587 105.705 251.574 104.866 249.635 104.866C248.362 104.866 247.002 105.069 245.816 105.56L245.092 102.435C246.337 101.915 248.333 101.567 250.098 101.567C254.352 101.567 256.464 103.824 256.464 107.731V115.775Z" fill="#6E06C1"/>
<path d="M232.274 116.7H228.281V95.9247L232.274 95.7222V102.146C233.056 101.77 233.982 101.567 235.255 101.567C238.987 101.567 241.476 103.65 241.476 107.499V116.7H237.483V107.817C237.483 105.821 236.47 104.895 234.618 104.895C233.808 104.895 232.94 105.126 232.274 105.444V116.7Z" fill="#6E06C1"/>
<path d="M217.19 112.852L217.826 116.064C216.553 116.643 214.672 117.048 212.763 117.048C208.104 117.048 204.921 114.096 204.921 109.293C204.921 104.692 207.844 101.567 212.097 101.567C215.888 101.567 218.376 104.258 218.376 108.136C218.376 109.004 218.318 109.756 218.26 110.335H209.117C209.493 112.65 210.853 113.691 213.168 113.691C214.586 113.691 215.946 113.373 217.19 112.852ZM212.097 104.75C210.419 104.75 209.319 105.937 209.059 107.904H214.557V107.557C214.557 105.937 213.689 104.75 212.097 104.75Z" fill="#6E06C1"/>
<path d="M194.044 101.915C194.363 106.863 195.289 110.335 196.649 113.604C198.24 110.335 199.195 106.863 199.397 101.915H203.362C202.812 107.731 201.741 111.463 198.819 116.701H194.826C193.784 114.675 192.945 112.881 192.279 111.116C191.701 112.939 190.919 114.878 189.936 116.701H186.087C182.875 111.463 182.007 107.731 181.544 101.915H185.48C185.769 106.863 186.724 110.335 188.228 113.604C189.531 111.116 190.399 107.788 190.688 105.155C190.543 104.143 190.428 103.072 190.341 101.915H194.044Z" fill="#6E06C1"/>
<path d="M171.982 115.862C170.564 116.527 168.365 117.048 166.223 117.048C161.304 117.048 158.353 114.154 158.353 109.554C158.353 104.721 161.478 101.567 166.223 101.567C166.831 101.567 167.468 101.654 168.017 101.77V95.954L171.982 95.7515V115.862ZM162.433 109.38C162.433 112.245 163.88 113.749 166.195 113.749C166.947 113.749 167.583 113.605 168.017 113.373V105.155C167.497 104.982 166.947 104.866 166.455 104.866C163.851 104.866 162.433 106.4 162.433 109.38Z" fill="#6E06C1"/>
<path d="M146.286 116.701H142.322V102.841C144.145 102.059 146.633 101.567 148.861 101.567C153.086 101.567 155.517 103.651 155.517 107.499V116.701H151.523V107.789C151.523 105.792 150.598 104.866 148.833 104.866C147.907 104.866 147.038 105.04 146.286 105.387V116.701Z" fill="#6E06C1"/>
<path d="M132.785 114.183C133.653 114.183 134.376 114.01 134.81 113.778V110.682C134.145 110.537 133.45 110.451 132.756 110.451C131.425 110.451 130.383 110.971 130.383 112.331C130.383 113.547 131.251 114.183 132.785 114.183ZM138.688 115.775C137.501 116.382 135.273 117.048 132.38 117.048C128.415 117.048 126.419 115.109 126.419 112.505C126.419 109.64 128.763 107.962 132.235 107.933C133.045 107.933 134.087 108.049 134.81 108.165V107.47C134.81 105.705 133.797 104.866 131.859 104.866C130.586 104.866 129.226 105.069 128.039 105.56L127.316 102.435C128.56 101.915 130.557 101.567 132.322 101.567C136.575 101.567 138.688 103.824 138.688 107.731V115.775Z" fill="#6E06C1"/>
<path d="M113.22 112.794H117.04C117.011 115.891 115.593 119.073 114.32 120.983H112.179C112.815 118.176 113.134 115.312 113.22 112.794Z" fill="#6E06C1"/>
<path d="M108.879 112.852L109.516 116.064C108.243 116.643 106.362 117.048 104.452 117.048C99.7937 117.048 96.6108 114.096 96.6108 109.293C96.6108 104.692 99.5333 101.567 103.787 101.567C107.577 101.567 110.066 104.258 110.066 108.136C110.066 109.004 110.008 109.756 109.95 110.335H100.806C101.183 112.65 102.543 113.691 104.857 113.691C106.275 113.691 107.635 113.373 108.879 112.852ZM103.787 104.75C102.109 104.75 101.009 105.937 100.749 107.904H106.246V107.557C106.246 105.937 105.378 104.75 103.787 104.75Z" fill="#6E06C1"/>
<path d="M93.7478 116.701H89.7836V107.789C89.7836 105.85 89.0023 104.866 87.1794 104.866C86.1956 104.866 85.2118 105.155 84.4884 105.56C84.7199 106.342 84.8356 107.268 84.8356 108.28V116.701H80.9583V107.789C80.9583 105.85 80.2059 104.866 78.3541 104.866C77.5439 104.866 76.7626 105.04 76.0103 105.387V116.701H72.0461V102.841C73.898 102.03 76.2997 101.567 78.5566 101.567C80.2349 101.567 81.6238 101.972 82.6365 102.754C83.8518 102.146 85.5879 101.567 87.353 101.567C91.4618 101.567 93.7478 103.709 93.7478 107.499V116.701Z" fill="#6E06C1"/>
<path d="M69.0311 109.293C69.0311 113.952 66.3112 117.048 61.8262 117.048C57.3701 117.048 54.5923 113.952 54.5923 109.293C54.5923 104.663 57.3701 101.567 61.8262 101.567C66.3112 101.567 69.0311 104.663 69.0311 109.293ZM58.6722 109.293C58.6722 112.042 59.8007 113.749 61.8262 113.749C63.8806 113.749 64.9512 112.042 64.9512 109.293C64.9512 106.573 63.8806 104.866 61.8262 104.866C59.8007 104.866 58.6722 106.573 58.6722 109.293Z" fill="#6E06C1"/>
<path d="M42.5268 116.7H38.5337V95.9247L42.5268 95.7222V102.146C43.308 101.77 44.234 101.567 45.5071 101.567C49.2398 101.567 51.7283 103.65 51.7283 107.499V116.7H47.7352V107.817C47.7352 105.821 46.7224 104.895 44.8706 104.895C44.0604 104.895 43.1923 105.126 42.5268 105.444V116.7Z" fill="#6E06C1"/>
<path d="M378.508 130.59H382.328C382.299 133.541 380.591 136.493 379.174 138.316H377.032C377.987 135.682 378.45 132.991 378.508 130.59ZM384.382 130.59H388.201C388.173 133.541 386.465 136.493 385.047 138.316H382.906C383.89 135.682 384.353 132.991 384.382 130.59Z" fill="#6E06C1"/>
<path d="M372.407 151.741C370.903 151.741 370.093 150.873 370.093 149.484C370.093 148.153 370.903 147.285 372.407 147.285C373.883 147.285 374.693 148.153 374.693 149.484C374.693 150.873 373.883 151.741 372.407 151.741Z" fill="#6E06C1"/>
<path d="M367.302 137.129L366.868 140.369C365.537 139.964 364.235 139.588 362.846 139.588C361.631 139.588 360.821 139.935 360.821 140.775C360.821 141.643 361.486 141.903 363.222 142.395C366.579 143.321 368.141 144.449 368.141 147.111C368.141 150.236 365.595 151.77 362.065 151.77C360.213 151.77 358.159 151.394 356.828 150.815L357.377 147.545C358.651 148.037 360.271 148.471 361.978 148.471C363.309 148.471 364.235 148.008 364.235 147.198C364.235 146.243 363.512 145.983 361.139 145.317C358.477 144.623 356.886 143.379 356.886 140.861C356.886 137.91 358.998 136.29 362.528 136.29C364.177 136.29 366.058 136.637 367.302 137.129Z" fill="#6E06C1"/>
<path d="M355.404 151.51C354.71 151.683 353.784 151.77 352.887 151.77C349.444 151.77 347.679 149.889 347.679 146.07V139.82H345.711V136.637H347.679V133.425L351.672 133.223V136.637H354.883V139.82H351.672V146.012C351.672 147.69 352.366 148.472 353.668 148.472C354.276 148.472 354.826 148.385 355.202 148.298L355.404 151.51Z" fill="#6E06C1"/>
<path d="M343.934 137.129L343.499 140.369C342.168 139.964 340.866 139.588 339.477 139.588C338.262 139.588 337.452 139.935 337.452 140.775C337.452 141.643 338.117 141.903 339.854 142.395C343.21 143.321 344.773 144.449 344.773 147.111C344.773 150.236 342.226 151.77 338.696 151.77C336.844 151.77 334.79 151.394 333.459 150.815L334.009 147.545C335.282 148.037 336.902 148.471 338.609 148.471C339.94 148.471 340.866 148.008 340.866 147.198C340.866 146.243 340.143 145.983 337.77 145.317C335.108 144.623 333.517 143.379 333.517 140.861C333.517 137.91 335.629 136.29 339.159 136.29C340.808 136.29 342.689 136.637 343.934 137.129Z" fill="#6E06C1"/>
<path d="M331.457 144.015C331.457 148.674 328.737 151.77 324.252 151.77C319.796 151.77 317.018 148.674 317.018 144.015C317.018 139.386 319.796 136.29 324.252 136.29C328.737 136.29 331.457 139.386 331.457 144.015ZM321.098 144.015C321.098 146.764 322.226 148.471 324.252 148.471C326.306 148.471 327.377 146.764 327.377 144.015C327.377 141.295 326.306 139.588 324.252 139.588C322.226 139.588 321.098 141.295 321.098 144.015Z" fill="#6E06C1"/>
<path d="M311.058 136.29C312.708 136.29 314.357 136.666 315.427 137.158L314.675 140.312C313.576 139.849 312.389 139.588 311.405 139.588C309.062 139.588 307.789 141.238 307.789 143.957C307.789 146.938 309.12 148.471 311.608 148.471C312.563 148.471 313.72 148.211 314.82 147.719L315.456 150.931C314.473 151.423 312.968 151.77 311.29 151.77C306.486 151.77 303.709 148.79 303.709 144.073C303.709 139.386 306.457 136.29 311.058 136.29Z" fill="#6E06C1"/>
<path d="M286.718 137.563C288.28 136.781 290.711 136.29 292.794 136.29C293.836 136.29 294.819 136.405 295.398 136.55L294.819 139.82C294.328 139.646 293.72 139.588 293.112 139.588C292.042 139.588 291.318 139.791 290.711 140.08V151.423H286.718V137.563Z" fill="#6E06C1"/>
<path d="M282.895 150.497C281.767 150.96 279.047 151.77 276.298 151.77C271.408 151.77 269.787 149.282 269.787 145.578V136.637H273.752V145.578C273.752 147.401 274.562 148.472 276.385 148.472C277.34 148.472 278.179 148.298 278.902 147.951V136.637H282.895V150.497Z" fill="#6E06C1"/>
<path d="M266.917 144.015C266.917 148.674 264.197 151.77 259.712 151.77C255.256 151.77 252.478 148.674 252.478 144.015C252.478 139.386 255.256 136.29 259.712 136.29C264.197 136.29 266.917 139.386 266.917 144.015ZM256.558 144.015C256.558 146.764 257.687 148.471 259.712 148.471C261.766 148.471 262.837 146.764 262.837 144.015C262.837 141.295 261.766 139.588 259.712 139.588C257.687 139.588 256.558 141.295 256.558 144.015Z" fill="#6E06C1"/>
<path d="M246.729 150.15C244.298 154.404 241.434 156.313 238.395 156.805L237.759 153.42C239.466 153.159 241.52 152.06 242.417 150.555C239.263 146.244 237.643 142.28 237.209 136.637H241.231C241.434 141.585 242.851 144.768 244.501 147.517C245.976 144.363 246.729 141.585 246.96 136.637H250.924C250.548 141.817 248.841 146.417 246.729 150.15Z" fill="#6E06C1"/>
<path d="M227.733 150.584C226.316 151.249 224.116 151.77 221.975 151.77C217.056 151.77 214.105 148.877 214.105 144.276C214.105 139.444 217.23 136.29 221.975 136.29C222.583 136.29 223.219 136.376 223.769 136.492V130.676L227.733 130.474V150.584ZM218.185 144.102C218.185 146.967 219.631 148.471 221.946 148.471C222.699 148.471 223.335 148.327 223.769 148.095V139.878C223.248 139.704 222.699 139.588 222.207 139.588C219.602 139.588 218.185 141.122 218.185 144.102Z" fill="#6E06C1"/>
<path d="M202.038 151.423H198.074V137.563C199.897 136.781 202.385 136.29 204.613 136.29C208.838 136.29 211.268 138.373 211.268 142.221V151.423H207.275V142.511C207.275 140.514 206.349 139.588 204.584 139.588C203.658 139.588 202.79 139.762 202.038 140.109V151.423Z" fill="#6E06C1"/>
<path d="M194.28 150.497C193.152 150.96 190.432 151.77 187.683 151.77C182.793 151.77 181.172 149.282 181.172 145.578V136.637H185.137V145.578C185.137 147.401 185.947 148.472 187.77 148.472C188.725 148.472 189.564 148.298 190.287 147.951V136.637H194.28V150.497Z" fill="#6E06C1"/>
<path d="M178.302 144.015C178.302 148.674 175.582 151.77 171.097 151.77C166.641 151.77 163.863 148.674 163.863 144.015C163.863 139.386 166.641 136.29 171.097 136.29C175.582 136.29 178.302 139.386 178.302 144.015ZM167.943 144.015C167.943 146.764 169.072 148.471 171.097 148.471C173.152 148.471 174.222 146.764 174.222 144.015C174.222 141.295 173.152 139.588 171.097 139.588C169.072 139.588 167.943 141.295 167.943 144.015Z" fill="#6E06C1"/>
<path d="M154.106 137.563C155.668 136.781 158.099 136.29 160.182 136.29C161.224 136.29 162.208 136.405 162.787 136.55L162.208 139.82C161.716 139.646 161.108 139.588 160.501 139.588C159.43 139.588 158.707 139.791 158.099 140.08V151.423H154.106V137.563Z" fill="#6E06C1"/>
<path d="M150.251 150.497C150.251 154.577 147.444 156.921 142.93 156.921C140.731 156.921 139.429 156.66 137.867 156.024L138.706 152.87C139.921 153.361 141.252 153.593 142.699 153.593C144.927 153.593 146.287 152.667 146.287 150.902V150.236C145.39 150.584 144.464 150.757 143.567 150.757C139.285 150.757 136.651 148.24 136.651 143.871C136.651 139.212 139.805 136.29 144.464 136.29C146.75 136.29 148.949 136.868 150.251 137.447V150.497ZM140.731 143.523C140.731 145.925 141.976 147.43 144.204 147.43C145.014 147.43 145.679 147.227 146.287 146.938V139.906C145.737 139.733 145.101 139.588 144.464 139.588C142.091 139.588 140.731 141.151 140.731 143.523Z" fill="#6E06C1"/>
<path d="M127.551 143.813C127.551 148.558 124.86 151.712 120.346 151.712C119.334 151.712 118.639 151.596 117.916 151.336V156.834H113.952V137.534C115.601 136.781 117.916 136.29 119.97 136.29C124.716 136.29 127.551 139.183 127.551 143.813ZM117.916 148.066C118.466 148.298 118.929 148.471 119.768 148.471C122.314 148.471 123.5 146.909 123.5 143.929C123.5 141.324 122.401 139.588 119.768 139.588C119.044 139.588 118.523 139.733 117.916 139.964V148.066Z" fill="#6E06C1"/>
<path d="M108.9 130.445V146.07C108.9 147.632 109.305 148.472 110.462 148.472C110.752 148.472 111.041 148.443 111.301 148.385L111.591 151.539C111.041 151.655 110.144 151.77 109.565 151.77C106.238 151.77 104.907 149.6 104.907 146.128V130.676L108.9 130.445Z" fill="#6E06C1"/>
<path d="M100.826 147.574L101.463 150.786C100.19 151.365 98.3089 151.77 96.3991 151.77C91.7405 151.77 88.5576 148.819 88.5576 144.015C88.5576 139.415 91.4801 136.29 95.7336 136.29C99.5242 136.29 102.013 138.981 102.013 142.858C102.013 143.726 101.955 144.478 101.897 145.057H92.7533C93.1294 147.372 94.4894 148.414 96.8042 148.414C98.2221 148.414 99.582 148.095 100.826 147.574ZM95.7336 139.472C94.0554 139.472 92.9558 140.659 92.6954 142.626H98.1931V142.279C98.1931 140.659 97.3251 139.472 95.7336 139.472Z" fill="#6E06C1"/>
<path d="M76.492 151.423H72.4989V130.647L76.492 130.445V136.868C77.2733 136.492 78.1992 136.29 79.4724 136.29C83.205 136.29 85.6935 138.373 85.6935 142.222V151.423H81.7004V142.54C81.7004 140.543 80.6876 139.617 78.8358 139.617C78.0256 139.617 77.1575 139.849 76.492 140.167V151.423Z" fill="#6E06C1"/>
<path d="M62.5885 144.015C62.5885 148.674 59.8685 151.77 55.3835 151.77C50.9275 151.77 48.1497 148.674 48.1497 144.015C48.1497 139.386 50.9275 136.29 55.3835 136.29C59.8685 136.29 62.5885 139.386 62.5885 144.015ZM52.2296 144.015C52.2296 146.764 53.358 148.471 55.3835 148.471C57.4379 148.471 58.5086 146.764 58.5086 144.015C58.5086 141.295 57.4379 139.588 55.3835 139.588C53.358 139.588 52.2296 141.295 52.2296 144.015Z" fill="#6E06C1"/>
<path d="M46.6934 151.51C45.9989 151.683 45.073 151.77 44.176 151.77C40.7327 151.77 38.9676 149.889 38.9676 146.07V139.82H37V136.637H38.9676V133.425L42.9607 133.223V136.637H46.1725V139.82H42.9607V146.012C42.9607 147.69 43.6552 148.472 44.9573 148.472C45.5649 148.472 46.1147 148.385 46.4908 148.298L46.6934 151.51Z" fill="#6E06C1"/>
<path d="M372.818 189.458L373.132 190.881C371.95 191.435 370.575 191.725 369.056 191.725C365.27 191.725 362.81 189.482 362.81 185.334C362.81 181.644 364.908 178.992 368.381 178.992C371.588 178.992 373.3 181.331 373.3 184.273C373.3 184.804 373.276 185.262 373.228 185.696H364.546C364.691 188.783 366.427 190.254 369.177 190.254C370.406 190.254 371.685 189.94 372.818 189.458ZM368.381 180.439C366.114 180.439 364.787 182.079 364.57 184.49H371.612C371.636 184.321 371.636 184.225 371.636 184.032C371.636 182.199 370.696 180.439 368.381 180.439Z" fill="#680DC5"/>
<path d="M359.235 190.688C358.222 191.315 356.775 191.725 355.039 191.725C351.373 191.725 348.986 189.434 348.986 185.551C348.986 181.572 351.253 178.992 355.28 178.992C356.1 178.992 356.896 179.161 357.547 179.402V174.096L359.235 174V190.688ZM350.722 185.503C350.722 188.494 352.434 190.254 355.015 190.254C356.028 190.254 357.016 190.037 357.547 189.675V180.945C356.896 180.656 356.1 180.463 355.352 180.463C352.314 180.463 350.722 182.32 350.722 185.503Z" fill="#680DC5"/>
<path d="M345.419 179.282V191.436H343.731V179.282H345.419ZM344.575 176.75C343.851 176.75 343.441 176.243 343.441 175.592C343.441 174.965 343.851 174.483 344.575 174.483C345.298 174.483 345.708 174.965 345.708 175.592C345.708 176.243 345.298 176.75 344.575 176.75Z" fill="#680DC5"/>
<path d="M339.386 190.496C338.059 191.171 336.275 191.726 334.177 191.726C330.921 191.726 329.619 189.989 329.619 187.385V179.282H331.307V187.361C331.307 189.073 332.127 190.254 334.201 190.254C335.479 190.254 336.612 190.013 337.673 189.434V179.282H339.386V190.496Z" fill="#680DC5"/>
<path d="M325.909 190.664C324.776 191.195 322.943 191.725 321.158 191.725C315.708 191.725 312.838 188.229 312.838 183.068C312.838 178.1 315.612 174.266 320.821 174.266C322.412 174.266 324.173 174.627 325.475 175.254L325.065 176.725C323.739 176.147 322.388 175.833 320.845 175.833C316.625 175.833 314.647 179.065 314.647 183.068C314.647 187.264 316.842 190.158 321.207 190.158C322.292 190.158 323.377 189.989 324.293 189.7V184.129H320.628V182.634H325.909V190.664Z" fill="#680DC5"/>
<path d="M300.352 191.074C298.688 193.992 296.783 195.343 294.564 195.873L294.227 194.402C295.963 193.992 297.458 192.955 298.543 191.147C296.035 187.385 294.588 183.84 293.985 179.282H295.673C296.228 183.406 297.554 186.516 299.46 189.772C301.22 186.42 302.354 183.406 302.908 179.282H304.596C303.993 183.695 302.45 187.361 300.352 191.074Z" fill="#680DC5"/>
<path d="M290.913 191.484C290.913 194.498 288.96 196.042 285.8 196.042C284.136 196.042 283.099 195.825 281.918 195.39L282.304 193.968C283.413 194.378 284.378 194.571 285.728 194.571C288.091 194.571 289.225 193.413 289.225 191.604V190.181C288.477 190.64 287.513 190.953 286.234 190.953C282.882 190.953 280.736 188.879 280.736 185.165C280.736 181.355 283.051 178.992 286.693 178.992C288.381 178.992 289.924 179.426 290.913 179.956V191.484ZM282.472 185.069C282.472 187.842 283.943 189.482 286.427 189.482C287.609 189.482 288.501 189.169 289.225 188.662V180.969C288.598 180.704 287.657 180.463 286.693 180.463C284.112 180.463 282.472 182.175 282.472 185.069Z" fill="#680DC5"/>
<path d="M272.749 180.222C274.027 179.498 275.86 178.992 277.813 178.992C278.344 178.992 278.754 179.04 279.164 179.112L278.923 180.583C278.609 180.487 278.199 180.463 277.91 180.463C276.439 180.463 275.281 180.8 274.437 181.283V191.435H272.749V180.222Z" fill="#680DC5"/>
<path d="M268.724 189.458L269.038 190.881C267.856 191.435 266.481 191.725 264.962 191.725C261.176 191.725 258.716 189.482 258.716 185.334C258.716 181.644 260.814 178.992 264.287 178.992C267.494 178.992 269.207 181.331 269.207 184.273C269.207 184.804 269.182 185.262 269.134 185.696H260.453C260.597 188.783 262.334 190.254 265.083 190.254C266.313 190.254 267.591 189.94 268.724 189.458ZM264.287 180.439C262.02 180.439 260.694 182.079 260.477 184.49H267.518C267.543 184.321 267.543 184.225 267.543 184.032C267.543 182.199 266.602 180.439 264.287 180.439Z" fill="#680DC5"/>
<path d="M247.116 191.435H245.428V180.222C246.899 179.474 248.66 178.992 250.541 178.992C253.796 178.992 255.364 180.68 255.364 183.429V191.435H253.676V183.525C253.676 181.669 252.711 180.463 250.541 180.463C249.335 180.463 248.153 180.728 247.116 181.283V191.435Z" fill="#680DC5"/>
<path d="M241.99 189.916V191.436H232.151V174.555H241.99V176.074H233.887V182.006H240.833V183.526H233.887V189.916H241.99Z" fill="#680DC5"/>
<path d="M221.511 190.688C220.498 191.315 219.051 191.725 217.315 191.725C213.649 191.725 211.262 189.434 211.262 185.551C211.262 181.572 213.529 178.992 217.556 178.992C218.376 178.992 219.172 179.161 219.823 179.402V174.096L221.511 174V190.688ZM212.998 185.503C212.998 188.494 214.71 190.254 217.291 190.254C218.304 190.254 219.292 190.037 219.823 189.675V180.945C219.172 180.656 218.376 180.463 217.628 180.463C214.59 180.463 212.998 182.32 212.998 185.503Z" fill="#680DC5"/>
<path d="M208.552 185.358C208.552 189.144 206.574 191.725 203.053 191.725C199.58 191.725 197.579 189.144 197.579 185.358C197.579 181.572 199.58 178.992 203.053 178.992C206.574 178.992 208.552 181.572 208.552 185.358ZM199.315 185.358C199.315 188.3 200.545 190.254 203.053 190.254C205.634 190.254 206.815 188.3 206.815 185.358C206.815 182.416 205.634 180.463 203.053 180.463C200.545 180.463 199.315 182.416 199.315 185.358Z" fill="#680DC5"/>
<path d="M194.869 185.358C194.869 189.144 192.891 191.725 189.37 191.725C185.898 191.725 183.896 189.144 183.896 185.358C183.896 181.572 185.898 178.992 189.37 178.992C192.891 178.992 194.869 181.572 194.869 185.358ZM185.632 185.358C185.632 188.3 186.862 190.254 189.37 190.254C191.951 190.254 193.132 188.3 193.132 185.358C193.132 182.416 191.951 180.463 189.37 180.463C186.862 180.463 185.632 182.416 185.632 185.358Z" fill="#680DC5"/>
<path d="M180.837 190.664C179.704 191.195 177.871 191.725 176.087 191.725C170.636 191.725 167.767 188.229 167.767 183.068C167.767 178.1 170.54 174.266 175.749 174.266C177.341 174.266 179.101 174.627 180.403 175.254L179.993 176.725C178.667 176.147 177.316 175.833 175.773 175.833C171.553 175.833 169.575 179.065 169.575 183.068C169.575 187.264 171.77 190.158 176.135 190.158C177.22 190.158 178.305 189.989 179.222 189.7V184.129H175.556V182.634H180.837V190.664Z" fill="#680DC5"/>
<path d="M153.395 180.222C154.673 179.498 156.506 178.992 158.459 178.992C158.99 178.992 159.399 179.04 159.809 179.112L159.568 180.583C159.255 180.487 158.845 180.463 158.555 180.463C157.084 180.463 155.927 180.8 155.083 181.283V191.435H153.395V180.222Z" fill="#680DC5"/>
<path d="M149.05 190.496C147.723 191.171 145.939 191.726 143.841 191.726C140.585 191.726 139.283 189.989 139.283 187.385V179.282H140.971V187.361C140.971 189.073 141.791 190.254 143.865 190.254C145.143 190.254 146.276 190.013 147.337 189.434V179.282H149.05V190.496Z" fill="#680DC5"/>
<path d="M135.921 185.358C135.921 189.144 133.944 191.725 130.423 191.725C126.95 191.725 124.949 189.144 124.949 185.358C124.949 181.572 126.95 178.992 130.423 178.992C133.944 178.992 135.921 181.572 135.921 185.358ZM126.685 185.358C126.685 188.3 127.915 190.254 130.423 190.254C133.003 190.254 134.185 188.3 134.185 185.358C134.185 182.416 133.003 180.463 130.423 180.463C127.915 180.463 126.685 182.416 126.685 185.358Z" fill="#680DC5"/>
<path d="M117.125 191.436V184.322C114.568 180.921 112.76 178.027 111.337 174.555H113.17C114.376 177.497 115.774 179.812 118.017 182.875C120.236 179.836 121.61 177.497 122.816 174.555H124.649C123.178 178.027 121.417 180.945 118.861 184.273V191.436H117.125Z" fill="#680DC5"/>
<path d="M102.705 189.218H104.345C104.272 191.292 103.525 193.486 102.753 194.981H101.692C102.295 193.052 102.584 191.099 102.705 189.218Z" fill="#680DC5"/>
<path d="M98.9172 187.65L99.5442 190.906C98.5313 191.364 96.8914 191.725 95.2515 191.725C91.3207 191.725 88.5956 189.145 88.5956 185.214C88.5956 181.307 91.176 178.727 94.7692 178.727C97.8802 178.727 100.147 180.946 100.147 184.322C100.147 185.118 100.099 185.841 100.051 186.324H92.9364C93.274 187.698 94.1663 188.301 95.7097 188.301C96.8432 188.301 97.9284 188.036 98.9172 187.65ZM94.7692 181.983C93.7564 181.983 93.057 182.658 92.84 183.912H96.2403V183.719C96.2403 182.586 95.6133 181.983 94.7692 181.983Z" fill="#680DC5"/>
<path d="M87.146 185.214C87.146 189.145 84.7344 191.725 80.9 191.725C77.0656 191.725 74.6299 189.145 74.6299 185.214C74.6299 181.307 77.0656 178.727 80.9 178.727C84.7344 178.727 87.146 181.307 87.146 185.214ZM78.8019 185.214C78.8019 187.192 79.5977 188.349 80.9 188.349C82.2023 188.349 82.974 187.192 82.974 185.214C82.974 183.261 82.2023 182.103 80.9 182.103C79.5977 182.103 78.8019 183.261 78.8019 185.214Z" fill="#680DC5"/>
<path d="M72.6915 177.738C70.9551 181.669 68.7847 184.78 66.2284 187.818H73.2944V191.436H61.0676V188.18C63.5516 185.334 66.3731 181.862 68.23 178.172H61.3329V174.555H72.6915V177.738Z" fill="#680DC5"/>
<path d="M37 184.491V183.02H59.3313V184.491H37Z" fill="#680DC5"/>
</g>
<defs>
<clipPath id="clip0_18_333">
<rect width="451.873" height="264.416" fill="white"/>
</clipPath>
</defs>
</svg>
